<?xml version="1.0" encoding="utf-8"?>
<!-- Generator: Adobe Illustrator 21.0.0, SVG Export Plug-In . SVG Version: 6.00 Build 0)  -->
<svg version="1.1" id="图层_1" xmlns="http://www.w3.org/2000/svg" xmlns:xlink="http://www.w3.org/1999/xlink" x="0px" y="0px"
	 viewBox="0 0 128 128" style="enable-background:new 0 0 128 128;" xml:space="preserve">
<style type="text/css">
	.st0{fill:#979797;}
</style>
<title>ecoin</title>
<desc>Created with Sketch.</desc>
<g id="Page-1">
	<g id="概览展开" transform="translate(-349.000000, -246.000000)">
		<g id="文件下拉-copy-2" transform="translate(340.000000, 161.000000)">
			<g id="Group-11" transform="translate(9.000000, 18.000000)">
				<path id="ecoin" class="st0" d="M64,176.4c25,0,45.4-20.4,45.4-45.4S89,85.6,64,85.6S18.6,106,18.6,131S39,176.4,64,176.4z
					 M64,184c-29.5,0-53-23.5-53-53s23.5-53,53-53s53,23.5,53,53S93.5,184,64,184z M42.8,114.3c1.5,1.5,3.8,1.5,5.3,0
					c1.5-1.5,1.5-3.8,0-5.3l-3.8-3.8c-1.5-1.5-3.8-1.5-5.3,0c-1.5,1.5-1.5,3.8,0,5.3L42.8,114.3z M47.3,137.8c1.5,1.5,3.8,1.5,5.3,0
					c1.5-1.5,1.5-3.8,0-5.3l-9.1-9.1c-1.5-1.5-3.8-1.5-5.3,0c-1.5,1.5-1.5,3.8,0,5.3L47.3,137.8z M43.6,142.4
					c-1.5-1.5-3.8-1.5-5.3,0c-1.5,1.5-1.5,3.8,0,5.3l9.1,9.1c1.5,1.5,3.8,1.5,5.3,0c1.5-1.5,1.5-3.8,0-5.3L43.6,142.4z M65.5,119.6
					c1.5,1.5,3.8,1.5,5.3,0c1.5-1.5,1.5-3.8,0-5.3l-9.1-9.1c-1.5-1.5-3.8-1.5-5.3,0c-1.5,1.5-1.5,3.8,0,5.3L65.5,119.6z M56.4,118.9
					c-1.5-1.5-3.8-1.5-5.3,0c-1.5,1.5-1.5,3.8,0,5.3l19.7,19.7c1.5,1.5,3.8,1.5,5.3,0c1.5-1.5,1.5-3.8,0-5.3L56.4,118.9z
					 M61.7,142.4c-1.5-1.5-3.8-1.5-5.3,0c-1.5,1.5-1.5,3.8,0,5.3l9.1,9.1c1.5,1.5,3.8,1.5,5.3,0c1.5-1.5,1.5-3.8,0-5.3L61.7,142.4z
					 M84.4,119.6c1.5,1.5,3.8,1.5,5.3,0c1.5-1.5,1.5-3.8,0-5.3l-9.1-9.1c-1.5-1.5-3.8-1.5-5.3,0c-1.5,1.5-1.5,3.8,0,5.3L84.4,119.6z
					 M80.7,124.2c-1.5-1.5-3.8-1.5-5.3,0c-1.5,1.5-1.5,3.8,0,5.3l9.1,9.1c1.5,1.5,3.8,1.5,5.3,0c1.5-1.5,1.5-3.8,0-5.3L80.7,124.2z
					 M89.7,151.4l-3.8-3.8c-1.5-1.5-3.8-1.5-5.3,0s-1.5,3.8,0,5.3l3.8,3.8c1.5,1.5,3.8,1.5,5.3,0C90.5,154.5,90.5,152.2,89.7,151.4z
					"/>
			</g>
		</g>
	</g>
</g>
</svg>
