<?xml version="1.0" encoding="utf-8"?>
<!-- Generator: Adobe Illustrator 21.0.0, SVG Export Plug-In . SVG Version: 6.00 Build 0)  -->
<svg version="1.1" id="图层_1" xmlns="http://www.w3.org/2000/svg" xmlns:xlink="http://www.w3.org/1999/xlink" x="0px" y="0px"
	 viewBox="0 0 146 146" style="enable-background:new 0 0 146 146;" xml:space="preserve">
<style type="text/css">
	.st0{fill:#00AFE5;}
	.st1{fill:#FFFFFF;}
</style>
<title>Combined Shape</title>
<desc>Created with Sketch.</desc>
<g id="Page-1">
	<g id="Combined-Shape" transform="translate(-1.000000, 0.000000)">
		<path class="st0" d="M146.3,72.6c0,40.1-32.5,72.6-72.6,72.6S1,112.7,1,72.6S33.5,0,73.6,0S146.3,32.5,146.3,72.6"/>
		<path class="st1" d="M110.1,97.9L95.6,83.4l9.8-9.8l14.5,14.5L110.1,97.9z M80.9,68.7L49.6,37.4l9.8-9.8l31.3,31.3L80.9,68.7z
			 M91.4,116.6L57,82.2l9.8-9.8l34.4,34.4L91.4,116.6z M42.3,67.5L30.9,56.1l9.8-9.8l11.4,11.4L42.3,67.5z M87.1,87.5l-9.8-9.8
			l30.6-30.6l9.8,9.8L87.1,87.5z M57.2,117.4l-9.8-9.8l15.2-15.2l9.8,9.8L57.2,117.4z M85.1,48.9l-9.8-9.8l12.3-12.3l9.8,9.8
			L85.1,48.9z M36.9,97.1l-9.8-9.8L61,53.5l9.8,9.8L36.9,97.1z"/>
	</g>
</g>
</svg>
