<?xml version="1.0" encoding="utf-8"?>
<!-- Generator: Adobe Illustrator 21.0.0, SVG Export Plug-In . SVG Version: 6.00 Build 0)  -->
<svg version="1.1" id="图层_1" xmlns="http://www.w3.org/2000/svg" xmlns:xlink="http://www.w3.org/1999/xlink" x="0px" y="0px"
	 viewBox="0 0 128 128" style="enable-background:new 0 0 128 128;" xml:space="preserve">
<style type="text/css">
	.st0{fill:#979797;}
</style>
<title>ecoin</title>
<desc>Created with Sketch.</desc>
<g id="Ecoin">
	<g id="概览分解展示" transform="translate(-519.000000, -722.000000)">
		<g id="文件下拉-copy-6" transform="translate(475.000000, 637.000000)">
			<g id="Group-11" transform="translate(0.000000, 18.000000)">
				<path id="ecoin" class="st0" d="M108,176.4c25.1,0,45.4-20.3,45.4-45.4S133.1,85.6,108,85.6S62.6,105.9,62.6,131
					S82.9,176.4,108,176.4z M108,184c-29.3,0-53-23.7-53-53s23.7-53,53-53s53,23.7,53,53S137.3,184,108,184z M124.4,139.4l11,11.3
					l7.4-7.6l-11-11.3L124.4,139.4z M113.3,128l-23.7-24.3l7.4-7.6l23.7,24.3L113.3,128z M95.1,138.5l26.1,26.7l7.4-7.6l-26.1-26.7
					L95.1,138.5z M84,127.1l-8.7-8.9l7.4-7.6l8.7,8.9L84,127.1z M118,142.6l23.2-23.8l-7.4-7.6L110.6,135L118,142.6z M87.9,158.3
					l7.4,7.6l11.5-11.8l-7.4-7.6L87.9,158.3z M118.4,95.5l-9.4,9.6l7.4,7.6l9.4-9.6L118.4,95.5z M72.5,142.5l7.4,7.6l25.7-26.3
					l-7.4-7.6L72.5,142.5z"/>
				<g id="Page-1" transform="translate(0.000000, 28.000000)">
				</g>
			</g>
		</g>
	</g>
</g>
</svg>
