<?xml version="1.0" encoding="utf-8"?>
<!-- Generator: Adobe Illustrator 21.0.0, SVG Export Plug-In . SVG Version: 6.00 Build 0)  -->
<svg version="1.1" id="图层_1" xmlns="http://www.w3.org/2000/svg" xmlns:xlink="http://www.w3.org/1999/xlink" x="0px" y="0px"
	 viewBox="0 0 128 128" style="enable-background:new 0 0 128 128;" xml:space="preserve">
<style type="text/css">
	.st0{fill:#979797;}
</style>
<title>qt</title>
<desc>Created with Sketch.</desc>
<g id="Page-1">
	<g id="概览展开" transform="translate(-349.000000, -278.000000)">
		<g id="文件下拉-copy-2" transform="translate(340.000000, 161.000000)">
			<g id="Group-11" transform="translate(9.000000, 18.000000)">
				<path id="qt" class="st0" d="M95.3,197.4c4.6-0.7,5.3-2,6-6.6c0-1.3,0-2,0-4.6c0-1.3,0-2,0-2.7v-58.4c-25.9-4-45.8-7.3-59.8-9.3
					c-10.6-1.3-12.6,0.7-13.3,8.6c0,1.3,0,2.7,0,6c0,1.3,0,2,0,2v75C64.8,202.7,87.3,199.4,95.3,197.4z M21.6,133.7
					c0-10-2-26.6,20.6-23.2c15.3,2.7,37.2,6,65.1,10v63.7c0,6.6,2,17.9-11.3,19.9c-8,2-33.2,5.3-74.4,12V133.7z M41.5,159.6
					c0,17.3,3.3,21.9,13.3,26.6c0.7,8,6,11.3,14.6,10v-6.6c-4,0-5.3-2-5.3-4.6c6.6-4.6,11.3-8.6,11.3-26.6s-6.6-28.5-17.9-28.5
					S41.5,142.3,41.5,159.6z M48.2,159.6c0-13.9,2.7-22.6,10-22.6s10,10,10,22.6s-4,21.2-10,21.2S48.2,174.2,48.2,159.6z
					 M79.4,136.3h4v9.3H88v6.6h-4.6c0,12,0,18.6,0,21.2c0,3.3,2,4,4.6,3.3c0,2.7,0,4,0,5.3c-7.3,2.7-11.3,0-11.3-8.6s0-15.3,0-21.2
					h-2v-6.6h2L79.4,136.3z"/>
			</g>
		</g>
	</g>
</g>
</svg>
