<?xml version="1.0" encoding="utf-8"?>
<!-- Generator: Adobe Illustrator 21.0.0, SVG Export Plug-In . SVG Version: 6.00 Build 0)  -->
<svg version="1.1" id="图层_1" xmlns="http://www.w3.org/2000/svg" xmlns:xlink="http://www.w3.org/1999/xlink" x="0px" y="0px"
	 viewBox="0 0 16 16" style="enable-background:new 0 0 16 16;" xml:space="preserve">
<style type="text/css">
	.st0{fill:#979797;}
</style>
<title>qt</title>
<desc>Created with Sketch.</desc>
<g id="Page-1">
	<g id="概览展开" transform="translate(-349.000000, -278.000000)">
		<g id="文件下拉-copy-2" transform="translate(340.000000, 161.000000)">
			<g id="Group-11" transform="translate(9.000000, 18.000000)">
				<path id="qt" class="st0" d="M13.1,112.2c0.7-0.1,0.8-0.3,0.9-1c0-0.2,0-0.3,0-0.7c0-0.2,0-0.3,0-0.4v-8.8
					c-3.9-0.6-6.9-1.1-9-1.4c-1.6-0.2-1.9,0.1-2,1.3c0,0.2,0,0.4,0,0.9c0,0.2,0,0.3,0,0.3v11.3C8.5,113,11.9,112.5,13.1,112.2z
					 M2,102.6c0-1.5-0.3-4,3.1-3.5c2.3,0.4,5.6,0.9,9.8,1.5v9.6c0,1,0.3,2.7-1.7,3C12,113.5,8.2,114,2,115V102.6z M5,106.5
					c0,2.6,0.5,3.3,2,4c0.1,1.2,0.9,1.7,2.2,1.5V111c-0.6,0-0.8-0.3-0.8-0.7c1-0.7,1.7-1.3,1.7-4S9.1,102,7.4,102S5,103.9,5,106.5z
					 M6,106.5c0-2.1,0.4-3.4,1.5-3.4s1.5,1.5,1.5,3.4s-0.6,3.2-1.5,3.2S6,108.7,6,106.5z M10.7,103h0.6v1.4H12v1h-0.7
					c0,1.8,0,2.8,0,3.2c0,0.5,0.3,0.6,0.7,0.5c0,0.4,0,0.6,0,0.8c-1.1,0.4-1.7,0-1.7-1.3c0-1.3,0-2.3,0-3.2H10v-1h0.3L10.7,103z"/>
			</g>
		</g>
	</g>
</g>
</svg>
