<?xml version="1.0" encoding="utf-8"?>
<!-- Generator: Adobe Illustrator 21.0.0, SVG Export Plug-In . SVG Version: 6.00 Build 0)  -->
<svg version="1.1" id="图层_1" xmlns="http://www.w3.org/2000/svg" xmlns:xlink="http://www.w3.org/1999/xlink" x="0px" y="0px"
	 viewBox="0 0 16 16" style="enable-background:new 0 0 16 16;" xml:space="preserve">
<style type="text/css">
	.st0{fill:#979797;}
</style>
<title>ecoin</title>
<desc>Created with Sketch.</desc>
<g id="Page-1">
	<g id="概览展开" transform="translate(-349.000000, -246.000000)">
		<g id="文件下拉-copy-2" transform="translate(340.000000, 161.000000)">
			<g id="Group-11" transform="translate(9.000000, 18.000000)">
				<path id="ecoin" class="st0" d="M8,81c3.3,0,6-2.7,6-6s-2.7-6-6-6s-6,2.7-6,6S4.7,81,8,81z M8,82c-3.9,0-7-3.1-7-7s3.1-7,7-7
					s7,3.1,7,7S11.9,82,8,82z M5.2,72.8c0.2,0.2,0.5,0.2,0.7,0s0.2-0.5,0-0.7l-0.5-0.5c-0.2-0.2-0.5-0.2-0.7,0s-0.2,0.5,0,0.7
					L5.2,72.8z M5.8,75.9c0.2,0.2,0.5,0.2,0.7,0s0.2-0.5,0-0.7l-1.2-1.2c-0.2-0.2-0.5-0.2-0.7,0s-0.2,0.5,0,0.7L5.8,75.9z M5.3,76.5
					c-0.2-0.2-0.5-0.2-0.7,0c-0.2,0.2-0.2,0.5,0,0.7l1.2,1.2c0.2,0.2,0.5,0.2,0.7,0c0.2-0.2,0.2-0.5,0-0.7L5.3,76.5z M8.2,73.5
					c0.2,0.2,0.5,0.2,0.7,0c0.2-0.2,0.2-0.5,0-0.7l-1.2-1.2c-0.2-0.2-0.5-0.2-0.7,0s-0.2,0.5,0,0.7L8.2,73.5z M7,73.4
					c-0.2-0.2-0.5-0.2-0.7,0c-0.2,0.2-0.2,0.5,0,0.7l2.6,2.6c0.2,0.2,0.5,0.2,0.7,0c0.2-0.2,0.2-0.5,0-0.7L7,73.4z M7.7,76.5
					c-0.2-0.2-0.5-0.2-0.7,0c-0.2,0.2-0.2,0.5,0,0.7l1.2,1.2c0.2,0.2,0.5,0.2,0.7,0c0.2-0.2,0.2-0.5,0-0.7L7.7,76.5z M10.7,73.5
					c0.2,0.2,0.5,0.2,0.7,0c0.2-0.2,0.2-0.5,0-0.7l-1.2-1.2c-0.2-0.2-0.5-0.2-0.7,0c-0.2,0.2-0.2,0.5,0,0.7L10.7,73.5z M10.2,74.1
					c-0.2-0.2-0.5-0.2-0.7,0c-0.2,0.2-0.2,0.5,0,0.7l1.2,1.2c0.2,0.2,0.5,0.2,0.7,0c0.2-0.2,0.2-0.5,0-0.7L10.2,74.1z M11.4,77.7
					l-0.5-0.5c-0.2-0.2-0.5-0.2-0.7,0c-0.2,0.2-0.2,0.5,0,0.7l0.5,0.5c0.2,0.2,0.5,0.2,0.7,0C11.5,78.1,11.5,77.8,11.4,77.7z"/>
			</g>
		</g>
	</g>
</g>
</svg>
