<?xml version="1.0" encoding="utf-8"?>
<!-- Generator: Adobe Illustrator 21.0.0, SVG Export Plug-In . SVG Version: 6.00 Build 0)  -->
<svg version="1.1" id="图层_1" xmlns="http://www.w3.org/2000/svg" xmlns:xlink="http://www.w3.org/1999/xlink" x="0px" y="0px"
	 viewBox="0 0 128 128" style="enable-background:new 0 0 128 128;" xml:space="preserve">
<style type="text/css">
	.st0{fill:#FFFFFF;}
</style>
<title>dizhi</title>
<desc>Created with Sketch.</desc>
<g id="Page-1">
	<g id="发送" transform="translate(-860.000000, -129.000000)">
		<g id="Group-2" transform="translate(24.000000, 102.000000)">
			<g id="Group-7" transform="translate(21.000000, 20.000000)">
				<g id="Group-10" transform="translate(815.000000, 7.000000)">
					<path id="dizhi" class="st0" d="M54.1,63.4c-5.6-4.4-9.4-10.6-9.4-18.1c0-11.9,10-21.9,21.9-21.9s21.9,10,21.9,21.9
						c0,7.5-3.8,13.8-9.4,18.1c12.5,5,21.9,17.5,21.9,31.9h-6.3c0-15.6-12.5-28.1-28.1-28.1S38.5,79.6,38.5,95.3h-6.3
						C32.2,80.9,41.6,68.4,54.1,63.4z M16.6,89.6h6.3v18.1c0,3.8,2.5,6.3,6.3,6.3h75.1c3.8,0,6.3-2.5,6.3-6.3V20.2
						c0-3.8-2.5-6.3-6.3-6.3H29.1c-3.8,0-6.3,2.5-6.3,6.3v12.5h-6.3V20.2c0-6.9,5.6-12.5,12.5-12.5h75.1c6.9,0,12.5,5.6,12.5,12.5
						v87.6c0,6.9-5.6,12.5-12.5,12.5H29.1c-6.9,0-12.5-5.6-12.5-12.5V89.6z M66.6,60.9c8.8,0,15.6-6.9,15.6-15.6
						s-6.9-15.6-15.6-15.6S51,36.5,51,45.2S57.9,60.9,66.6,60.9z M13.5,39H26c1.9,0,3.1,1.3,3.1,3.1c0,1.9-1.3,3.1-3.1,3.1H13.5
						c-1.9,0-3.1-1.3-3.1-3.1C10.3,40.2,11.6,39,13.5,39z M13.5,57.7H26c1.9,0,3.1,1.3,3.1,3.1c0,1.9-1.3,3.1-3.1,3.1H13.5
						c-1.9,0-3.1-1.3-3.1-3.1C10.3,59,11.6,57.7,13.5,57.7z M13.5,76.5H26c1.9,0,3.1,1.3,3.1,3.1s-1.3,3.1-3.1,3.1H13.5
						c-1.9,0-3.1-1.3-3.1-3.1S11.6,76.5,13.5,76.5z"/>
				</g>
			</g>
		</g>
	</g>
</g>
</svg>
