<?xml version="1.0" encoding="utf-8"?>
<!-- Generator: Adobe Illustrator 21.0.0, SVG Export Plug-In . SVG Version: 6.00 Build 0)  -->
<svg version="1.1" id="图层_1" xmlns="http://www.w3.org/2000/svg" xmlns:xlink="http://www.w3.org/1999/xlink" x="0px" y="0px"
	 viewBox="0 0 114 76" style="enable-background:new 0 0 114 76;" xml:space="preserve">
<style type="text/css">
	.st0{opacity:5.000000e-02;}
</style>
<title>landi</title>
<desc>Created with Sketch.</desc>
<g class="st0">
	<g>
		<g>
			<g>
				<path d="M22.8,0.9l0.5-0.5c0.1-0.1,0.2-0.2,0.3-0.3H12.2l0.9,0.9C15.8,3.5,20.1,3.5,22.8,0.9z"/>
				<path d="M14.6,19.5c-2.7-2.7-7-2.7-9.7,0l-0.5,0.5c-2.7,2.7-2.7,7,0,9.7L23,48.4c2.7,2.7,7,2.7,9.7,0l0.5-0.5
					c2.7-2.7,2.7-7,0-9.7L14.6,19.5z"/>
				<path d="M14.6,57.1c-2.7-2.7-7-2.7-9.7,0l-0.5,0.5c-2.7,2.7-2.7,7,0,9.7L13,76h20.4c-0.1-0.1-0.1-0.2-0.2-0.3L14.6,57.1z"/>
				<path d="M70.3,10.8l0.5-0.5c2.7-2.7,2.7-7,0-9.7L70.3,0H49.8l10.8,10.8C63.2,13.4,67.6,13.4,70.3,10.8z"/>
				<path d="M41.6,8.9c-2.7-2.7-7-2.7-9.7,0l-0.5,0.5c-2.7,2.7-2.7,7,0,9.7l40.1,40.1c2.7,2.7,7,2.7,9.7,0l0.5-0.5
					c2.7-2.7,2.7-7,0-9.7L41.6,8.9z"/>
				<path d="M52.2,57.1c-2.7-2.7-7-2.7-9.7,0L42,57.7c-2.7,2.7-2.7,7,0,9.7l8.6,8.6H71c-0.1-0.1-0.1-0.2-0.2-0.3L52.2,57.1z"/>
				<path d="M108.7,10.8l0.5-0.5c2.7-2.7,2.7-7,0-9.7L108.7,0H88.2L99,10.8C101.7,13.4,106,13.4,108.7,10.8z"/>
				<path d="M90.6,19.5c-2.7-2.7-7-2.7-9.7,0L80.4,20c-2.7,2.7-2.7,7,0,9.7L99,48.4c2.7,2.7,7,2.7,9.7,0l0.5-0.5
					c2.7-2.7,2.7-7,0-9.7L90.6,19.5z"/>
				<path d="M100.8,67.2c-2.7-2.7-7-2.7-9.7,0l-0.5,0.5c-2.2,2.2-2.6,5.6-1.1,8.2h20.1c-0.1-0.1-0.1-0.2-0.2-0.3L100.8,67.2z"/>
			</g>
		</g>
	</g>
	<path d="M13.1,0.9L12.2,0h11.4c-0.1,0.1-0.2,0.2-0.3,0.3l-0.5,0.5C20.1,3.5,15.8,3.5,13.1,0.9z"/>
	<path d="M33.2,75.7c0.1,0.1,0.2,0.2,0.2,0.3H13l-8.6-8.6c-2.7-2.7-2.7-7,0-9.7l0.5-0.5c2.7-2.7,7-2.7,9.7,0L33.2,75.7z"/>
	<path d="M33.2,38.1c2.7,2.7,2.7,7,0,9.7l-0.5,0.5c-2.7,2.7-7,2.7-9.7,0L4.4,29.8c-2.7-2.7-2.7-7,0-9.7l0.5-0.5c2.7-2.7,7-2.7,9.7,0
		L33.2,38.1z"/>
	<path d="M70.8,75.7c0.1,0.1,0.2,0.2,0.2,0.3H50.6L42,67.4c-2.7-2.7-2.7-7,0-9.7l0.5-0.5c2.7-2.7,7-2.7,9.7,0L70.8,75.7z"/>
	<path d="M60.6,10.8L49.8,0h20.5l0.5,0.5c2.7,2.7,2.7,7,0,9.7l-0.5,0.5C67.6,13.4,63.2,13.4,60.6,10.8z"/>
	<path d="M81.7,49c2.7,2.7,2.7,7,0,9.7l-0.5,0.5c-2.7,2.7-7,2.7-9.7,0L31.3,19.1c-2.7-2.7-2.7-7,0-9.7l0.5-0.5c2.7-2.7,7-2.7,9.7,0
		L81.7,49z"/>
	<path d="M109.2,75.7c0.1,0.1,0.2,0.2,0.2,0.3H89.4c-1.5-2.6-1.1-6,1.1-8.2l0.5-0.5c2.7-2.7,7-2.7,9.7,0L109.2,75.7z"/>
	<path d="M109.2,38.1c2.7,2.7,2.7,7,0,9.7l-0.5,0.5c-2.7,2.7-7,2.7-9.7,0L80.4,29.8c-2.7-2.7-2.7-7,0-9.7l0.5-0.5
		c2.7-2.7,7-2.7,9.7,0L109.2,38.1z"/>
	<path d="M99,10.8L88.2,0h20.5l0.5,0.5c2.7,2.7,2.7,7,0,9.7l-0.5,0.5C106,13.4,101.7,13.4,99,10.8z"/>
</g>
</svg>
