<?xml version="1.0" encoding="utf-8"?>
<!-- Generator: Adobe Illustrator 21.0.0, SVG Export Plug-In . SVG Version: 6.00 Build 0)  -->
<svg version="1.1" id="图层_1" xmlns="http://www.w3.org/2000/svg" xmlns:xlink="http://www.w3.org/1999/xlink" x="0px" y="0px"
	 viewBox="0 0 134 76" style="enable-background:new 0 0 134 76;" xml:space="preserve">
<style type="text/css">
	.st0{opacity:5.000000e-02;fill-rule:evenodd;clip-rule:evenodd;}
</style>
<title>Combined Shape</title>
<desc>Created with Sketch.</desc>
<path class="st0" d="M49.6,11.7L1.3,59.8l14,13.9l48.3-48.1L49.6,11.7z M78.6,0l5.1,5.1L88.8,0H78.6z M71.8,0H44.1l33.3,33.3
	l13.9-13.8L71.8,0z M20.3,1.5L6.5,15.3l16.1,16.1l13.8-13.8L20.3,1.5z M115.8,2.4L72.3,45.8l13.9,13.9l43.4-43.4L115.8,2.4z
	 M112.2,40.2L98.4,54l20.5,20.5l13.8-13.8L112.2,40.2z M57.7,38.5L43.8,52.3L67.6,76h27.7L57.7,38.5z M51.4,66.5L41.9,76h18.8
	L51.4,66.5z"/>
</svg>
