<?xml version="1.0" encoding="utf-8"?>
<!-- Generator: Adobe Illustrator 21.0.0, SVG Export Plug-In . SVG Version: 6.00 Build 0)  -->
<svg version="1.1" id="图层_1" xmlns="http://www.w3.org/2000/svg" xmlns:xlink="http://www.w3.org/1999/xlink" x="0px" y="0px"
	 viewBox="0 0 24 24" style="enable-background:new 0 0 24 24;" xml:space="preserve">
<style type="text/css">
	.st0{fill:#2798FF;}
</style>
<title>tuichu1</title>
<desc>Created with Sketch.</desc>
<g id="Page-1">
	<g id="概览分解展示" transform="translate(-953.000000, -38.000000)">
		<g id="Group-3" transform="translate(0.000000, 20.000000)">
			<g id="Group-16" transform="translate(921.000000, 18.000000)">
				<path id="tuichu1" class="st0" d="M36.1,4.3c0.4-0.4,1-0.4,1.4,0c0.4,0.4,0.4,1,0,1.4C35.9,7.4,35,9.6,35,12c0,5,4,9,9,9
					s9-4,9-9c0-2.4-0.9-4.6-2.5-6.2c-0.4-0.4-0.4-1,0-1.4c0.4-0.4,1-0.4,1.4,0c1.9,2,3.1,4.7,3.1,7.6c0,6.1-4.9,11-11,11
					s-11-4.9-11-11C33,9.1,34.1,6.4,36.1,4.3z M44,1c0.6,0,1,0.6,1,1.3v11.5c0,0.7-0.4,1.3-1,1.3s-1-0.6-1-1.3V2.3
					C43,1.6,43.4,1,44,1z"/>
			</g>
		</g>
	</g>
</g>
</svg>
