<?xml version="1.0" encoding="utf-8"?>
<!-- Generator: Adobe Illustrator 21.0.0, SVG Export Plug-In . SVG Version: 6.00 Build 0)  -->
<svg version="1.1" id="图层_1" xmlns="http://www.w3.org/2000/svg" xmlns:xlink="http://www.w3.org/1999/xlink" x="0px" y="0px"
	 viewBox="0 0 128 128" style="enable-background:new 0 0 128 128;" xml:space="preserve">
<style type="text/css">
	.st0{fill:#9B9B9B;}
</style>
<title>xuanxiang</title>
<desc>Created with Sketch.</desc>
<g id="Page-1">
	<g id="概览展开" transform="translate(-191.000000, -246.000000)">
		<g id="文件下拉-copy" transform="translate(182.000000, 161.000000)">
			<g id="Group-10" transform="translate(9.000000, 18.000000)">
				<path id="xuanxiang" class="st0" d="M24.7,105.9v50.3L64,177.4l39.3-21.2v-50.3L64,84.6L24.7,105.9z M111.1,101.1V160L64,186
					l-47.1-25.1V102L64,76L111.1,101.1z M64,146.7c-8.6,0-15.7-7.1-15.7-15.7s7.1-15.7,15.7-15.7s15.7,7.1,15.7,15.7
					S72.6,146.7,64,146.7z M64,138.9c4.7,0,7.9-3.1,7.9-7.9c0-4.7-3.1-7.9-7.9-7.9s-7.9,3.1-7.9,7.9C56.1,135.7,59.3,138.9,64,138.9
					z"/>
			</g>
		</g>
	</g>
</g>
</svg>
