<?xml version="1.0" encoding="utf-8"?>
<!-- Generator: Adobe Illustrator 21.0.0, SVG Export Plug-In . SVG Version: 6.00 Build 0)  -->
<svg version="1.1" id="图层_1" xmlns="http://www.w3.org/2000/svg" xmlns:xlink="http://www.w3.org/1999/xlink" x="0px" y="0px"
	 viewBox="0 0 128 128" style="enable-background:new 0 0 128 128;" xml:space="preserve">
<style type="text/css">
	.st0{fill:#9B9B9B;}
</style>
<title>qianming</title>
<desc>Created with Sketch.</desc>
<g id="Page-1">
	<g id="概览展开" transform="translate(-33.000000, -246.000000)">
		<g id="文件下拉" transform="translate(24.000000, 161.000000)">
			<g id="Group-7" transform="translate(9.000000, 18.000000)">
				<path id="qianming" class="st0" d="M108.2,174.8h8.8l-8.8,8.8V174.8z M108.2,174.8v-61.8h8.8v70.7H11V78.5h70.7v8.8H19.8v87.5
					H108.2z M19.8,174.8v8.8l-8.8-8.8H19.8z M11,87.3l8.8-8.8v8.8H11z M19.8,78.5L11,87.3h8.8V78.5z M19.8,87.3v87.5h88.3v-61.8h8.8
					v70.7H11V78.5h70.7v8.8H19.8z M110.8,80.3l6.2,6.2l-70.7,69.8l-6.2-6.2L110.8,80.3z"/>
			</g>
		</g>
	</g>
</g>
</svg>
