<?xml version="1.0" encoding="utf-8"?>
<!-- Generator: Adobe Illustrator 21.0.0, SVG Export Plug-In . SVG Version: 6.00 Build 0)  -->
<svg version="1.1" id="图层_1" xmlns="http://www.w3.org/2000/svg" xmlns:xlink="http://www.w3.org/1999/xlink" x="0px" y="0px"
	 viewBox="0 0 128 128" style="enable-background:new 0 0 128 128;" xml:space="preserve">
<style type="text/css">
	.st0{fill:#FFFFFF;}
</style>
<title>zhantie</title>
<desc>Created with Sketch.</desc>
<g id="Page-1">
	<g id="发送" transform="translate(-899.000000, -129.000000)">
		<g id="Group-2" transform="translate(24.000000, 102.000000)">
			<g id="Group-7" transform="translate(21.000000, 20.000000)">
				<g id="Group-11" transform="translate(854.000000, 7.000000)">
					<path id="zhantie" class="st0" d="M106,91.6V58c0-3.6-2.4-6-6-6H52c-3.6,0-6,2.4-6,6v48c0,3.6,2.4,6,6,6h33.6L106,91.6z M52,46
						h48c6.6,0,12,5.4,12,12v36l-24,24H52c-6.6,0-12-5.4-12-12V58C40,51.4,45.4,46,52,46z M88,48.4h-6V22c0-3.6-2.4-6-6-6H28
						c-3.6,0-6,2.4-6,6v48c0,3.6,2.4,6,6,6h15v6H28c-6.6,0-12-5.4-12-12V22c0-6.6,5.4-12,12-12h48c6.6,0,12,5.4,12,12V48.4z M85,115
						h-6V85h30v6H85V115z"/>
				</g>
			</g>
		</g>
	</g>
</g>
</svg>
