<?xml version="1.0" encoding="utf-8"?>
<!-- Generator: Adobe Illustrator 21.0.0, SVG Export Plug-In . SVG Version: 6.00 Build 0)  -->
<svg version="1.1" id="图层_1" xmlns="http://www.w3.org/2000/svg" xmlns:xlink="http://www.w3.org/1999/xlink" x="0px" y="0px"
	 viewBox="0 0 128 128" style="enable-background:new 0 0 128 128;" xml:space="preserve">
<style type="text/css">
	.st0{fill:#FFFFFF;}
</style>
<title>fa</title>
<desc>Created with Sketch.</desc>
<path class="st0" d="M76.7,29l32.5,32.5l-32,32V83.3V75L69,74.3c-0.2,0-1.4-0.1-3.4-0.1c-6.7,0-23.7,1.1-39.9,10.8
	c4.3-7.8,10.3-14.9,18.1-21.4c13.3-11.2,27-16.2,27.1-16.3l6-2.1v-6.3V29 M72.5,14c-2.4,0-4.8,1.9-4.8,4.8v20
	c0,0-58.8,21.1-58.8,76.5c15.9-29.7,47.2-32.1,56.5-32.1c1.7,0,2.7,0.1,2.7,0.1v20.5c0,2.9,2.3,4.8,4.8,4.8c1.2,0,2.4-0.4,3.3-1.4
	l42.3-42.3c1.9-1.9,1.9-4.9,0-6.7L75.9,15.4C74.9,14.5,73.7,14,72.5,14L72.5,14z"/>
</svg>
