<?xml version="1.0" encoding="utf-8"?>
<!-- Generator: Adobe Illustrator 21.0.0, SVG Export Plug-In . SVG Version: 6.00 Build 0)  -->
<svg version="1.1" id="图层_1" xmlns="http://www.w3.org/2000/svg" xmlns:xlink="http://www.w3.org/1999/xlink" x="0px" y="0px"
	 viewBox="0 0 16 16" style="enable-background:new 0 0 16 16;" xml:space="preserve">
<style type="text/css">
	.st0{fill:#979797;}
</style>
<title>jieshou_chakan</title>
<desc>Created with Sketch.</desc>
<g id="Page-1">
	<g id="接收" transform="translate(-898.000000, -492.000000)">
		<g id="Group-2-Copy" transform="translate(24.000000, 408.000000)">
			<g id="Group-11" transform="translate(0.000000, 76.000000)">
				<g id="Group-12" transform="translate(874.000000, 8.000000)">
					<path id="Combined-Shape" class="st0" d="M8,4C5.9,4,4,5.3,2.2,8C4,10.7,5.9,12,8,12s4-1.3,5.8-4C12,5.3,10.1,4,8,4z M8,13
						c-2.6,0-4.9-1.7-7-5c2.1-3.3,4.4-5,7-5s4.9,1.7,7,5C12.9,11.3,10.6,13,8,13z M8,10.5c1.4,0,2.5-1.1,2.5-2.5S9.4,5.5,8,5.5
						S5.5,6.6,5.5,8S6.6,10.5,8,10.5z M8,9.5C7.2,9.5,6.5,8.8,6.5,8S7.2,6.5,8,6.5S9.5,7.2,9.5,8S8.8,9.5,8,9.5z"/>
				</g>
			</g>
		</g>
	</g>
</g>
</svg>
