<?xml version="1.0" encoding="utf-8"?>
<!-- Generator: Adobe Illustrator 21.0.0, SVG Export Plug-In . SVG Version: 6.00 Build 0)  -->
<svg version="1.1" id="图层_1" xmlns="http://www.w3.org/2000/svg" xmlns:xlink="http://www.w3.org/1999/xlink" x="0px" y="0px"
	 viewBox="0 0 16 16" style="enable-background:new 0 0 16 16;" xml:space="preserve">
<style type="text/css">
	.st0{fill:#979797;}
</style>
<title>dele</title>
<desc>Created with Sketch.</desc>
<g id="Page-1">
	<g id="发送-选择地址" transform="translate(-921.000000, -194.000000)">
		<g id="选择地址" transform="translate(24.000000, 110.000000)">
			<g id="Group-10" transform="translate(0.000000, 76.000000)">
				<g id="Group-12" transform="translate(20.000000, 8.000000)">
					<g id="Group-11" transform="translate(818.000000, 0.000000)">
						<path id="dele" class="st0" d="M62,4v9c0,0.6,0.4,1,1,1h8c0.6,0,1-0.4,1-1V4H62z M61,3h3c0-1.1,0.9-2,2-2h2c1.1,0,2,0.9,2,2h3
							h1v1h-1v9c0,1.1-0.9,2-2,2h-8c-1.1,0-2-0.9-2-2V4h-1V3H61z M69,3c0-0.6-0.4-1-1-1h-2c-0.6,0-1,0.4-1,1H69z M65,6v6h1V6H65z
							 M68,6v6h1V6H68z"/>
					</g>
				</g>
			</g>
		</g>
	</g>
</g>
</svg>
