<?xml version="1.0" encoding="utf-8"?>
<!-- Generator: Adobe Illustrator 21.0.0, SVG Export Plug-In . SVG Version: 6.00 Build 0)  -->
<svg version="1.1" id="图层_1" xmlns="http://www.w3.org/2000/svg" xmlns:xlink="http://www.w3.org/1999/xlink" x="0px" y="0px"
	 viewBox="0 0 30 30" style="enable-background:new 0 0 30 30;" xml:space="preserve">
<style type="text/css">
	.st0{fill:url(#jilu1_1_);}
</style>
<title>jilu1</title>
<desc>Created with Sketch.</desc>
<g id="Page-1">
	<g id="概览展开" transform="translate(-372.000000, -107.000000)">
		<g id="Group-3" transform="translate(0.000000, 20.000000)">
			<g id="Group-4-Copy-6" transform="translate(372.000000, 87.000000)">
				
					<linearGradient id="jilu1_1_" gradientUnits="userSpaceOnUse" x1="-42.0333" y1="74.5333" x2="-42.0333" y2="73.5333" gradientTransform="matrix(30 0 0 -30 1276 2236)">
					<stop  offset="0" style="stop-color:#4BBAFF"/>
					<stop  offset="1" style="stop-color:#4AA3FF"/>
				</linearGradient>
				<path id="jilu1" class="st0" d="M16,14.7V11c0-0.6-0.4-1-1-1s-1,0.4-1,1v4c0,0.1,0,0.3,0.1,0.4c0,0.2,0.1,0.3,0.3,0.4l1.4,1.4
					c0.4,0.4,1,0.4,1.4,0s0.4-1,0-1.4L16,14.7z M23.1,19c0.6-1.2,0.9-2.6,0.9-4c0-5-4-9-9-9s-9,4-9,9s4,9,9,9v-2c-3.9,0-7-3.1-7-7
					s3.1-7,7-7s7,3.1,7,7c0,1.1-0.3,2.1-0.7,3.1l-1.6-0.8l0.5,4.8l4.2-2.4L23.1,19z M15,30C6.7,30,0,23.3,0,15S6.7,0,15,0
					s15,6.7,15,15S23.3,30,15,30z"/>
			</g>
		</g>
	</g>
</g>
</svg>
