<?xml version="1.0" encoding="utf-8"?>
<!-- Generator: Adobe Illustrator 21.0.0, SVG Export Plug-In . SVG Version: 6.00 Build 0)  -->
<svg version="1.1" id="图层_1" xmlns="http://www.w3.org/2000/svg" xmlns:xlink="http://www.w3.org/1999/xlink" x="0px" y="0px"
	 viewBox="0 0 128 128" style="enable-background:new 0 0 128 128;" xml:space="preserve">
<style type="text/css">
	.st0{fill:#9B9B9B;}
</style>
<title>huifu</title>
<desc>Created with Sketch.</desc>
<g id="Ecoin">
	<g id="概览分解展示" transform="translate(-33.000000, -584.000000)">
		<g id="文件下拉" transform="translate(24.000000, 500.000000)">
			<g id="Group-7" transform="translate(9.000000, 18.000000)">
				<path id="Combined-Shape" class="st0" d="M109.4,101.2V77l7.6,0v45.4H71.6v-7.6h36.9c-6.4-18.1-23.2-30.8-43.8-30.8
					c-25.8,0-46.6,20.5-46.6,45.9s20.8,45.9,46.6,45.9c15,0,28.6-7.1,37.2-18.4l5,4.9C97.7,175.2,81.9,183,64.7,183
					C35.4,183,11,159,11,130s24.4-53,53.7-53C83.4,77,99.9,86.7,109.4,101.2z"/>
			</g>
		</g>
	</g>
</g>
</svg>
