<?xml version="1.0" encoding="utf-8"?>
<!-- Generator: Adobe Illustrator 21.0.0, SVG Export Plug-In . SVG Version: 6.00 Build 0)  -->
<svg version="1.1" id="图层_1" xmlns="http://www.w3.org/2000/svg" xmlns:xlink="http://www.w3.org/1999/xlink" x="0px" y="0px"
	 viewBox="0 0 128 128" style="enable-background:new 0 0 128 128;" xml:space="preserve">
<style type="text/css">
	.st0{fill:#979797;}
</style>
<title>genggai</title>
<desc>Created with Sketch.</desc>
<g id="Page-1">
	<g id="概览展开" transform="translate(-191.000000, -212.000000)">
		<g id="文件下拉-copy" transform="translate(182.000000, 161.000000)">
			<g id="Group-10" transform="translate(9.000000, 18.000000)">
				<path id="genggai" class="st0" d="M23.6,87.2v56.5h80.7V87.2H23.6z M27.7,79.1c0-20.2,16.1-36.3,36.3-36.3s36.3,16.1,36.3,36.3
					h12.1v72.7H15.6V79.1H27.7z M35.7,79.1h56.5c0-15.3-12.9-28.3-28.3-28.3S35.7,63.7,35.7,79.1z M73.7,101.7l1.6,1.6H43.8
					c-2.4,0-4,1.6-4,4s1.6,4,4,4h40.4c3.2,0,5.7-4,3.2-6.5l-8.1-8.1c-1.6-1.6-4-1.6-5.7,0C72.1,97.7,72.1,100.1,73.7,101.7z
					 M54.3,129.1l-1.6-1.6h31.5c2.4,0,4-1.6,4-4s-1.6-4-4-4H43.8c-3.2,0-5.7,4-3.2,6.5l8.1,8.1c1.6,1.6,4,1.6,5.7,0
					C55.9,133.2,55.9,130.8,54.3,129.1z"/>
			</g>
		</g>
	</g>
</g>
</svg>
