<?xml version="1.0" encoding="utf-8"?>
<!-- Generator: Adobe Illustrator 21.0.0, SVG Export Plug-In . SVG Version: 6.00 Build 0)  -->
<svg version="1.1" id="图层_1" xmlns="http://www.w3.org/2000/svg" xmlns:xlink="http://www.w3.org/1999/xlink" x="0px" y="0px"
	 viewBox="0 0 128 128" style="enable-background:new 0 0 128 128;" xml:space="preserve">
<style type="text/css">
	.st0{fill:#979797;}
</style>
<title>jiami</title>
<desc>Created with Sketch.</desc>
<g>
	<g>
		<g>
			<path class="st0" d="M59.9,85.6v13.1h8.2V85.6c4.7-1.8,8.3-6.5,8.3-11.6c0-6.5-5.8-12.4-12.4-12.4S51.6,67.4,51.6,74
				C51.6,79.2,55.2,83.9,59.9,85.6z"/>
			<path class="st0" d="M14.6,45.2v74.2h98.9V45.3L14.6,45.2z M105.1,111.1H22.8V53.5h82.3V111.1z"/>
			<path class="st0" d="M64,15.7C73,15.7,81.6,20,87.1,27H99C92.2,14,78.6,5.7,64,5.7c-21.8,0-39.5,17.7-39.5,39.5h10
				C34.4,28.9,47.7,15.7,64,15.7z"/>
		</g>
	</g>
</g>
</svg>
