<?xml version="1.0" encoding="utf-8"?>
<!-- Generator: Adobe Illustrator 21.0.0, SVG Export Plug-In . SVG Version: 6.00 Build 0)  -->
<svg version="1.1" id="图层_1" xmlns="http://www.w3.org/2000/svg" xmlns:xlink="http://www.w3.org/1999/xlink" x="0px" y="0px"
	 viewBox="0 0 16 16" style="enable-background:new 0 0 16 16;" xml:space="preserve">
<style type="text/css">
	.st0{fill:#979797;}
</style>
<title>jiami</title>
<desc>Created with Sketch.</desc>
<g id="Page-1">
	<g id="概览展开" transform="translate(-191.000000, -179.000000)">
		<g id="文件下拉-copy" transform="translate(182.000000, 161.000000)">
			<g id="Group-10" transform="translate(9.000000, 18.000000)">
				<path id="jiami" class="st0" d="M3,6.5v7h10v-7H3z M3.5,5.5C3.5,3,5.5,1,8,1s4.5,2,4.5,4.5H14v9H2v-9H3.5z M4.5,5.5h7
					C11.5,3.6,9.9,2,8,2S4.5,3.6,4.5,5.5z M8,10.5c-0.8,0-1.5-0.7-1.5-1.5S7.2,7.5,8,7.5S9.5,8.2,9.5,9S8.8,10.5,8,10.5z M8.5,12h-1
					V9.1h1V12z"/>
			</g>
		</g>
	</g>
</g>
</svg>
