<?xml version="1.0" encoding="utf-8"?>
<!-- Generator: Adobe Illustrator 21.0.0, SVG Export Plug-In . SVG Version: 6.00 Build 0)  -->
<svg version="1.1" id="图层_1" xmlns="http://www.w3.org/2000/svg" xmlns:xlink="http://www.w3.org/1999/xlink" x="0px" y="0px"
	 viewBox="0 0 128 128" style="enable-background:new 0 0 128 128;" xml:space="preserve">
<style type="text/css">
	.st0{fill:#9B9B9B;}
</style>
<title>wak</title>
<desc>Created with Sketch.</desc>
<g id="Ecoin">
	<g id="概览分解展示" transform="translate(-191.000000, -652.000000)">
		<g id="文件下拉-copy" transform="translate(182.000000, 500.000000)">
			<g id="Group-17" transform="translate(9.000000, 152.000000)">
				<path id="Combined-Shape" class="st0" d="M44.3,28.2l-2.8-4.8c-1.8-3.1-0.7-7.2,2.4-9c3.1-1.8,7.2-0.7,9,2.4l2.6,4.5
					C81.8,8,109,10.3,120.7,14c-18.5,3.7-34.4,8.6-49.6,17.4c-2.1,2.9-3.4,4.8-5.6,7.1c0,0,0,0,0,0l40.1,69.5c1.8,3.1,0.7,7.2-2.4,9
					s-7.2,0.7-9-2.4L54.1,45.2c-3.1,0.6-6.3,1.2-9.9,2c-6.9,4.6-19.4,15.5-37.6,32.6C16.2,56.7,28.8,39.5,44.3,28.2z"/>
			</g>
		</g>
	</g>
</g>
</svg>
