<?xml version="1.0" encoding="utf-8"?>
<!-- Generator: Adobe Illustrator 21.0.0, SVG Export Plug-In . SVG Version: 6.00 Build 0)  -->
<svg version="1.1" id="图层_1" xmlns="http://www.w3.org/2000/svg" xmlns:xlink="http://www.w3.org/1999/xlink" x="0px" y="0px"
	 viewBox="0 0 24 24" style="enable-background:new 0 0 24 24;" xml:space="preserve">
<style type="text/css">
	.st0{fill:#979797;}
</style>
<title>tuichu</title>
<desc>Created with Sketch.</desc>
<g id="Page-1">
	<g id="概览分解展示" transform="translate(-921.000000, -38.000000)">
		<g id="Group-3" transform="translate(0.000000, 20.000000)">
			<g id="Group-16" transform="translate(921.000000, 18.000000)">
				<path id="tuichu" class="st0" d="M4.1,4.3c0.4-0.4,1-0.4,1.4,0c0.4,0.4,0.4,1,0,1.4C3.9,7.4,3,9.6,3,12c0,5,4,9,9,9s9-4,9-9
					c0-2.4-0.9-4.6-2.5-6.2c-0.4-0.4-0.4-1,0-1.4s1-0.4,1.4,0c1.9,2,3.1,4.7,3.1,7.6c0,6.1-4.9,11-11,11S1,18.1,1,12
					C1,9.1,2.1,6.4,4.1,4.3z M12,1c0.6,0,1,0.6,1,1.3v11.5c0,0.7-0.4,1.3-1,1.3s-1-0.6-1-1.3V2.3C11,1.6,11.4,1,12,1z"/>
			</g>
		</g>
	</g>
</g>
</svg>
