<?xml version="1.0" encoding="utf-8"?>
<!-- Generator: Adobe Illustrator 21.0.0, SVG Export Plug-In . SVG Version: 6.00 Build 0)  -->
<svg version="1.1" id="图层_1" xmlns="http://www.w3.org/2000/svg" xmlns:xlink="http://www.w3.org/1999/xlink" x="0px" y="0px"
	 viewBox="0 0 128 128" style="enable-background:new 0 0 128 128;" xml:space="preserve">
<style type="text/css">
	.st0{fill:#979797;}
</style>
<title>ecoin</title>
<desc>Created with Sketch.</desc>
<g id="Page-1">
	<g id="概览展开" transform="translate(-349.000000, -246.000000)">
		<g id="文件下拉-copy-2" transform="translate(340.000000, 161.000000)">
			<g id="Group-11" transform="translate(9.000000, 18.000000)">
				<path id="ecoin" class="st0" d="M64,176.4c25,0,45.4-20.4,45.4-45.4S89,85.6,64,85.6S18.6,106,18.6,131S39,176.4,64,176.4z
					 M64,184c-29.5,0-53-23.5-53-53s23.5-53,53-53s53,23.5,53,53S93.5,184,64,184z"/>
			</g>
		</g>
		<g>
			
				<rect x="430.8" y="315" transform="matrix(0.7071 0.7071 -0.7071 0.7071 354.7968 -216.2628)" class="st0" width="15.3" height="10.3"/>
			
				<rect x="394" y="287" transform="matrix(0.7071 0.7071 -0.7071 0.7071 326.8339 -204.6802)" class="st0" width="32.9" height="10.3"/>
			
				<rect x="399.1" y="321.5" transform="matrix(0.7071 0.7071 -0.7071 0.7071 353.1715 -199.2921)" class="st0" width="36.2" height="10.3"/>
			
				<rect x="383.2" y="293.6" transform="matrix(0.7071 0.7071 -0.7071 0.7071 325.2086 -187.7095)" class="st0" width="12" height="10.3"/>
			
				<rect x="414.8" y="301.3" transform="matrix(-0.7071 0.7071 -0.7071 -0.7071 952.1979 218.4562)" class="st0" width="32.2" height="10.3"/>
			
				<rect x="394.9" y="329.3" transform="matrix(-0.7071 0.7071 -0.7071 -0.7071 924.235 285.9647)" class="st0" width="16" height="10.3"/>
			
				<rect x="416.1" y="279.4" transform="matrix(-0.7071 0.7071 -0.7071 -0.7071 922.5573 186.9557)" class="st0" width="13" height="10.3"/>
			
				<rect x="376.9" y="307.2" transform="matrix(-0.7071 0.7071 -0.7071 -0.7071 894.7421 254.1075)" class="st0" width="35.6" height="10.3"/>
		</g>
	</g>
</g>
</svg>
