<?xml version="1.0" encoding="utf-8"?>
<!-- Generator: Adobe Illustrator 21.0.0, SVG Export Plug-In . SVG Version: 6.00 Build 0)  -->
<svg version="1.1" id="图层_1" xmlns="http://www.w3.org/2000/svg" xmlns:xlink="http://www.w3.org/1999/xlink" x="0px" y="0px"
	 viewBox="0 0 16 16" style="enable-background:new 0 0 16 16;" xml:space="preserve">
<style type="text/css">
	.st0{fill:#9B9B9B;}
</style>
<title>yanzheng</title>
<desc>Created with Sketch.</desc>
<g id="Page-1">
	<g id="概览展开" transform="translate(-33.000000, -278.000000)">
		<g id="文件下拉" transform="translate(24.000000, 161.000000)">
			<g id="Group-7" transform="translate(9.000000, 18.000000)">
				<path id="yanzheng" class="st0" d="M14.6,104.7c0.2,0.7,0.4,1.5,0.4,2.3c0,3.9-3.1,7-7,7s-7-3.1-7-7s3.1-7,7-7
					c1.6,0,3,0.5,4.2,1.4l-0.6,0.8c-1-0.8-2.3-1.2-3.6-1.2c-3.3,0-6,2.7-6,6s2.7,6,6,6s6-2.7,6-6c0-0.7-0.1-1.3-0.3-1.9L14.6,104.7z
					 M14.6,104.7c0.2,0.7,0.4,1.5,0.4,2.3c0,3.9-3.1,7-7,7s-7-3.1-7-7s3.1-7,7-7c1.6,0,3,0.5,4.2,1.4l-0.6,0.8
					c-1-0.8-2.3-1.2-3.6-1.2c-3.3,0-6,2.7-6,6s2.7,6,6,6s6-2.7,6-6c0-0.7-0.1-1.3-0.3-1.9L14.6,104.7z M7.7,108.4l5.6-5.6l0.7,0.7
					l-6.3,6.3l-3.1-3.1l0.7-0.7L7.7,108.4z"/>
			</g>
		</g>
	</g>
</g>
</svg>
