<?xml version="1.0" encoding="utf-8"?>
<!-- Generator: Adobe Illustrator 21.0.0, SVG Export Plug-In . SVG Version: 6.00 Build 0)  -->
<svg version="1.1" id="图层_1" xmlns="http://www.w3.org/2000/svg" xmlns:xlink="http://www.w3.org/1999/xlink" x="0px" y="0px"
	 viewBox="0 0 15 15" style="enable-background:new 0 0 15 15;" xml:space="preserve">
<style type="text/css">
	.st0{fill:#FFA148;}
</style>
<title>cuowu</title>
<desc>Created with Sketch.</desc>
<g id="Ecoin">
	<g id="概览-默认" transform="translate(-530.000000, -293.000000)">
		<g id="Group-2-Copy" transform="translate(510.000000, 102.000000)">
			<g id="Group-6-Copy-6" transform="translate(0.000000, 178.000000)">
				<g id="Group-7" transform="translate(20.000000, 13.000000)">
					<path id="Combined-Shape" class="st0" d="M7.5,6.8L4.9,4.2C4.7,4,4.4,3.9,4.2,4.1C4,4.3,4,4.6,4.2,4.8l2.6,2.7l-2.6,2.6
						c-0.2,0.2-0.2,0.5,0,0.7c0.2,0.2,0.5,0.2,0.7,0l2.6-2.6l2.6,2.6c0.2,0.2,0.5,0.2,0.7,0c0.2-0.2,0.2-0.5,0-0.7L8.2,7.5l2.6-2.7
						c0.2-0.2,0.2-0.5,0-0.7c-0.2-0.2-0.5-0.2-0.7,0L7.5,6.8z M7.5,0C11.6,0,15,3.4,15,7.5S11.6,15,7.5,15S0,11.6,0,7.5S3.4,0,7.5,0
						z"/>
				</g>
			</g>
		</g>
	</g>
</g>
</svg>
