<?xml version="1.0" encoding="utf-8"?>
<!-- Generator: Adobe Illustrator 21.0.0, SVG Export Plug-In . SVG Version: 6.00 Build 0)  -->
<svg version="1.1" id="图层_1" xmlns="http://www.w3.org/2000/svg" xmlns:xlink="http://www.w3.org/1999/xlink" x="0px" y="0px"
	 viewBox="0 0 15 15" style="enable-background:new 0 0 15 15;" xml:space="preserve">
<style type="text/css">
	.st0{fill:#BAC1C4;}
</style>
<title>jinchu</title>
<desc>Created with Sketch.</desc>
<g id="Ecoin">
	<g id="概览-默认" transform="translate(-530.000000, -339.000000)">
		<g id="Group-2-Copy" transform="translate(510.000000, 102.000000)">
			<g id="Group-6-Copy-7" transform="translate(20.000000, 227.000000)">
				<g id="Group-12" transform="translate(0.000000, 10.000000)">
					<path id="Combined-Shape" class="st0" d="M8,3.7l2.2,2.1c0.2,0.2,0.5,0.2,0.7,0c0.2-0.2,0.2-0.5,0-0.7l-3-3
						C7.7,2,7.4,2,7.2,2.1l-3,2.9C4,5.3,3.9,5.6,4.1,5.8C4.3,6,4.6,6,4.8,5.8L7,3.7v7.5L4.9,9.1c-0.2-0.2-0.5-0.2-0.7,0
						C4,9.3,4,9.6,4.2,9.8l2.9,3c0.2,0.2,0.5,0.2,0.7,0l3.1-2.9c0.2-0.2,0.2-0.5,0-0.7s-0.5-0.2-0.7,0L8,11.3V3.7z M7.5,15
						C3.4,15,0,11.6,0,7.5S3.4,0,7.5,0S15,3.4,15,7.5S11.6,15,7.5,15z"/>
				</g>
			</g>
		</g>
	</g>
</g>
</svg>
