<?xml version="1.0" encoding="utf-8"?>
<!-- Generator: Adobe Illustrator 21.0.0, SVG Export Plug-In . SVG Version: 6.00 Build 0)  -->
<svg version="1.1" id="图层_1" xmlns="http://www.w3.org/2000/svg" xmlns:xlink="http://www.w3.org/1999/xlink" x="0px" y="0px"
	 viewBox="0 0 15 15" style="enable-background:new 0 0 15 15;" xml:space="preserve">
<style type="text/css">
	.st0{fill:#BAC1C4;}
</style>
<title>jin</title>
<desc>Created with Sketch.</desc>
<g id="Ecoin">
	<g id="概览-默认" transform="translate(-530.000000, -207.000000)">
		<g id="Group-2-Copy" transform="translate(510.000000, 102.000000)">
			<g id="Group-6-Copy-4" transform="translate(20.000000, 96.000000)">
				<g id="Group-9" transform="translate(0.000000, 9.000000)">
					<path id="Combined-Shape-Copy" class="st0" d="M8,9.3l2.2-2.1c0.2-0.2,0.5-0.2,0.7,0c0.2,0.2,0.2,0.5,0,0.7l-3,3
						c-0.2,0.2-0.5,0.2-0.7,0l-3-2.9C4,7.7,3.9,7.4,4.1,7.2C4.3,7,4.6,7,4.8,7.2L7,9.3V3.5C7,3.2,7.2,3,7.5,3S8,3.2,8,3.5V9.3z
						 M7.5,0C3.4,0,0,3.4,0,7.5S3.4,15,7.5,15S15,11.6,15,7.5S11.6,0,7.5,0z"/>
				</g>
			</g>
		</g>
	</g>
</g>
</svg>
