<?xml version="1.0" encoding="utf-8"?>
<!-- Generator: Adobe Illustrator 21.0.0, SVG Export Plug-In . SVG Version: 6.00 Build 0)  -->
<svg version="1.1" id="图层_1" xmlns="http://www.w3.org/2000/svg" xmlns:xlink="http://www.w3.org/1999/xlink" x="0px" y="0px"
	 viewBox="0 0 15 15" style="enable-background:new 0 0 15 15;" xml:space="preserve">
<style type="text/css">
	.st0{fill:#69A2DA;}
</style>
<title>wakuang</title>
<desc>Created with Sketch.</desc>
<g id="Ecoin">
	<g id="概览-默认" transform="translate(-530.000000, -249.000000)">
		<g id="Group-2-Copy" transform="translate(510.000000, 102.000000)">
			<g id="Group-6-Copy-5" transform="translate(20.000000, 138.000000)">
				<g id="Group-8" transform="translate(0.000000, 9.000000)">
					<path id="Combined-Shape" class="st0" d="M5.3,4.3C3.9,5.2,2.9,6.7,2.1,8.7C3.6,7.3,4.7,6.4,5.2,6c0.3-0.1,0.6-0.1,0.9-0.2l0,0
						l3.5,6C9.7,12,10,12.1,10.3,12s0.3-0.4,0.2-0.7L7,5.2C7.2,5,7.3,4.9,7.4,4.6c1.3-0.7,2.6-1.1,4.2-1.4c-1-0.3-3.3-0.5-5.5,0.6
						L5.9,3.5C5.7,3.3,5.6,3.2,5.3,3.3C5,3.4,5,3.7,5.1,3.9L5.3,4.3z M7.5,0C11.6,0,15,3.4,15,7.5S11.6,15,7.5,15S0,11.6,0,7.5
						S3.4,0,7.5,0z"/>
				</g>
			</g>
		</g>
	</g>
</g>
</svg>
