<?xml version="1.0" encoding="utf-8"?>
<!-- Generator: Adobe Illustrator 21.0.0, SVG Export Plug-In . SVG Version: 6.00 Build 0)  -->
<svg version="1.1" id="图层_1" xmlns="http://www.w3.org/2000/svg" xmlns:xlink="http://www.w3.org/1999/xlink" x="0px" y="0px"
	 viewBox="0 0 15 15" style="enable-background:new 0 0 15 15;" xml:space="preserve">
<style type="text/css">
	.st0{fill:#BAC1C4;}
</style>
<title>chu</title>
<desc>Created with Sketch.</desc>
<g id="Ecoin">
	<g id="概览-默认" transform="translate(-530.000000, -575.000000)">
		<g id="Group-2-Copy" transform="translate(510.000000, 102.000000)">
			<g id="Group-6-Copy-13" transform="translate(20.000000, 463.000000)">
				<g id="Group-10" transform="translate(0.000000, 10.000000)">
					<path id="Combined-Shape" class="st0" d="M8,5.7l2.2,2.1c0.2,0.2,0.5,0.2,0.7,0c0.2-0.2,0.2-0.5,0-0.7l-3-3
						C7.7,4,7.4,4,7.2,4.1l-3,2.9C4,7.3,3.9,7.6,4.1,7.8C4.3,8,4.6,8,4.8,7.8L7,5.7v5.7C7,11.8,7.2,12,7.5,12S8,11.8,8,11.5V5.7z
						 M7.5,15C3.4,15,0,11.6,0,7.5S3.4,0,7.5,0S15,3.4,15,7.5S11.6,15,7.5,15z"/>
				</g>
			</g>
		</g>
	</g>
</g>
</svg>
