<?xml version="1.0" encoding="utf-8"?>
<!-- Generator: Adobe Illustrator 21.0.0, SVG Export Plug-In . SVG Version: 6.00 Build 0)  -->
<svg version="1.1" id="图层_1" xmlns="http://www.w3.org/2000/svg" xmlns:xlink="http://www.w3.org/1999/xlink" x="0px" y="0px"
	 viewBox="0 0 128 128" style="enable-background:new 0 0 128 128;" xml:space="preserve">
<style type="text/css">
	.st0{fill:#9B9B9B;}
</style>
<title>yanzheng</title>
<desc>Created with Sketch.</desc>
<g id="Page-1">
	<g id="概览展开" transform="translate(-33.000000, -278.000000)">
		<g id="文件下拉" transform="translate(24.000000, 161.000000)">
			<g id="Group-7" transform="translate(9.000000, 18.000000)">
				<path id="yanzheng" class="st0" d="M114,145.6c1.5,5.3,3,11.4,3,17.4c0,29.5-23.5,53-53,53s-53-23.5-53-53s23.5-53,53-53
					c12.1,0,22.7,3.8,31.8,10.6l-4.5,6.1c-7.6-6.1-17.4-9.1-27.3-9.1c-25,0-45.4,20.4-45.4,45.4S39,208.4,64,208.4
					s45.4-20.4,45.4-45.4c0-5.3-0.8-9.8-2.3-14.4L114,145.6z M114,145.6c1.5,5.3,3,11.4,3,17.4c0,29.5-23.5,53-53,53s-53-23.5-53-53
					s23.5-53,53-53c12.1,0,22.7,3.8,31.8,10.6l-4.5,6.1c-7.6-6.1-17.4-9.1-27.3-9.1c-25,0-45.4,20.4-45.4,45.4S39,208.4,64,208.4
					s45.4-20.4,45.4-45.4c0-5.3-0.8-9.8-2.3-14.4L114,145.6z M61.7,173.6l42.4-42.4l5.3,5.3l-47.7,47.7l-23.5-23.5l5.3-5.3
					L61.7,173.6z"/>
			</g>
		</g>
	</g>
</g>
</svg>
