<?xml version="1.0" encoding="utf-8"?>
<!-- Generator: Adobe Illustrator 21.0.0, SVG Export Plug-In . SVG Version: 6.00 Build 0)  -->
<svg version="1.1" id="图层_1" xmlns="http://www.w3.org/2000/svg" xmlns:xlink="http://www.w3.org/1999/xlink" x="0px" y="0px"
	 viewBox="0 0 640 380" style="enable-background:new 0 0 640 380;" xml:space="preserve">
<style type="text/css">
	.st0{fill:#FFFFFF;}
	.st1{fill:url(#SVGID_1_);}
	.st2{fill:url(#Combined-Shape_2_);}
	.st3{fill:#00AFE5;}
</style>
<title>BG</title>
<desc>Created with Sketch.</desc>
<g id="Rcoin">
	<g id="loading" transform="translate(0.000000, -20.000000)">
		<rect y="20" class="st0" width="640" height="380"/>
		
			<linearGradient id="SVGID_1_" gradientUnits="userSpaceOnUse" x1="320" y1="2" x2="320" y2="382" gradientTransform="matrix(1 0 0 -1 0 402)">
			<stop  offset="0" style="stop-color:#00AFE5"/>
			<stop  offset="1" style="stop-color:#009ECF"/>
		</linearGradient>
		<rect y="20" class="st1" width="640" height="380"/>
		
			<linearGradient id="Combined-Shape_2_" gradientUnits="userSpaceOnUse" x1="-721.9885" y1="0.8248" x2="-721.9885" y2="1.6346" gradientTransform="matrix(479 0 0 468 346152 -365)">
			<stop  offset="0" style="stop-color:#009ECF"/>
			<stop  offset="1" style="stop-color:#00A7E5"/>
		</linearGradient>
		<path id="Combined-Shape" class="st2" d="M305,207.7l-0.3-0.3l-3-3L256.1,159l-42.3,42.1l-1.7,1.7l-3.1,3l-1.8,1.8l-5.6,5.5
			l-1.2,1.2L80,334.3l50.9,50.7l170.8-170l3-3l2.1-2l0.3-0.3L305,207.7z M393.6,21L330,84.6l50.4,50.4L444,71.4L393.6,21z M246.5,26
			L196,76.5l137,137l3.5,3.5l21,21l30.2-30.2l2-2.1l4.8-4.8l13.5-13.5L246.5,26z M149.3,122L99,172.3l58.7,58.7l50.3-50.3L149.3,122
			z M497.4,125l-74.9,74.9l-2.4,2.4l-3.9,3.8l-6.6,6.6l-4.2,4.2L339,283.4l50.6,50.6L548,175.6L497.4,125z M484.3,263L434,313.3
			l74.7,74.7l50.3-50.3L484.3,263z M285.5,257L235,307.3l93.1,92.7h101L285.5,257z M262.5,359l-40.7,41h81.4L262.5,359z"/>
		<g id="Group-2" transform="translate(285.000000, 98.000000)">
			<g id="Oval-2">
				<g>
					<circle id="path-3_2_" cx="36" cy="36" r="36"/>
				</g>
				<g>
					<circle id="path-3_1_" class="st0" cx="36" cy="36" r="36"/>
				</g>
			</g>
			<path id="Combined-Shape_1_" class="st3" d="M29.1,26.2l-18,17.9l5.2,5.2l18-17.9L29.1,26.2z M43.2,12.1l-6.5,6.5l5.2,5.1
				l6.5-6.5L43.2,12.1z M28.1,12.6L23,17.7l16.5,16.5l5.2-5.2L28.1,12.6z M18.2,22.4L13,27.5l6,6l5.1-5.1L18.2,22.4z M53.8,22.7
				L37.6,38.9l5.2,5.2L59,27.9L53.8,22.7z M52.5,36.8L47.3,42l7.6,7.6l5.2-5.1L52.5,36.8z M32.1,36.2l-5.2,5.1l18.2,18.1l5.2-5.1
				L32.1,36.2z M29.8,46.6l-8,8.1l5.2,5.2l8-8.1L29.8,46.6z"/>
		</g>
		<path id="欢迎使用-Rcoin-Wallet" class="st0" d="M446.8,206.6v-2h-2.5v-3.7h-2.7v3.7h-2.1v2h2.1v7.3c0,0.5,0.1,1,0.2,1.4
			s0.2,0.7,0.5,1c0.2,0.3,0.6,0.5,1,0.6s1,0.2,1.7,0.2c0.3,0,0.6,0,0.9,0s0.6-0.1,0.9-0.1v-2.1c-0.2,0-0.4,0.1-0.6,0.1s-0.4,0-0.6,0
			c-0.3,0-0.5,0-0.7-0.1s-0.3-0.2-0.4-0.3c-0.1-0.2-0.1-0.3-0.2-0.5c0-0.2,0-0.5,0-0.7v-6.6h2.5V206.6z M437.7,208.8
			c-0.2-0.9-0.6-1.6-1.1-2.3s-1.2-1.2-1.9-1.6c-0.8-0.4-1.7-0.6-2.6-0.6s-1.8,0.2-2.5,0.5c-0.7,0.4-1.4,0.8-1.9,1.4
			c-0.5,0.6-0.9,1.3-1.2,2.1c-0.3,0.8-0.4,1.6-0.4,2.5c0,1,0.1,1.8,0.4,2.6s0.6,1.5,1.2,2.1c0.5,0.6,1.2,1,1.9,1.3s1.6,0.5,2.6,0.5
			c0.7,0,1.3-0.1,1.9-0.3s1.2-0.5,1.7-0.8c0.5-0.4,0.9-0.8,1.3-1.3s0.6-1.1,0.8-1.8h-2.6c-0.2,0.7-0.6,1.2-1.1,1.5s-1.1,0.5-1.9,0.5
			c-0.6,0-1.1-0.1-1.5-0.3s-0.8-0.5-1-0.8c-0.3-0.3-0.5-0.7-0.6-1.2s-0.2-0.9-0.2-1.4h9.1C438,210.6,438,209.7,437.7,208.8z
			 M428.8,209.7c0-0.5,0.1-0.9,0.3-1.3c0.2-0.4,0.4-0.8,0.7-1c0.3-0.3,0.6-0.5,1-0.7s0.8-0.2,1.3-0.2s0.9,0.1,1.3,0.3s0.7,0.4,1,0.7
			s0.5,0.7,0.6,1.1c0.2,0.4,0.2,0.8,0.3,1.2h-6.5V209.7z M420.2,199.9V217h2.7v-17.1H420.2z M413.6,199.9V217h2.7v-17.1H413.6z
			 M410.7,215.2h-0.3c-0.3,0-0.4-0.1-0.5-0.2c-0.1-0.1-0.1-0.4-0.1-0.7v-6.4c0-0.7-0.1-1.2-0.4-1.7s-0.7-0.8-1.1-1.1
			c-0.5-0.3-1-0.5-1.6-0.6s-1.2-0.2-1.8-0.2c-0.7,0-1.4,0.1-2,0.2c-0.7,0.1-1.2,0.3-1.8,0.7s-1,0.7-1.3,1.3c-0.3,0.5-0.5,1.2-0.6,2
			h2.7c0.1-0.7,0.3-1.2,0.8-1.5s1.1-0.5,1.9-0.5c0.3,0,0.6,0,0.9,0.1c0.3,0,0.6,0.1,0.8,0.2c0.2,0.1,0.5,0.3,0.6,0.5
			c0.2,0.2,0.2,0.5,0.2,0.9s-0.1,0.7-0.3,0.9s-0.5,0.3-0.8,0.4c-0.3,0.1-0.7,0.2-1.2,0.2s-0.9,0.1-1.4,0.2c-0.6,0.1-1.2,0.2-1.7,0.3
			c-0.6,0.1-1.1,0.3-1.5,0.6c-0.5,0.3-0.8,0.6-1.1,1.1c-0.3,0.5-0.4,1.1-0.4,1.9c0,0.6,0.1,1.1,0.3,1.6c0.2,0.5,0.5,0.8,0.9,1.1
			s0.8,0.5,1.4,0.7c0.5,0.2,1,0.2,1.6,0.2c0.7,0,1.5-0.1,2.3-0.4c0.1,0,0.2-0.1,0.3-0.1c0.7-0.2,1.2-0.6,1.7-1
			c0.1,0.6,0.4,1,0.7,1.2s0.8,0.3,1.4,0.3c0.1,0,0.2,0,0.4,0c0.2,0,0.3,0,0.5-0.1c0.2,0,0.3-0.1,0.5-0.1s0.3-0.1,0.4-0.1v-1.9
			C410.9,215.2,410.8,215.2,410.7,215.2z M404.9,215.1c-0.4,0.1-0.7,0.1-1,0.1c-0.2,0-0.5,0-0.8-0.1c-0.3,0-0.6-0.1-0.8-0.2
			s-0.5-0.3-0.6-0.5c-0.2-0.2-0.3-0.5-0.3-0.8c0-0.4,0.1-0.7,0.2-0.9s0.3-0.5,0.5-0.6c0.2-0.2,0.5-0.3,0.7-0.4
			c0.3-0.1,0.6-0.1,0.8-0.2c0.6-0.1,1.2-0.2,1.8-0.2c0.6-0.1,1.1-0.2,1.5-0.5v2c0,0.4-0.1,0.8-0.3,1.1c-0.2,0.3-0.5,0.5-0.8,0.7
			S405.3,215,404.9,215.1z M394.8,199.9l-0.3,1.1l-2.9,12l0,0l-1.8-7.2l-1.5-5.9h-3.1l-3.5,13.1l0,0l-3.1-13.1h-3.1l4.2,16l0.3,1.2
			h3.1l1.7-6.3l1.8-6.8l0,0l1,3.9l2.4,9.2h3l4.7-17.1L394.8,199.9L394.8,199.9z M364.5,205.3c-0.8-0.7-1.9-1-3.2-1
			c-0.8,0-1.6,0.2-2.2,0.6c-0.7,0.4-1.2,0.9-1.6,1.6l0,0v-1.8h-2.6V217h2.7v-7.3c0-0.5,0.1-0.9,0.2-1.3c0.2-0.4,0.4-0.8,0.6-1
			c0.3-0.3,0.6-0.5,0.9-0.7c0.4-0.2,0.8-0.2,1.2-0.2c0.8,0,1.4,0.2,1.8,0.7c0.4,0.4,0.6,1.1,0.6,2.1v7.8h2.7v-8.5
			C365.6,207.1,365.2,206,364.5,205.3z M348.2,204.6V217h2.7v-12.4H348.2z M348.2,199.9v2.6h2.7v-2.6H348.2z M344.7,208.2
			c-0.3-0.8-0.7-1.5-1.2-2.1s-1.2-1-2-1.3s-1.7-0.5-2.7-0.5s-1.9,0.2-2.6,0.5c-0.8,0.3-1.4,0.8-2,1.3c-0.5,0.6-0.9,1.3-1.2,2.1
			c-0.3,0.8-0.4,1.7-0.4,2.6c0,1,0.1,1.8,0.4,2.6l0,0c0.3,0.8,0.7,1.5,1.2,2c0.5,0.6,1.2,1,2,1.4c0.1,0,0.2,0.1,0.3,0.1
			c0.7,0.2,1.5,0.4,2.3,0.4c1,0,1.9-0.2,2.7-0.5c0.8-0.3,1.4-0.8,2-1.4c0.5-0.6,1-1.3,1.2-2.1c0.3-0.8,0.4-1.7,0.4-2.6
			C345.1,209.8,344.9,209,344.7,208.2z M342.1,212.4c-0.1,0.5-0.3,1-0.6,1.4c-0.3,0.4-0.6,0.8-1.1,1c-0.5,0.3-1,0.4-1.6,0.4
			s-1.1-0.1-1.6-0.4c-0.4-0.2-0.8-0.6-1.1-1c-0.3-0.4-0.5-0.9-0.6-1.4s-0.2-1-0.2-1.6c0-0.5,0.1-1.1,0.2-1.6s0.4-1,0.6-1.4
			c0.3-0.4,0.7-0.7,1.1-1c0.5-0.3,1-0.4,1.6-0.4s1.1,0.1,1.6,0.4s0.8,0.6,1.1,1c0.3,0.4,0.5,0.9,0.6,1.4s0.2,1.1,0.2,1.6
			C342.3,211.3,342.3,211.9,342.1,212.4z M326.4,214.4c-0.5,0.5-1.2,0.8-2,0.8c-0.6,0-1.1-0.1-1.5-0.4c-0.4-0.2-0.8-0.6-1-1
			c-0.3-0.4-0.5-0.9-0.6-1.4s-0.2-1-0.2-1.5c0-1,0.1-1.7,0.3-2.3c0.2-0.6,0.5-1,0.8-1.4c0.3-0.3,0.7-0.6,1.1-0.7
			c0.4-0.1,0.8-0.2,1.1-0.2c0.8,0,1.4,0.2,1.9,0.6c0.5,0.4,0.8,1,0.9,1.7h2.7c-0.1-0.8-0.2-1.4-0.6-2s-0.7-1-1.2-1.4
			s-1.1-0.6-1.7-0.8s-1.3-0.3-2-0.3c-0.2,0-0.5,0-0.7,0c-0.7,0.1-1.4,0.2-2,0.5c-0.8,0.3-1.4,0.8-1.9,1.4c-0.5,0.6-0.9,1.3-1.1,2.1
			c-0.3,0.8-0.4,1.7-0.4,2.6c0,0.9,0.1,1.8,0.4,2.5c0.3,0.8,0.6,1.5,1.2,2s1.1,1,1.9,1.3c0.7,0.3,1.6,0.5,2.6,0.5
			c1.6,0,2.9-0.4,3.8-1.3c1-0.8,1.6-2.1,1.8-3.7h-2.7C327.2,213.2,326.9,213.9,326.4,214.4z M315.5,215.2c-0.2-0.8-0.2-1.7-0.2-2.8
			c0-0.7-0.1-1.2-0.2-1.7c-0.2-0.5-0.4-0.8-0.6-1.1s-0.5-0.5-0.8-0.6s-0.6-0.2-0.8-0.2l0,0c0.1,0,0.4-0.2,0.7-0.3
			c0.3-0.2,0.6-0.4,1-0.7s0.6-0.8,0.8-1.3c0.2-0.5,0.4-1.2,0.4-2c0-1.5-0.5-2.6-1.4-3.4c-0.9-0.8-2.4-1.2-4.2-1.2H302V217h3v-7.1
			h4.4c0.7,0,1.2,0.1,1.7,0.3c0.4,0.2,0.8,0.4,1,0.8c0.3,0.4,0.4,0.8,0.5,1.4c0.1,0.6,0.1,1.2,0.1,2c0,0.4,0,0.9,0.1,1.3
			c0,0.4,0.2,0.8,0.4,1.2h3.2C315.8,216.7,315.6,216.1,315.5,215.2z M311.8,207c-0.5,0.5-1.2,0.7-2.2,0.7h-4.9v-5.3h4.9
			c0.4,0,0.8,0,1.1,0.1c0.4,0.1,0.7,0.2,1,0.4s0.5,0.5,0.7,0.8s0.2,0.8,0.2,1.3C312.5,205.8,312.3,206.5,311.8,207z M269.6,198.3
			v11.5c0,3.3-0.8,6-2.4,8.1l1.3,1.2c1.5-2,2.4-4.5,2.7-7.6h6.2v7h1.8v-7h6.5v4.2c0,1-0.4,1.5-1.3,1.5c-0.5,0-1.4,0-2.7-0.1l0.5,1.7
			h2.8c1.7,0,2.5-0.8,2.5-2.5v-18L269.6,198.3L269.6,198.3z M277.5,210h-6.1v-4.2h6.1V210z M277.5,204.2h-6.1V200h6.1V204.2z
			 M285.8,210h-6.5v-4.2h6.5V210z M285.8,204.2h-6.5V200h6.5V204.2z M247.6,197.2c-1.1,3.8-2.9,7.2-5.4,10.1l0.6,1.8
			c0.8-0.9,1.7-1.9,2.5-3.1v13.4h1.7v-16.2c0.9-1.6,1.6-3.4,2.2-5.3L247.6,197.2z M256.3,215.6c0.6-1.2,1.1-2.9,1.2-5h5.7v-6.8h-5.6
			v-2.3h6.6v-1.7h-6.6v-2.5h-1.8v2.5h-6.3v1.7h6.3v2.3h-5.5v6.8h5.4c-0.1,1.7-0.5,3-1,4.1c-1.3-0.9-2.5-2-3.5-3.3l-1.3,0.9
			c1.1,1.4,2.4,2.6,3.8,3.6c-1.1,1.1-2.9,1.7-5.4,2l0.8,1.6c2.8-0.4,4.8-1.3,6.1-2.6c2.5,1.5,5.5,2.3,8.8,2.5l0.4-1.6
			C261.5,217.6,258.8,216.9,256.3,215.6z M257.7,208.7v-3.4h4v3.7h-4V208.7z M255.9,208.7v0.3h-3.8v-3.7h3.8V208.7z M232.1,198.9
			v17.6h1.6v-16.1h3.4v10.8c0,0.6-0.3,0.9-0.9,0.9l-1.7-0.1l0.5,1.6h1.8c1.3,0,1.9-0.7,1.9-2V199L232.1,198.9L232.1,198.9z
			 M230.9,211.1c-1.2,0.4-2.4,0.8-3.8,1.2v-11.5c1.7-0.6,3-1.2,3.9-1.9l-0.9-1.3c-1,0.8-2.6,1.5-4.5,2.1V212c0,0.5-0.2,0.8-0.6,0.9
			l0.4,1.4c2.3-0.6,4.2-1.2,5.7-1.7L230.9,211.1z M237.2,217.4h-3.3c-1.5,0-3.2,0-5,0c-1.5,0-2.7-0.2-3.4-0.5s-1.4-0.9-2-1.5
			c-0.2-0.2-0.4-0.4-0.7-0.6v-9h-5.1v1.6h3.5v7.3c-1,0.4-2.2,1.7-3.5,3.8l1.2,1.2c1.4-2.3,2.4-3.5,3-3.5c0.3,0,0.7,0.2,1,0.6
			c0.8,0.9,1.7,1.5,2.6,1.8c1,0.3,2.3,0.4,3.9,0.4c2.1,0,3.6,0,4.5,0h5.3l0.4-1.7C239.3,217.3,238.5,217.3,237.2,217.4z
			 M219.7,197.7l-1.2,1.1c1.7,1.3,3,2.6,4,3.8l1.2-1.2C222.6,200.2,221.3,198.9,219.7,197.7z M208.8,208.9c0.1-1,0.2-2,0.2-3.1
			c0-0.4,0-0.9,0-1.4h-1.7c0,1.1-0.1,2.2-0.1,3.2c-0.2,1.7-0.5,3.2-0.9,4.5c-0.9,2.4-2.6,4.3-5.3,5.9l1.1,1.4c3.1-1.8,5-4.2,5.9-7
			l0.2-0.7c1.2,3,3,5.6,5.4,7.6l1.2-1.3C212,215.8,210,212.7,208.8,208.9z M201.7,213.2c-0.9-1.3-1.7-2.4-2.2-3.1
			c0.9-2.4,1.7-5.1,2.2-8.3v-1.6h-8.5v1.7h6.8c-0.4,2.5-0.9,4.7-1.6,6.8c-1.5-2-2.8-3.5-3.9-4.6l-1.2,1.1c1.5,1.6,2.9,3.4,4.4,5.3
			c-1.2,2.8-2.8,4.9-4.9,6.5l0.9,1.6c2-1.6,3.7-3.8,5-6.6c0.6,0.8,1.1,1.7,1.8,2.6c0.2,0.4,0.5,0.7,0.7,1.1l1.2-1.3
			C202.2,213.9,202,213.5,201.7,213.2z M206.3,201.1c0.2-1,0.5-2.3,0.7-3.7l-1.7-0.3c-0.5,3.9-1.5,6.9-3,9.1l1.4,1
			c0.9-1.2,1.7-2.7,2.2-4.5h6.4c-0.4,1.9-0.8,3.7-1.4,5.1l1.7,0.5c0.6-2,1.1-4,1.5-6.1v-1.1H206.3z"/>
	</g>
</g>
</svg>
