<?xml version="1.0" encoding="UTF-8"?>
<svg width="640px" height="380px" viewBox="0 0 640 380" version="1.1" xmlns="http://www.w3.org/2000/svg" xmlns:xlink="http://www.w3.org/1999/xlink">
    <!-- Generator: Sketch 49.3 (51167) - http://www.bohemiancoding.com/sketch -->
    <title>Group 3</title>
    <desc>Created with Sketch.</desc>
    <defs>
        <linearGradient x1="50%" y1="0%" x2="50%" y2="100%" id="linearGradient-1">
            <stop stop-color="#41B1F7" offset="0%"></stop>
            <stop stop-color="#2287F0" offset="100%"></stop>
        </linearGradient>
        <rect id="path-2" x="0" y="0" width="640" height="380"></rect>
        <linearGradient x1="50%" y1="0%" x2="50%" y2="100%" id="linearGradient-4">
            <stop stop-color="#3EAEF7" offset="0%"></stop>
            <stop stop-color="#0B74DB" offset="100%"></stop>
        </linearGradient>
        <circle id="path-5" cx="36" cy="36" r="36"></circle>
        <filter x="-33.3%" y="-29.2%" width="166.7%" height="166.7%" filterUnits="objectBoundingBox" id="filter-6">
            <feOffset dx="0" dy="3" in="SourceAlpha" result="shadowOffsetOuter1"></feOffset>
            <feGaussianBlur stdDeviation="7.5" in="shadowOffsetOuter1" result="shadowBlurOuter1"></feGaussianBlur>
            <feColorMatrix values="0 0 0 0 0   0 0 0 0 0   0 0 0 0 0  0 0 0 0.134963768 0" type="matrix" in="shadowBlurOuter1"></feColorMatrix>
        </filter>
    </defs>
    <g id="Ecoin" stroke="none" stroke-width="1" fill="none" fill-rule="evenodd">
        <g id="loading-copy" transform="translate(0.000000, -20.000000)">
            <g id="Group-4" transform="translate(0.000000, 20.000000)">
                <g id="Group-3">
                    <mask id="mask-3" fill="white">
                        <use xlink:href="#path-2"></use>
                    </mask>
                    <use id="BG" fill="url(#linearGradient-1)" xlink:href="#path-2"></use>
                    <path d="M-22.2729048,43.9366488 C-15.9673652,50.2073766 -15.9673652,60.3763725 -22.2729048,66.6471003 C-28.5761381,72.922417 -38.7978468,72.922417 -45.10108,66.6471003 L-61.2708453,49.4180863 C-67.5763849,43.1427696 -67.5763849,32.9760682 -61.2708453,26.7030459 C-54.967612,20.432318 -44.7459033,20.432318 -38.4403637,26.7030459 L-22.2729048,43.9366488 Z M82.7407816,66.1249521 C89.0127946,72.451749 89.0127946,82.7116699 82.7407816,89.0384668 C76.4710628,95.3698936 66.3037031,95.3698936 60.0339842,89.0384668 L22.1587342,49.6632423 L22.1564401,49.6632423 C15.8844271,43.3318155 15.8844271,33.0742095 22.1564401,26.7450977 C28.4261589,20.4183008 38.5935186,20.4183008 44.8655316,26.7450977 L82.7407816,66.1249521 Z M165.295874,66.1249521 C171.567887,72.451749 171.567887,82.7116699 165.295874,89.0384668 C159.026155,95.3698936 148.858796,95.3698936 142.589077,89.0384668 L104.713827,49.6632423 L104.711532,49.6632423 C98.4395196,43.3318155 98.4395196,33.0742095 104.711532,26.7450977 C110.981251,20.4183008 121.148611,20.4183008 127.420624,26.7450977 L165.295874,66.1249521 Z M-0.711648745,146.885369 C5.5603642,153.212165 5.5603642,163.472086 -0.711648745,169.798883 C-6.98136761,176.13031 -17.1487273,176.13031 -23.4184461,169.798883 L-61.2936962,130.423659 L-61.2959903,130.423659 C-67.5680032,124.092232 -67.5680032,113.834626 -61.2959903,107.505514 C-55.0262714,101.178717 -44.8589118,101.178717 -38.5868988,107.505514 L-0.711648745,146.885369 Z M106.049303,172.041685 C112.351004,178.361426 112.351004,188.609903 106.049303,194.929643 C99.7499064,201.254007 89.5344202,201.254007 83.235024,194.929643 L-2.04769005,107.061438 L-2.04769005,107.059126 C-8.35169608,100.739386 -8.35169608,90.4909089 -2.04769005,84.1711688 C4.2517061,77.8491164 14.4671923,77.8491164 20.7665884,84.1711688 C20.7688934,84.1711688 20.7711983,84.1711688 20.7711983,84.1734812 L106.049303,172.041685 Z M165.295874,146.885369 C171.567887,153.212165 171.567887,163.472086 165.295874,169.798883 C159.026155,176.13031 148.858796,176.13031 142.589077,169.798883 L104.713827,130.423659 L104.711532,130.423659 C98.4395196,124.092232 98.4395196,113.834626 104.711532,107.505514 C110.981251,101.178717 121.148611,101.178717 127.420624,107.505514 L165.295874,146.885369 Z M-0.0957950037,229.626214 C6.23535851,235.910553 6.23535851,246.10162 -0.0957950037,252.385958 C-6.4246328,258.674895 -16.6878634,258.674895 -23.0167012,252.385958 L-61.2490876,213.274978 L-61.2514033,213.274978 C-67.5825568,206.986041 -67.5825568,196.797273 -61.2514033,190.510636 C-54.9225655,184.226298 -44.6593349,184.226298 -38.3281814,190.510636 L-0.0957950037,229.626214 Z M83.3566354,229.626214 C89.6877889,235.910553 89.6877889,246.10162 83.3566354,252.385958 C77.0277976,258.674895 66.764567,258.674895 60.4357292,252.385958 L22.2033428,213.274978 L22.2010271,213.274978 C15.8698736,206.986041 15.8698736,196.797273 22.2010271,190.510636 C28.5298649,184.226298 38.7930954,184.226298 45.124249,190.510636 L83.3566354,229.626214 Z M165.88833,230.218937 C172.244664,236.572946 172.244664,246.876996 165.88833,253.231006 C159.534321,259.589665 149.230271,259.589665 142.876261,253.231006 L125.439353,235.796422 L125.439353,235.794098 C119.080694,229.440088 119.080694,219.136038 125.439353,212.782029 C131.793363,206.425694 142.097413,206.425694 148.451422,212.782029 C148.453747,212.782029 148.456072,212.782029 148.456072,212.784354 L165.88833,230.218937 Z M-22.2729048,293.936649 C-15.9673652,300.207377 -15.9673652,310.376372 -22.2729048,316.6471 C-28.5761381,322.922417 -38.7978468,322.922417 -45.10108,316.6471 L-61.2708453,299.418086 C-67.5763849,293.14277 -67.5763849,282.976068 -61.2708453,276.703046 C-54.967612,270.432318 -44.7459033,270.432318 -38.4403637,276.703046 L-22.2729048,293.936649 Z M82.7407816,316.124952 C89.0127946,322.451749 89.0127946,332.71167 82.7407816,339.038467 C76.4710628,345.369894 66.3037031,345.369894 60.0339842,339.038467 L22.1587342,299.663242 L22.1564401,299.663242 C15.8844271,293.331815 15.8844271,283.07421 22.1564401,276.745098 C28.4261589,270.418301 38.5935186,270.418301 44.8655316,276.745098 L82.7407816,316.124952 Z M165.295874,316.124952 C171.567887,322.451749 171.567887,332.71167 165.295874,339.038467 C159.026155,345.369894 148.858796,345.369894 142.589077,339.038467 L104.713827,299.663242 L104.711532,299.663242 C98.4395196,293.331815 98.4395196,283.07421 104.711532,276.745098 C110.981251,270.418301 121.148611,270.418301 127.420624,276.745098 L165.295874,316.124952 Z M-0.711648745,396.885369 C5.5603642,403.212165 5.5603642,413.472086 -0.711648745,419.798883 C-6.98136761,426.13031 -17.1487273,426.13031 -23.4184461,419.798883 L-61.2936962,380.423659 L-61.2959903,380.423659 C-67.5680032,374.092232 -67.5680032,363.834626 -61.2959903,357.505514 C-55.0262714,351.178717 -44.8589118,351.178717 -38.5868988,357.505514 L-0.711648745,396.885369 Z M106.049303,422.041685 C112.351004,428.361426 112.351004,438.609903 106.049303,444.929643 C99.7499064,451.254007 89.5344202,451.254007 83.235024,444.929643 L-2.04769005,357.061438 L-2.04769005,357.059126 C-8.35169608,350.739386 -8.35169608,340.490909 -2.04769005,334.171169 C4.2517061,327.849116 14.4671923,327.849116 20.7665884,334.171169 C20.7688934,334.171169 20.7711983,334.171169 20.7711983,334.173481 L106.049303,422.041685 Z M165.295874,396.885369 C171.567887,403.212165 171.567887,413.472086 165.295874,419.798883 C159.026155,426.13031 148.858796,426.13031 142.589077,419.798883 L104.713827,380.423659 L104.711532,380.423659 C98.4395196,374.092232 98.4395196,363.834626 104.711532,357.505514 C110.981251,351.178717 121.148611,351.178717 127.420624,357.505514 L165.295874,396.885369 Z M-0.0957950037,479.626214 C6.23535851,485.910553 6.23535851,496.10162 -0.0957950037,502.385958 C-6.4246328,508.674895 -16.6878634,508.674895 -23.0167012,502.385958 L-61.2490876,463.274978 L-61.2514033,463.274978 C-67.5825568,456.986041 -67.5825568,446.797273 -61.2514033,440.510636 C-54.9225655,434.226298 -44.6593349,434.226298 -38.3281814,440.510636 L-0.0957950037,479.626214 Z M83.3566354,479.626214 C89.6877889,485.910553 89.6877889,496.10162 83.3566354,502.385958 C77.0277976,508.674895 66.764567,508.674895 60.4357292,502.385958 L22.2033428,463.274978 L22.2010271,463.274978 C15.8698736,456.986041 15.8698736,446.797273 22.2010271,440.510636 C28.5298649,434.226298 38.7930954,434.226298 45.124249,440.510636 L83.3566354,479.626214 Z M165.88833,480.218937 C172.244664,486.572946 172.244664,496.876996 165.88833,503.231006 C159.534321,509.589665 149.230271,509.589665 142.876261,503.231006 L125.439353,485.796422 L125.439353,485.794098 C119.080694,479.440088 119.080694,469.136038 125.439353,462.782029 C131.793363,456.425694 142.097413,456.425694 148.451422,462.782029 C148.453747,462.782029 148.456072,462.782029 148.456072,462.784354 L165.88833,480.218937 Z M244.727095,43.9366488 C251.032635,50.2073766 251.032635,60.3763725 244.727095,66.6471003 C238.423862,72.922417 228.202153,72.922417 221.89892,66.6471003 L205.729155,49.4180863 C199.423615,43.1427696 199.423615,32.9760682 205.729155,26.7030459 C212.032388,20.432318 222.254097,20.432318 228.559636,26.7030459 L244.727095,43.9366488 Z M349.740782,66.1249521 C356.012795,72.451749 356.012795,82.7116699 349.740782,89.0384668 C343.471063,95.3698936 333.303703,95.3698936 327.033984,89.0384668 L289.158734,49.6632423 L289.15644,49.6632423 C282.884427,43.3318155 282.884427,33.0742095 289.15644,26.7450977 C295.426159,20.4183008 305.593519,20.4183008 311.865532,26.7450977 L349.740782,66.1249521 Z M432.295874,66.1249521 C438.567887,72.451749 438.567887,82.7116699 432.295874,89.0384668 C426.026155,95.3698936 415.858796,95.3698936 409.589077,89.0384668 L371.713827,49.6632423 L371.711532,49.6632423 C365.43952,43.3318155 365.43952,33.0742095 371.711532,26.7450977 C377.981251,20.4183008 388.148611,20.4183008 394.420624,26.7450977 L432.295874,66.1249521 Z M266.288351,146.885369 C272.560364,153.212165 272.560364,163.472086 266.288351,169.798883 C260.018632,176.13031 249.851273,176.13031 243.581554,169.798883 L205.706304,130.423659 L205.70401,130.423659 C199.431997,124.092232 199.431997,113.834626 205.70401,107.505514 C211.973729,101.178717 222.141088,101.178717 228.413101,107.505514 L266.288351,146.885369 Z M373.049303,172.041685 C379.351004,178.361426 379.351004,188.609903 373.049303,194.929643 C366.749906,201.254007 356.53442,201.254007 350.235024,194.929643 L264.95231,107.061438 L264.95231,107.059126 C258.648304,100.739386 258.648304,90.4909089 264.95231,84.1711688 C271.251706,77.8491164 281.467192,77.8491164 287.766588,84.1711688 C287.768893,84.1711688 287.771198,84.1711688 287.771198,84.1734812 L373.049303,172.041685 Z M432.295874,146.885369 C438.567887,153.212165 438.567887,163.472086 432.295874,169.798883 C426.026155,176.13031 415.858796,176.13031 409.589077,169.798883 L371.713827,130.423659 L371.711532,130.423659 C365.43952,124.092232 365.43952,113.834626 371.711532,107.505514 C377.981251,101.178717 388.148611,101.178717 394.420624,107.505514 L432.295874,146.885369 Z M266.904205,229.626214 C273.235359,235.910553 273.235359,246.10162 266.904205,252.385958 C260.575367,258.674895 250.312137,258.674895 243.983299,252.385958 L205.750912,213.274978 L205.748597,213.274978 C199.417443,206.986041 199.417443,196.797273 205.748597,190.510636 C212.077435,184.226298 222.340665,184.226298 228.671819,190.510636 L266.904205,229.626214 Z M350.356635,229.626214 C356.687789,235.910553 356.687789,246.10162 350.356635,252.385958 C344.027798,258.674895 333.764567,258.674895 327.435729,252.385958 L289.203343,213.274978 L289.201027,213.274978 C282.869874,206.986041 282.869874,196.797273 289.201027,190.510636 C295.529865,184.226298 305.793095,184.226298 312.124249,190.510636 L350.356635,229.626214 Z M432.88833,230.218937 C439.244664,236.572946 439.244664,246.876996 432.88833,253.231006 C426.534321,259.589665 416.230271,259.589665 409.876261,253.231006 L392.439353,235.796422 L392.439353,235.794098 C386.080694,229.440088 386.080694,219.136038 392.439353,212.782029 C398.793363,206.425694 409.097413,206.425694 415.451422,212.782029 C415.453747,212.782029 415.456072,212.782029 415.456072,212.784354 L432.88833,230.218937 Z M244.727095,293.936649 C251.032635,300.207377 251.032635,310.376372 244.727095,316.6471 C238.423862,322.922417 228.202153,322.922417 221.89892,316.6471 L205.729155,299.418086 C199.423615,293.14277 199.423615,282.976068 205.729155,276.703046 C212.032388,270.432318 222.254097,270.432318 228.559636,276.703046 L244.727095,293.936649 Z M349.740782,316.124952 C356.012795,322.451749 356.012795,332.71167 349.740782,339.038467 C343.471063,345.369894 333.303703,345.369894 327.033984,339.038467 L289.158734,299.663242 L289.15644,299.663242 C282.884427,293.331815 282.884427,283.07421 289.15644,276.745098 C295.426159,270.418301 305.593519,270.418301 311.865532,276.745098 L349.740782,316.124952 Z M432.295874,316.124952 C438.567887,322.451749 438.567887,332.71167 432.295874,339.038467 C426.026155,345.369894 415.858796,345.369894 409.589077,339.038467 L371.713827,299.663242 L371.711532,299.663242 C365.43952,293.331815 365.43952,283.07421 371.711532,276.745098 C377.981251,270.418301 388.148611,270.418301 394.420624,276.745098 L432.295874,316.124952 Z M266.288351,396.885369 C272.560364,403.212165 272.560364,413.472086 266.288351,419.798883 C260.018632,426.13031 249.851273,426.13031 243.581554,419.798883 L205.706304,380.423659 L205.70401,380.423659 C199.431997,374.092232 199.431997,363.834626 205.70401,357.505514 C211.973729,351.178717 222.141088,351.178717 228.413101,357.505514 L266.288351,396.885369 Z M373.049303,422.041685 C379.351004,428.361426 379.351004,438.609903 373.049303,444.929643 C366.749906,451.254007 356.53442,451.254007 350.235024,444.929643 L264.95231,357.061438 L264.95231,357.059126 C258.648304,350.739386 258.648304,340.490909 264.95231,334.171169 C271.251706,327.849116 281.467192,327.849116 287.766588,334.171169 C287.768893,334.171169 287.771198,334.171169 287.771198,334.173481 L373.049303,422.041685 Z M432.295874,396.885369 C438.567887,403.212165 438.567887,413.472086 432.295874,419.798883 C426.026155,426.13031 415.858796,426.13031 409.589077,419.798883 L371.713827,380.423659 L371.711532,380.423659 C365.43952,374.092232 365.43952,363.834626 371.711532,357.505514 C377.981251,351.178717 388.148611,351.178717 394.420624,357.505514 L432.295874,396.885369 Z M266.904205,479.626214 C273.235359,485.910553 273.235359,496.10162 266.904205,502.385958 C260.575367,508.674895 250.312137,508.674895 243.983299,502.385958 L205.750912,463.274978 L205.748597,463.274978 C199.417443,456.986041 199.417443,446.797273 205.748597,440.510636 C212.077435,434.226298 222.340665,434.226298 228.671819,440.510636 L266.904205,479.626214 Z M350.356635,479.626214 C356.687789,485.910553 356.687789,496.10162 350.356635,502.385958 C344.027798,508.674895 333.764567,508.674895 327.435729,502.385958 L289.203343,463.274978 L289.201027,463.274978 C282.869874,456.986041 282.869874,446.797273 289.201027,440.510636 C295.529865,434.226298 305.793095,434.226298 312.124249,440.510636 L350.356635,479.626214 Z M432.88833,480.218937 C439.244664,486.572946 439.244664,496.876996 432.88833,503.231006 C426.534321,509.589665 416.230271,509.589665 409.876261,503.231006 L392.439353,485.796422 L392.439353,485.794098 C386.080694,479.440088 386.080694,469.136038 392.439353,462.782029 C398.793363,456.425694 409.097413,456.425694 415.451422,462.782029 C415.453747,462.782029 415.456072,462.782029 415.456072,462.784354 L432.88833,480.218937 Z M512.727095,43.9366488 C519.032635,50.2073766 519.032635,60.3763725 512.727095,66.6471003 C506.423862,72.922417 496.202153,72.922417 489.89892,66.6471003 L473.729155,49.4180863 C467.423615,43.1427696 467.423615,32.9760682 473.729155,26.7030459 C480.032388,20.432318 490.254097,20.432318 496.559636,26.7030459 L512.727095,43.9366488 Z M617.740782,66.1249521 C624.012795,72.451749 624.012795,82.7116699 617.740782,89.0384668 C611.471063,95.3698936 601.303703,95.3698936 595.033984,89.0384668 L557.158734,49.6632423 L557.15644,49.6632423 C550.884427,43.3318155 550.884427,33.0742095 557.15644,26.7450977 C563.426159,20.4183008 573.593519,20.4183008 579.865532,26.7450977 L617.740782,66.1249521 Z M700.295874,66.1249521 C706.567887,72.451749 706.567887,82.7116699 700.295874,89.0384668 C694.026155,95.3698936 683.858796,95.3698936 677.589077,89.0384668 L639.713827,49.6632423 L639.711532,49.6632423 C633.43952,43.3318155 633.43952,33.0742095 639.711532,26.7450977 C645.981251,20.4183008 656.148611,20.4183008 662.420624,26.7450977 L700.295874,66.1249521 Z M534.288351,146.885369 C540.560364,153.212165 540.560364,163.472086 534.288351,169.798883 C528.018632,176.13031 517.851273,176.13031 511.581554,169.798883 L473.706304,130.423659 L473.70401,130.423659 C467.431997,124.092232 467.431997,113.834626 473.70401,107.505514 C479.973729,101.178717 490.141088,101.178717 496.413101,107.505514 L534.288351,146.885369 Z M641.049303,172.041685 C647.351004,178.361426 647.351004,188.609903 641.049303,194.929643 C634.749906,201.254007 624.53442,201.254007 618.235024,194.929643 L532.95231,107.061438 L532.95231,107.059126 C526.648304,100.739386 526.648304,90.4909089 532.95231,84.1711688 C539.251706,77.8491164 549.467192,77.8491164 555.766588,84.1711688 C555.768893,84.1711688 555.771198,84.1711688 555.771198,84.1734812 L641.049303,172.041685 Z M700.295874,146.885369 C706.567887,153.212165 706.567887,163.472086 700.295874,169.798883 C694.026155,176.13031 683.858796,176.13031 677.589077,169.798883 L639.713827,130.423659 L639.711532,130.423659 C633.43952,124.092232 633.43952,113.834626 639.711532,107.505514 C645.981251,101.178717 656.148611,101.178717 662.420624,107.505514 L700.295874,146.885369 Z M534.904205,229.626214 C541.235359,235.910553 541.235359,246.10162 534.904205,252.385958 C528.575367,258.674895 518.312137,258.674895 511.983299,252.385958 L473.750912,213.274978 L473.748597,213.274978 C467.417443,206.986041 467.417443,196.797273 473.748597,190.510636 C480.077435,184.226298 490.340665,184.226298 496.671819,190.510636 L534.904205,229.626214 Z M618.356635,229.626214 C624.687789,235.910553 624.687789,246.10162 618.356635,252.385958 C612.027798,258.674895 601.764567,258.674895 595.435729,252.385958 L557.203343,213.274978 L557.201027,213.274978 C550.869874,206.986041 550.869874,196.797273 557.201027,190.510636 C563.529865,184.226298 573.793095,184.226298 580.124249,190.510636 L618.356635,229.626214 Z M700.88833,230.218937 C707.244664,236.572946 707.244664,246.876996 700.88833,253.231006 C694.534321,259.589665 684.230271,259.589665 677.876261,253.231006 L660.439353,235.796422 L660.439353,235.794098 C654.080694,229.440088 654.080694,219.136038 660.439353,212.782029 C666.793363,206.425694 677.097413,206.425694 683.451422,212.782029 C683.453747,212.782029 683.456072,212.782029 683.456072,212.784354 L700.88833,230.218937 Z M512.727095,293.936649 C519.032635,300.207377 519.032635,310.376372 512.727095,316.6471 C506.423862,322.922417 496.202153,322.922417 489.89892,316.6471 L473.729155,299.418086 C467.423615,293.14277 467.423615,282.976068 473.729155,276.703046 C480.032388,270.432318 490.254097,270.432318 496.559636,276.703046 L512.727095,293.936649 Z M617.740782,316.124952 C624.012795,322.451749 624.012795,332.71167 617.740782,339.038467 C611.471063,345.369894 601.303703,345.369894 595.033984,339.038467 L557.158734,299.663242 L557.15644,299.663242 C550.884427,293.331815 550.884427,283.07421 557.15644,276.745098 C563.426159,270.418301 573.593519,270.418301 579.865532,276.745098 L617.740782,316.124952 Z M700.295874,316.124952 C706.567887,322.451749 706.567887,332.71167 700.295874,339.038467 C694.026155,345.369894 683.858796,345.369894 677.589077,339.038467 L639.713827,299.663242 L639.711532,299.663242 C633.43952,293.331815 633.43952,283.07421 639.711532,276.745098 C645.981251,270.418301 656.148611,270.418301 662.420624,276.745098 L700.295874,316.124952 Z M534.288351,396.885369 C540.560364,403.212165 540.560364,413.472086 534.288351,419.798883 C528.018632,426.13031 517.851273,426.13031 511.581554,419.798883 L473.706304,380.423659 L473.70401,380.423659 C467.431997,374.092232 467.431997,363.834626 473.70401,357.505514 C479.973729,351.178717 490.141088,351.178717 496.413101,357.505514 L534.288351,396.885369 Z M641.049303,422.041685 C647.351004,428.361426 647.351004,438.609903 641.049303,444.929643 C634.749906,451.254007 624.53442,451.254007 618.235024,444.929643 L532.95231,357.061438 L532.95231,357.059126 C526.648304,350.739386 526.648304,340.490909 532.95231,334.171169 C539.251706,327.849116 549.467192,327.849116 555.766588,334.171169 C555.768893,334.171169 555.771198,334.171169 555.771198,334.173481 L641.049303,422.041685 Z M700.295874,396.885369 C706.567887,403.212165 706.567887,413.472086 700.295874,419.798883 C694.026155,426.13031 683.858796,426.13031 677.589077,419.798883 L639.713827,380.423659 L639.711532,380.423659 C633.43952,374.092232 633.43952,363.834626 639.711532,357.505514 C645.981251,351.178717 656.148611,351.178717 662.420624,357.505514 L700.295874,396.885369 Z M534.904205,479.626214 C541.235359,485.910553 541.235359,496.10162 534.904205,502.385958 C528.575367,508.674895 518.312137,508.674895 511.983299,502.385958 L473.750912,463.274978 L473.748597,463.274978 C467.417443,456.986041 467.417443,446.797273 473.748597,440.510636 C480.077435,434.226298 490.340665,434.226298 496.671819,440.510636 L534.904205,479.626214 Z M618.356635,479.626214 C624.687789,485.910553 624.687789,496.10162 618.356635,502.385958 C612.027798,508.674895 601.764567,508.674895 595.435729,502.385958 L557.203343,463.274978 L557.201027,463.274978 C550.869874,456.986041 550.869874,446.797273 557.201027,440.510636 C563.529865,434.226298 573.793095,434.226298 580.124249,440.510636 L618.356635,479.626214 Z M700.88833,480.218937 C707.244664,486.572946 707.244664,496.876996 700.88833,503.231006 C694.534321,509.589665 684.230271,509.589665 677.876261,503.231006 L660.439353,485.796422 L660.439353,485.794098 C654.080694,479.440088 654.080694,469.136038 660.439353,462.782029 C666.793363,456.425694 677.097413,456.425694 683.451422,462.782029 C683.453747,462.782029 683.456072,462.782029 683.456072,462.784354 L700.88833,480.218937 Z" id="Combined-Shape" fill="url(#linearGradient-4)" mask="url(#mask-3)"></path>
                    <g id="Group-2" mask="url(#mask-3)">
                        <g transform="translate(285.000000, 78.000000)">
                            <g id="Oval-2" fill="none">
                                <use fill="black" fill-opacity="1" filter="url(#filter-6)" xlink:href="#path-5"></use>
                                <use fill="#FFFFFF" fill-rule="evenodd" xlink:href="#path-5"></use>
                            </g>
                            <path d="M24.2192289,20.5558345 C25.260257,21.572292 25.260257,23.2206416 24.2192289,24.237099 C23.1785816,25.2543003 21.4910043,25.2543003 20.450357,24.237099 L17.7807711,21.4443515 C16.739743,20.4271502 16.739743,18.7791725 17.7807711,17.7623431 C18.8214184,16.7458856 20.5089957,16.7458856 21.5500238,17.7623431 L24.2192289,20.5558345 Z M41.2607178,23.7613109 C42.2464274,24.7307723 42.2464274,26.3029104 41.2607178,27.2723718 C40.2753687,28.2425427 38.6774664,28.2425427 37.6921173,27.2723718 L31.7396427,21.2388665 L31.7392822,21.2388665 C30.7535726,20.2686956 30.7535726,18.6969123 31.7392822,17.7270961 C32.7246313,16.7576346 34.3225336,16.7576346 35.3082432,17.7270961 L41.2607178,23.7613109 Z M55.2607178,23.7613109 C56.2464274,24.7307723 56.2464274,26.3029104 55.2607178,27.2723718 C54.2753687,28.2425427 52.6774664,28.2425427 51.6921173,27.2723718 L45.7396427,21.2388665 L45.7392822,21.2388665 C44.7535726,20.2686956 44.7535726,18.6969123 45.7392822,17.7270961 C46.7246313,16.7576346 48.3225336,16.7576346 49.3082432,17.7270961 L55.2607178,23.7613109 Z M27.2607178,36.7613109 C28.2464274,37.7307723 28.2464274,39.3029104 27.2607178,40.2723718 C26.2753687,41.2425427 24.6774664,41.2425427 23.6921173,40.2723718 L17.7396427,34.2388665 L17.7392822,34.2388665 C16.7535726,33.2686956 16.7535726,31.6969123 17.7392822,30.7270961 C18.7246313,29.7576346 20.3225336,29.7576346 21.3082432,30.7270961 L27.2607178,36.7613109 Z M45.2360845,41.6339069 C46.2546385,42.6325078 46.2546385,44.2519002 45.2360845,45.2505012 C44.217903,46.2498329 42.5667577,46.2498329 41.5485762,45.2505012 L27.7641949,31.3661845 L27.7641949,31.3658191 C26.7452684,30.3672181 26.7452684,28.7478257 27.7641949,27.7492248 C28.7823764,26.7502584 30.4335217,26.7502584 31.4517032,27.7492248 C31.4520757,27.7492248 31.4524483,27.7492248 31.4524483,27.7495901 L45.2360845,41.6339069 Z M55.2607178,36.7613109 C56.2464274,37.7307723 56.2464274,39.3029104 55.2607178,40.2723718 C54.2753687,41.2425427 52.6774664,41.2425427 51.6921173,40.2723718 L45.7396427,34.2388665 L45.7392822,34.2388665 C44.7535726,33.2686956 44.7535726,31.6969123 45.7392822,30.7270961 C46.7246313,29.7576346 48.3225336,29.7576346 49.3082432,30.7270961 L55.2607178,36.7613109 Z M27.2607178,50.7613109 C28.2464274,51.7307723 28.2464274,53.3029104 27.2607178,54.2723718 C26.2753687,55.2425427 24.6774664,55.2425427 23.6921173,54.2723718 L17.7396427,48.2388665 L17.7392822,48.2388665 C16.7535726,47.2686956 16.7535726,45.6969123 17.7392822,44.7270961 C18.7246313,43.7576346 20.3225336,43.7576346 21.3082432,44.7270961 L27.2607178,50.7613109 Z M41.2607178,50.7613109 C42.2464274,51.7307723 42.2464274,53.3029104 41.2607178,54.2723718 C40.2753687,55.2425427 38.6774664,55.2425427 37.6921173,54.2723718 L31.7396427,48.2388665 L31.7392822,48.2388665 C30.7535726,47.2686956 30.7535726,45.6969123 31.7392822,44.7270961 C32.7246313,43.7576346 34.3225336,43.7576346 35.3082432,44.7270961 L41.2607178,50.7613109 Z M55.2370144,50.5537157 C56.2543285,51.5706578 56.2543285,53.2197933 55.2370144,54.2367353 C54.2200723,55.2544216 52.5709369,55.2544216 51.5539948,54.2367353 L48.7632647,51.4463773 L48.7632647,51.4460052 C47.7455784,50.4290631 47.7455784,48.7799277 48.7632647,47.7629856 C49.7802067,46.7456715 51.4293422,46.7456715 52.4462843,47.7629856 C52.4466564,47.7629856 52.4470285,47.7629856 52.4470285,47.7633577 L55.2370144,50.5537157 Z" id="Combined-Shape" fill="#0C80EA" fill-rule="evenodd"></path>
                        </g>
                    </g>
                    <path d="M207.828,177.416 C207.619999,178.824007 207.396001,180.055995 207.156,181.112 L214.884,181.112 L214.884,182.24 C214.499998,184.352011 213.996003,186.39999 213.372,188.384 L211.692,187.904 C212.252003,186.431993 212.715998,184.72001 213.084,182.768 L206.7,182.768 C206.123997,184.576009 205.380004,186.071994 204.468,187.256 L203.076,186.272 C204.644008,184.095989 205.659998,181.05602 206.124,177.152 L207.828,177.416 Z M202.092,195.512 C201.211995,194.167993 200.380004,192.936006 199.596,191.816 C198.251993,194.632014 196.57201,196.831992 194.556,198.416 L193.692,196.856 C195.72401,195.303992 197.347994,193.152014 198.564,190.4 C197.107993,188.46399 195.652007,186.696008 194.196,185.096 L195.348,183.992 C196.452005,185.096006 197.763992,186.62399 199.284,188.576 C199.956003,186.54399 200.483998,184.296012 200.868,181.832 L194.076,181.832 L194.076,180.152 L202.548,180.152 L202.548,181.736 C202.019997,184.888016 201.292005,187.647988 200.364,190.016 C201.100004,191.008005 202.091994,192.415991 203.34,194.24 L202.092,195.512 Z M210.012,184.472 C210.012,186.104008 209.916001,187.591993 209.724,188.936 C210.908006,192.744019 212.907986,195.767989 215.724,198.008 L214.572,199.352 C212.203988,197.27199 210.412006,194.728015 209.196,191.72 L209.004,192.392 C208.139996,195.224014 206.172015,197.551991 203.1,199.376 L201.996,198.008 C204.668013,196.439992 206.435996,194.472012 207.3,192.104 C207.956003,190.10399 208.292,187.560015 208.308,184.472 L210.012,184.472 Z M220.58,177.68 C222.196008,178.944006 223.531995,180.191994 224.588,181.424 L223.388,182.6 C222.427995,181.399994 221.108008,180.128007 219.428,178.784 L220.58,177.68 Z M235.052,198.944 C234.219996,198.944 232.732011,198.928 230.588,198.896 C228.971992,198.88 227.660005,198.736001 226.652,198.464 C225.691995,198.191999 224.812004,197.608004 224.012,196.712 C223.691998,196.295998 223.364002,196.088 223.028,196.088 C222.419997,196.088 221.428007,197.255988 220.052,199.592 L218.804,198.44 C220.148007,196.311989 221.315995,195.032002 222.308,194.6 L222.308,187.304 L218.804,187.304 L218.804,185.72 L223.868,185.72 L223.868,194.696 C224.092001,194.840001 224.307999,195.031999 224.516,195.272 C225.108003,195.944003 225.763996,196.455998 226.484,196.808 C227.204004,197.128002 228.339992,197.312 229.892,197.36 C231.652009,197.392 233.299992,197.408 234.836,197.408 L238.124,197.384 C239.372006,197.352 240.227998,197.32 240.692,197.288 L240.308,198.944 L235.052,198.944 Z M225.932,192.872 C226.300002,192.727999 226.484,192.432002 226.484,191.984 L226.484,179.624 C228.45201,178.999997 229.963995,178.296004 231.02,177.512 L231.932,178.832 C231.003995,179.520003 229.700008,180.159997 228.02,180.752 L228.02,192.248 C229.380007,191.895998 230.635994,191.512002 231.788,191.096 L232.052,192.608 C230.531992,193.120003 228.636011,193.679997 226.364,194.288 L225.932,192.872 Z M235.916,193.544 L235.46,191.96 L237.14,192.032 C237.716003,192.032 238.004,191.744003 238.004,191.168 L238.004,180.392 L234.572,180.392 L234.572,196.472 L233.012,196.472 L233.012,178.88 L239.564,178.88 L239.564,191.504 C239.564,192.864007 238.932006,193.544 237.668,193.544 L235.916,193.544 Z M250.54,179.84 L256.828,179.84 L256.828,177.392 L258.58,177.392 L258.58,179.84 L265.18,179.84 L265.18,181.496 L258.58,181.496 L258.58,183.776 L264.196,183.776 L264.196,190.568 L258.484,190.568 C258.291999,192.728011 257.876003,194.399994 257.236,195.584 C259.636012,196.896007 262.411984,197.639999 265.564,197.816 L265.132,199.472 C261.755983,199.247999 258.804013,198.400007 256.276,196.928 C254.979993,198.240007 252.940014,199.103998 250.156,199.52 L249.412,197.936 C251.876012,197.663999 253.659994,197.000005 254.764,195.944 C253.339993,194.935995 252.076005,193.720007 250.972,192.296 L252.292,191.384 C253.300005,192.648006 254.451993,193.743995 255.748,194.672 C256.260002,193.599995 256.587999,192.232008 256.732,190.568 L251.356,190.568 L251.356,183.776 L256.828,183.776 L256.828,181.496 L250.54,181.496 L250.54,179.84 Z M262.564,189.008 L262.564,185.312 L258.58,185.312 L258.58,188.72 L258.556,189.008 L262.564,189.008 Z M256.804,189.008 L256.828,188.72 L256.828,185.312 L252.988,185.312 L252.988,189.008 L256.804,189.008 Z M246.148,186.056 C245.331996,187.208006 244.500004,188.239995 243.652,189.152 L243.076,187.328 C245.572012,184.399985 247.371994,181.040019 248.476,177.248 L250.108,177.992 C249.499997,179.880009 248.756004,181.647992 247.876,183.296 L247.876,199.448 L246.148,199.448 L246.148,186.056 Z M272.244,185.768 L272.244,189.968 L278.34,189.968 L278.34,185.768 L272.244,185.768 Z M272.148,191.552 C271.875999,194.640015 270.980008,197.18399 269.46,199.184 L268.14,198.008 C269.676008,195.863989 270.468,193.152016 270.516,189.872 L270.516,178.352 L288.396,178.352 L288.396,196.328 C288.396,198.008008 287.556008,198.848 285.876,198.848 L283.116,198.848 L282.66,197.144 C283.940006,197.208 284.827997,197.24 285.324,197.24 C286.204004,197.24 286.644,196.736005 286.644,195.728 L286.644,191.552 L280.116,191.552 L280.116,198.584 L278.34,198.584 L278.34,191.552 L272.148,191.552 Z M286.644,189.968 L286.644,185.768 L280.116,185.768 L280.116,189.968 L286.644,189.968 Z M286.644,184.16 L286.644,180.032 L280.116,180.032 L280.116,184.16 L286.644,184.16 Z M278.34,180.032 L272.244,180.032 L272.244,184.16 L278.34,184.16 L278.34,180.032 Z M302.548,179.864 L314.884,179.864 L314.884,182.456 L305.548,182.456 L305.548,186.944 L314.188,186.944 L314.188,189.392 L305.548,189.392 L305.548,194.408 L315.052,194.408 L315.052,197 L302.548,197 L302.548,179.864 Z M326.46,188.744 C326.347999,187.975996 326.040002,187.396002 325.536,187.004 C325.031997,186.611998 324.396004,186.416 323.628,186.416 C323.275998,186.416 322.900002,186.475999 322.5,186.596 C322.099998,186.716001 321.732002,186.939998 321.396,187.268 C321.059998,187.596002 320.780001,188.051997 320.556,188.636 C320.331999,189.220003 320.22,189.983995 320.22,190.928 C320.22,191.440003 320.279999,191.951997 320.4,192.464 C320.520001,192.976003 320.711999,193.431998 320.976,193.832 C321.240001,194.232002 321.579998,194.555999 321.996,194.804 C322.412002,195.052001 322.915997,195.176 323.508,195.176 C324.308004,195.176 324.967997,194.928002 325.488,194.432 C326.008003,193.935998 326.331999,193.240004 326.46,192.344 L329.196,192.344 C328.939999,193.960008 328.328005,195.195996 327.36,196.052 C326.391995,196.908004 325.108008,197.336 323.508,197.336 C322.531995,197.336 321.672004,197.172002 320.928,196.844 C320.183996,196.515998 319.556003,196.068003 319.044,195.5 C318.531997,194.931997 318.144001,194.256004 317.88,193.472 C317.615999,192.687996 317.484,191.840005 317.484,190.928 C317.484,189.999995 317.611999,189.128004 317.868,188.312 C318.124001,187.495996 318.507997,186.788003 319.02,186.188 C319.532003,185.587997 320.167996,185.116002 320.928,184.772 C321.688004,184.427998 322.579995,184.256 323.604,184.256 C324.324004,184.256 325.007997,184.347999 325.656,184.532 C326.304003,184.716001 326.879997,184.991998 327.384,185.36 C327.888002,185.728002 328.299998,186.191997 328.62,186.752 C328.940002,187.312003 329.132,187.975996 329.196,188.744 L326.46,188.744 Z M337.916,197.336 C336.923995,197.336 336.040004,197.172002 335.264,196.844 C334.487996,196.515998 333.832003,196.064003 333.296,195.488 C332.759997,194.911997 332.352001,194.224004 332.072,193.424 C331.791999,192.623996 331.652,191.744005 331.652,190.784 C331.652,189.839995 331.791999,188.968004 332.072,188.168 C332.352001,187.367996 332.759997,186.680003 333.296,186.104 C333.832003,185.527997 334.487996,185.076002 335.264,184.748 C336.040004,184.419998 336.923995,184.256 337.916,184.256 C338.908005,184.256 339.791996,184.419998 340.568,184.748 C341.344004,185.076002 341.999997,185.527997 342.536,186.104 C343.072003,186.680003 343.479999,187.367996 343.76,188.168 C344.040001,188.968004 344.18,189.839995 344.18,190.784 C344.18,191.744005 344.040001,192.623996 343.76,193.424 C343.479999,194.224004 343.072003,194.911997 342.536,195.488 C341.999997,196.064003 341.344004,196.515998 340.568,196.844 C339.791996,197.172002 338.908005,197.336 337.916,197.336 Z M337.916,195.176 C338.524003,195.176 339.051998,195.048001 339.5,194.792 C339.948002,194.535999 340.315999,194.200002 340.604,193.784 C340.892001,193.367998 341.103999,192.900003 341.24,192.38 C341.376001,191.859997 341.444,191.328003 341.444,190.784 C341.444,190.255997 341.376001,189.728003 341.24,189.2 C341.103999,188.671997 340.892001,188.204002 340.604,187.796 C340.315999,187.387998 339.948002,187.056001 339.5,186.8 C339.051998,186.543999 338.524003,186.416 337.916,186.416 C337.307997,186.416 336.780002,186.543999 336.332,186.8 C335.883998,187.056001 335.516001,187.387998 335.228,187.796 C334.939999,188.204002 334.728001,188.671997 334.592,189.2 C334.455999,189.728003 334.388,190.255997 334.388,190.784 C334.388,191.328003 334.455999,191.859997 334.592,192.38 C334.728001,192.900003 334.939999,193.367998 335.228,193.784 C335.516001,194.200002 335.883998,194.535999 336.332,194.792 C336.780002,195.048001 337.307997,195.176 337.916,195.176 Z M347.332,179.864 L350.068,179.864 L350.068,182.456 L347.332,182.456 L347.332,179.864 Z M347.332,184.592 L350.068,184.592 L350.068,197 L347.332,197 L347.332,184.592 Z M353.844,184.592 L356.436,184.592 L356.436,186.416 L356.484,186.464 C356.900002,185.775997 357.443997,185.236002 358.116,184.844 C358.788003,184.451998 359.531996,184.256 360.348,184.256 C361.708007,184.256 362.779996,184.607996 363.564,185.312 C364.348004,186.016004 364.74,187.071993 364.74,188.48 L364.74,197 L362.004,197 L362.004,189.2 C361.972,188.223995 361.764002,187.516002 361.38,187.076 C360.995998,186.635998 360.396004,186.416 359.58,186.416 C359.115998,186.416 358.700002,186.499999 358.332,186.668 C357.963998,186.836001 357.652001,187.067999 357.396,187.364 C357.139999,187.660001 356.940001,188.007998 356.796,188.408 C356.651999,188.808002 356.58,189.231998 356.58,189.68 L356.58,197 L353.844,197 L353.844,184.592 Z M374.596,179.864 L377.644,179.864 L380.74,192.968 L380.788,192.968 L384.244,179.864 L387.316,179.864 L390.676,192.968 L390.724,192.968 L393.916,179.864 L396.964,179.864 L392.236,197 L389.188,197 L385.756,183.896 L385.708,183.896 L382.204,197 L379.108,197 L374.596,179.864 Z M408.852,194.24 C408.852,194.576002 408.896,194.815999 408.984,194.96 C409.072,195.104001 409.243999,195.176 409.5,195.176 L409.788,195.176 C409.900001,195.176 410.027999,195.16 410.172,195.128 L410.172,197.024 C410.076,197.056 409.952001,197.092 409.8,197.132 C409.647999,197.172 409.492001,197.208 409.332,197.24 C409.171999,197.272 409.012001,197.296 408.852,197.312 C408.691999,197.328 408.556001,197.336 408.444,197.336 C407.883997,197.336 407.420002,197.224001 407.052,197 C406.683998,196.775999 406.444001,196.384003 406.332,195.824 C405.787997,196.352003 405.120004,196.735999 404.328,196.976 C403.535996,197.216001 402.772004,197.336 402.036,197.336 C401.475997,197.336 400.940003,197.260001 400.428,197.108 C399.915997,196.955999 399.464002,196.732001 399.072,196.436 C398.679998,196.139999 398.368001,195.764002 398.136,195.308 C397.903999,194.851998 397.788,194.320003 397.788,193.712 C397.788,192.943996 397.927999,192.320002 398.208,191.84 C398.488001,191.359998 398.855998,190.984001 399.312,190.712 C399.768002,190.439999 400.279997,190.244001 400.848,190.124 C401.416003,190.003999 401.987997,189.912 402.564,189.848 C403.060003,189.752 403.531998,189.684 403.98,189.644 C404.428002,189.604 404.823998,189.536 405.168,189.44 C405.512002,189.344 405.783999,189.196001 405.984,188.996 C406.184001,188.795999 406.284,188.496002 406.284,188.096 C406.284,187.743998 406.200001,187.456001 406.032,187.232 C405.863999,187.007999 405.656001,186.836001 405.408,186.716 C405.159999,186.595999 404.884002,186.516 404.58,186.476 C404.275999,186.436 403.988001,186.416 403.716,186.416 C402.947996,186.416 402.316003,186.575998 401.82,186.896 C401.323998,187.216002 401.044,187.711997 400.98,188.384 L398.244,188.384 C398.292,187.583996 398.483998,186.920003 398.82,186.392 C399.156002,185.863997 399.583997,185.440002 400.104,185.12 C400.624003,184.799998 401.211997,184.576001 401.868,184.448 C402.524003,184.319999 403.195997,184.256 403.884,184.256 C404.492003,184.256 405.091997,184.319999 405.684,184.448 C406.276003,184.576001 406.807998,184.783999 407.28,185.072 C407.752002,185.360001 408.131999,185.731998 408.42,186.188 C408.708001,186.644002 408.852,187.199997 408.852,187.856 L408.852,194.24 Z M406.116,190.784 C405.699998,191.056001 405.188003,191.22 404.58,191.276 C403.971997,191.332 403.364003,191.415999 402.756,191.528 C402.467999,191.576 402.188001,191.644 401.916,191.732 C401.643999,191.82 401.404001,191.939999 401.196,192.092 C400.987999,192.244001 400.824001,192.443999 400.704,192.692 C400.583999,192.940001 400.524,193.239998 400.524,193.592 C400.524,193.896002 400.611999,194.151999 400.788,194.36 C400.964001,194.568001 401.175999,194.731999 401.424,194.852 C401.672001,194.972001 401.943999,195.056 402.24,195.104 C402.536002,195.152 402.803999,195.176 403.044,195.176 C403.348002,195.176 403.675998,195.136 404.028,195.056 C404.380002,194.976 404.711998,194.840001 405.024,194.648 C405.336002,194.455999 405.595999,194.212001 405.804,193.916 C406.012001,193.619999 406.116,193.256002 406.116,192.824 L406.116,190.784 Z M412.676,179.864 L415.412,179.864 L415.412,197 L412.676,197 L412.676,179.864 Z M419.26,179.864 L421.996,179.864 L421.996,197 L419.26,197 L419.26,179.864 Z M434.292,189.704 C434.26,189.271998 434.168001,188.856002 434.016,188.456 C433.863999,188.055998 433.656001,187.708001 433.392,187.412 C433.127999,187.115999 432.808002,186.876001 432.432,186.692 C432.055998,186.507999 431.636002,186.416 431.172,186.416 C430.691998,186.416 430.256002,186.499999 429.864,186.668 C429.471998,186.836001 429.136001,187.067999 428.856,187.364 C428.575999,187.660001 428.352001,188.007998 428.184,188.408 C428.015999,188.808002 427.924,189.239998 427.908,189.704 L434.292,189.704 Z M427.908,191.504 C427.908,191.984002 427.975999,192.447998 428.112,192.896 C428.248001,193.344002 428.451999,193.735998 428.724,194.072 C428.996001,194.408002 429.339998,194.675999 429.756,194.876 C430.172002,195.076001 430.667997,195.176 431.244,195.176 C432.044004,195.176 432.687998,195.004002 433.176,194.66 C433.664003,194.315998 434.027999,193.800003 434.268,193.112 L436.86,193.112 C436.715999,193.784003 436.468002,194.383997 436.116,194.912 C435.763998,195.440003 435.340003,195.883998 434.844,196.244 C434.347998,196.604002 433.792003,196.875999 433.176,197.06 C432.559997,197.244001 431.916003,197.336 431.244,197.336 C430.267995,197.336 429.404004,197.176002 428.652,196.856 C427.899996,196.535998 427.264003,196.088003 426.744,195.512 C426.223997,194.935997 425.832001,194.248004 425.568,193.448 C425.303999,192.647996 425.172,191.768005 425.172,190.808 C425.172,189.927996 425.311999,189.092004 425.592,188.3 C425.872001,187.507996 426.271997,186.812003 426.792,186.212 C427.312003,185.611997 427.939996,185.136002 428.676,184.784 C429.412004,184.431998 430.243995,184.256 431.172,184.256 C432.148005,184.256 433.023996,184.459998 433.8,184.868 C434.576004,185.276002 435.219998,185.815997 435.732,186.488 C436.244003,187.160003 436.615999,187.931996 436.848,188.804 C437.080001,189.676004 437.140001,190.575995 437.028,191.504 L427.908,191.504 Z M438.668,184.592 L440.732,184.592 L440.732,180.872 L443.468,180.872 L443.468,184.592 L445.94,184.592 L445.94,186.632 L443.468,186.632 L443.468,193.256 C443.468,193.544001 443.48,193.791999 443.504,194 C443.528,194.208001 443.584,194.383999 443.672,194.528 C443.760001,194.672001 443.891999,194.78 444.068,194.852 C444.244001,194.924 444.483999,194.96 444.788,194.96 C444.980001,194.96 445.171999,194.956 445.364,194.948 C445.556001,194.94 445.747999,194.912 445.94,194.864 L445.94,196.976 C445.635999,197.008 445.340002,197.04 445.052,197.072 C444.763999,197.104 444.468002,197.12 444.164,197.12 C443.443996,197.12 442.864002,197.052001 442.424,196.916 C441.983998,196.779999 441.640001,196.580001 441.392,196.316 C441.143999,196.051999 440.976001,195.720002 440.888,195.32 C440.8,194.919998 440.748,194.464003 440.732,193.952 L440.732,186.632 L438.668,186.632 L438.668,184.592 Z" id="欢迎使用-Ecoin-Wallet" fill="#FFFFFF" mask="url(#mask-3)"></path>
                </g>
            </g>
        </g>
    </g>
</svg>