<?xml version="1.0" encoding="UTF-8"?>
<svg width="640px" height="380px" viewBox="0 0 640 380" version="1.1" xmlns="http://www.w3.org/2000/svg" xmlns:xlink="http://www.w3.org/1999/xlink">
    <!-- Generator: Sketch 49.3 (51167) - http://www.bohemiancoding.com/sketch -->
    <title>BG</title>
    <desc>Created with Sketch.</desc>
    <defs>
        <linearGradient x1="50%" y1="0%" x2="50%" y2="100%" id="linearGradient-1">
            <stop stop-color="#00AFE5" offset="0%"></stop>
            <stop stop-color="#009ECF" offset="100%"></stop>
        </linearGradient>
        <linearGradient x1="50%" y1="0%" x2="50%" y2="100%" id="linearGradient-2">
            <stop stop-color="#00ADE3" offset="0%"></stop>
            <stop stop-color="#0092C0" offset="100%"></stop>
        </linearGradient>
        <circle id="path-3" cx="36" cy="36" r="36"></circle>
        <filter x="-33.3%" y="-29.2%" width="166.7%" height="166.7%" filterUnits="objectBoundingBox" id="filter-4">
            <feOffset dx="0" dy="3" in="SourceAlpha" result="shadowOffsetOuter1"></feOffset>
            <feGaussianBlur stdDeviation="7.5" in="shadowOffsetOuter1" result="shadowBlurOuter1"></feGaussianBlur>
            <feColorMatrix values="0 0 0 0 0   0 0 0 0 0   0 0 0 0 0  0 0 0 0.134963768 0" type="matrix" in="shadowBlurOuter1"></feColorMatrix>
        </filter>
    </defs>
    <g id="Rcoin" stroke="none" stroke-width="1" fill="none" fill-rule="evenodd">
        <g id="loading" transform="translate(0.000000, -20.000000)">
            <rect id="BG" fill="#FFFFFF" x="0" y="0" width="640" height="400"></rect>
            <rect id="BG" fill="url(#linearGradient-1)" x="0" y="20" width="640" height="380"></rect>
            <path d="M184,438.061157 L262.450497,359 L313,409.938843 L234.545397,489 L184,438.061157 Z M235,307.27876 L285.500252,257 L463,433.71307 L412.499748,484 L235,307.27876 Z M434,313.335351 L484.336998,263 L559,337.660559 L508.663002,388 L434,313.335351 Z M389.605496,334 L339,283.394504 L497.402726,125 L548,175.601385 L389.605496,334 Z M208,180.721845 L157.721845,231 L99,172.278155 L149.278155,122 L208,180.721845 Z M408,187.509355 L357.510332,238 L196,76.486543 L246.489668,26 L408,187.509355 Z M393.595431,21 L444,71.4063802 L380.408665,135 L330,84.5936198 L393.595431,21 Z M80,334.340144 L256.115986,159 L307,209.65574 L130.875747,385 L80,334.340144 Z" id="Combined-Shape" fill="url(#linearGradient-2)"></path>
            <g id="Group-2" transform="translate(285.000000, 98.000000)">
                <g id="Oval-2">
                    <use fill="black" fill-opacity="1" filter="url(#filter-4)" xlink:href="#path-3"></use>
                    <use fill="#FFFFFF" fill-rule="evenodd" xlink:href="#path-3"></use>
                </g>
                <path d="M21.7264377,54.7265067 L29.7516451,46.6388309 L34.9226799,51.8496938 L26.8970524,59.9373695 L21.7264377,54.7265067 Z M26.9435567,41.3479316 L32.1095533,36.2045929 L50.2671475,54.2817128 L45.101151,59.4258873 L26.9435567,41.3479316 Z M47.3005505,41.9674994 L52.4498467,36.8183716 L60.0876068,44.4558819 L54.9383106,49.605428 L47.3005505,41.9674994 Z M42.7591503,44.0814196 L37.5823876,38.904657 L53.7864244,22.7014614 L58.9623459,27.8778035 L42.7591503,44.0814196 Z M24.1815526,28.4016084 L19.0382758,33.5448852 L13.0312394,27.5378488 L18.1745162,22.394572 L24.1815526,28.4016084 Z M44.6408427,29.0959466 L39.4759289,34.2609603 L22.9539951,17.7387069 L28.118909,12.5741127 L44.6408427,29.0959466 Z M43.1673064,12.0626305 L48.323515,17.2190243 L41.8183471,23.7244259 L36.6617196,18.5680321 L43.1673064,12.0626305 Z M11.0876068,44.1162152 L29.1036471,26.1795407 L34.3089012,31.3614431 L16.2920152,49.2985386 L11.0876068,44.1162152 Z" id="Combined-Shape" fill="#00AFE5"></path>
            </g>
            <path d="M206.94,197.416 C206.731999,198.824007 206.508001,200.055995 206.268,201.112 L213.996,201.112 L213.996,202.24 C213.611998,204.352011 213.108003,206.39999 212.484,208.384 L210.804,207.904 C211.364003,206.431993 211.827998,204.72001 212.196,202.768 L205.812,202.768 C205.235997,204.576009 204.492004,206.071994 203.58,207.256 L202.188,206.272 C203.756008,204.095989 204.771998,201.05602 205.236,197.152 L206.94,197.416 Z M201.204,215.512 C200.323995,214.167993 199.492004,212.936006 198.708,211.816 C197.363993,214.632014 195.68401,216.831992 193.668,218.416 L192.804,216.856 C194.83601,215.303992 196.459994,213.152014 197.676,210.4 C196.219993,208.46399 194.764007,206.696008 193.308,205.096 L194.46,203.992 C195.564005,205.096006 196.875992,206.62399 198.396,208.576 C199.068003,206.54399 199.595998,204.296012 199.98,201.832 L193.188,201.832 L193.188,200.152 L201.66,200.152 L201.66,201.736 C201.131997,204.888016 200.404005,207.647988 199.476,210.016 C200.212004,211.008005 201.203994,212.415991 202.452,214.24 L201.204,215.512 Z M209.124,204.472 C209.124,206.104008 209.028001,207.591993 208.836,208.936 C210.020006,212.744019 212.019986,215.767989 214.836,218.008 L213.684,219.352 C211.315988,217.27199 209.524006,214.728015 208.308,211.72 L208.116,212.392 C207.251996,215.224014 205.284015,217.551991 202.212,219.376 L201.108,218.008 C203.780013,216.439992 205.547996,214.472012 206.412,212.104 C207.068003,210.10399 207.404,207.560015 207.42,204.472 L209.124,204.472 Z M219.692,197.68 C221.308008,198.944006 222.643995,200.191994 223.7,201.424 L222.5,202.6 C221.539995,201.399994 220.220008,200.128007 218.54,198.784 L219.692,197.68 Z M234.164,218.944 C233.331996,218.944 231.844011,218.928 229.7,218.896 C228.083992,218.88 226.772005,218.736001 225.764,218.464 C224.803995,218.191999 223.924004,217.608004 223.124,216.712 C222.803998,216.295998 222.476002,216.088 222.14,216.088 C221.531997,216.088 220.540007,217.255988 219.164,219.592 L217.916,218.44 C219.260007,216.311989 220.427995,215.032002 221.42,214.6 L221.42,207.304 L217.916,207.304 L217.916,205.72 L222.98,205.72 L222.98,214.696 C223.204001,214.840001 223.419999,215.031999 223.628,215.272 C224.220003,215.944003 224.875996,216.455998 225.596,216.808 C226.316004,217.128002 227.451992,217.312 229.004,217.36 C230.764009,217.392 232.411992,217.408 233.948,217.408 L237.236,217.384 C238.484006,217.352 239.339998,217.32 239.804,217.288 L239.42,218.944 L234.164,218.944 Z M225.044,212.872 C225.412002,212.727999 225.596,212.432002 225.596,211.984 L225.596,199.624 C227.56401,198.999997 229.075995,198.296004 230.132,197.512 L231.044,198.832 C230.115995,199.520003 228.812008,200.159997 227.132,200.752 L227.132,212.248 C228.492007,211.895998 229.747994,211.512002 230.9,211.096 L231.164,212.608 C229.643992,213.120003 227.748011,213.679997 225.476,214.288 L225.044,212.872 Z M235.028,213.544 L234.572,211.96 L236.252,212.032 C236.828003,212.032 237.116,211.744003 237.116,211.168 L237.116,200.392 L233.684,200.392 L233.684,216.472 L232.124,216.472 L232.124,198.88 L238.676,198.88 L238.676,211.504 C238.676,212.864007 238.044006,213.544 236.78,213.544 L235.028,213.544 Z M249.652,199.84 L255.94,199.84 L255.94,197.392 L257.692,197.392 L257.692,199.84 L264.292,199.84 L264.292,201.496 L257.692,201.496 L257.692,203.776 L263.308,203.776 L263.308,210.568 L257.596,210.568 C257.403999,212.728011 256.988003,214.399994 256.348,215.584 C258.748012,216.896007 261.523984,217.639999 264.676,217.816 L264.244,219.472 C260.867983,219.247999 257.916013,218.400007 255.388,216.928 C254.091993,218.240007 252.052014,219.103998 249.268,219.52 L248.524,217.936 C250.988012,217.663999 252.771994,217.000005 253.876,215.944 C252.451993,214.935995 251.188005,213.720007 250.084,212.296 L251.404,211.384 C252.412005,212.648006 253.563993,213.743995 254.86,214.672 C255.372002,213.599995 255.699999,212.232008 255.844,210.568 L250.468,210.568 L250.468,203.776 L255.94,203.776 L255.94,201.496 L249.652,201.496 L249.652,199.84 Z M261.676,209.008 L261.676,205.312 L257.692,205.312 L257.692,208.72 L257.668,209.008 L261.676,209.008 Z M255.916,209.008 L255.94,208.72 L255.94,205.312 L252.1,205.312 L252.1,209.008 L255.916,209.008 Z M245.26,206.056 C244.443996,207.208006 243.612004,208.239995 242.764,209.152 L242.188,207.328 C244.684012,204.399985 246.483994,201.040019 247.588,197.248 L249.22,197.992 C248.611997,199.880009 247.868004,201.647992 246.988,203.296 L246.988,219.448 L245.26,219.448 L245.26,206.056 Z M271.356,205.768 L271.356,209.968 L277.452,209.968 L277.452,205.768 L271.356,205.768 Z M271.26,211.552 C270.987999,214.640015 270.092008,217.18399 268.572,219.184 L267.252,218.008 C268.788008,215.863989 269.58,213.152016 269.628,209.872 L269.628,198.352 L287.508,198.352 L287.508,216.328 C287.508,218.008008 286.668008,218.848 284.988,218.848 L282.228,218.848 L281.772,217.144 C283.052006,217.208 283.939997,217.24 284.436,217.24 C285.316004,217.24 285.756,216.736005 285.756,215.728 L285.756,211.552 L279.228,211.552 L279.228,218.584 L277.452,218.584 L277.452,211.552 L271.26,211.552 Z M285.756,209.968 L285.756,205.768 L279.228,205.768 L279.228,209.968 L285.756,209.968 Z M285.756,204.16 L285.756,200.032 L279.228,200.032 L279.228,204.16 L285.756,204.16 Z M277.452,200.032 L271.356,200.032 L271.356,204.16 L277.452,204.16 L277.452,200.032 Z M301.66,199.864 L309.844,199.864 C311.732009,199.864 313.147995,200.271996 314.092,201.088 C315.036005,201.904004 315.508,203.039993 315.508,204.496 C315.508,205.312004 315.388001,205.987997 315.148,206.524 C314.907999,207.060003 314.628002,207.491998 314.308,207.82 C313.987998,208.148002 313.672002,208.383999 313.36,208.528 C313.047998,208.672001 312.820001,208.768 312.676,208.816 L312.676,208.864 C312.932001,208.896 313.207998,208.975999 313.504,209.104 C313.800001,209.232001 314.075999,209.435999 314.332,209.716 C314.588001,209.996001 314.799999,210.359998 314.968,210.808 C315.136001,211.256002 315.22,211.815997 315.22,212.488 C315.22,213.496005 315.295999,214.411996 315.448,215.236 C315.600001,216.060004 315.835998,216.647998 316.156,217 L312.94,217 C312.715999,216.631998 312.584,216.224002 312.544,215.776 C312.504,215.327998 312.484,214.896002 312.484,214.48 C312.484,213.695996 312.436,213.020003 312.34,212.452 C312.243999,211.883997 312.068001,211.412002 311.812,211.036 C311.555999,210.659998 311.208002,210.384001 310.768,210.208 C310.327998,210.031999 309.764003,209.944 309.076,209.944 L304.66,209.944 L304.66,217 L301.66,217 L301.66,199.864 Z M304.66,207.664 L309.58,207.664 C310.540005,207.664 311.267997,207.436002 311.764,206.98 C312.260002,206.523998 312.508,205.840005 312.508,204.928 C312.508,204.383997 312.428001,203.940002 312.268,203.596 C312.107999,203.251998 311.888001,202.984001 311.608,202.792 C311.327999,202.599999 311.008002,202.472 310.648,202.408 C310.287998,202.344 309.916002,202.312 309.532,202.312 L304.66,202.312 L304.66,207.664 Z M327.348,208.744 C327.235999,207.975996 326.928002,207.396002 326.424,207.004 C325.919997,206.611998 325.284004,206.416 324.516,206.416 C324.163998,206.416 323.788002,206.475999 323.388,206.596 C322.987998,206.716001 322.620002,206.939998 322.284,207.268 C321.947998,207.596002 321.668001,208.051997 321.444,208.636 C321.219999,209.220003 321.108,209.983995 321.108,210.928 C321.108,211.440003 321.167999,211.951997 321.288,212.464 C321.408001,212.976003 321.599999,213.431998 321.864,213.832 C322.128001,214.232002 322.467998,214.555999 322.884,214.804 C323.300002,215.052001 323.803997,215.176 324.396,215.176 C325.196004,215.176 325.855997,214.928002 326.376,214.432 C326.896003,213.935998 327.219999,213.240004 327.348,212.344 L330.084,212.344 C329.827999,213.960008 329.216005,215.195996 328.248,216.052 C327.279995,216.908004 325.996008,217.336 324.396,217.336 C323.419995,217.336 322.560004,217.172002 321.816,216.844 C321.071996,216.515998 320.444003,216.068003 319.932,215.5 C319.419997,214.931997 319.032001,214.256004 318.768,213.472 C318.503999,212.687996 318.372,211.840005 318.372,210.928 C318.372,209.999995 318.499999,209.128004 318.756,208.312 C319.012001,207.495996 319.395997,206.788003 319.908,206.188 C320.420003,205.587997 321.055996,205.116002 321.816,204.772 C322.576004,204.427998 323.467995,204.256 324.492,204.256 C325.212004,204.256 325.895997,204.347999 326.544,204.532 C327.192003,204.716001 327.767997,204.991998 328.272,205.36 C328.776002,205.728002 329.187998,206.191997 329.508,206.752 C329.828002,207.312003 330.02,207.975996 330.084,208.744 L327.348,208.744 Z M338.804,217.336 C337.811995,217.336 336.928004,217.172002 336.152,216.844 C335.375996,216.515998 334.720003,216.064003 334.184,215.488 C333.647997,214.911997 333.240001,214.224004 332.96,213.424 C332.679999,212.623996 332.54,211.744005 332.54,210.784 C332.54,209.839995 332.679999,208.968004 332.96,208.168 C333.240001,207.367996 333.647997,206.680003 334.184,206.104 C334.720003,205.527997 335.375996,205.076002 336.152,204.748 C336.928004,204.419998 337.811995,204.256 338.804,204.256 C339.796005,204.256 340.679996,204.419998 341.456,204.748 C342.232004,205.076002 342.887997,205.527997 343.424,206.104 C343.960003,206.680003 344.367999,207.367996 344.648,208.168 C344.928001,208.968004 345.068,209.839995 345.068,210.784 C345.068,211.744005 344.928001,212.623996 344.648,213.424 C344.367999,214.224004 343.960003,214.911997 343.424,215.488 C342.887997,216.064003 342.232004,216.515998 341.456,216.844 C340.679996,217.172002 339.796005,217.336 338.804,217.336 Z M338.804,215.176 C339.412003,215.176 339.939998,215.048001 340.388,214.792 C340.836002,214.535999 341.203999,214.200002 341.492,213.784 C341.780001,213.367998 341.991999,212.900003 342.128,212.38 C342.264001,211.859997 342.332,211.328003 342.332,210.784 C342.332,210.255997 342.264001,209.728003 342.128,209.2 C341.991999,208.671997 341.780001,208.204002 341.492,207.796 C341.203999,207.387998 340.836002,207.056001 340.388,206.8 C339.939998,206.543999 339.412003,206.416 338.804,206.416 C338.195997,206.416 337.668002,206.543999 337.22,206.8 C336.771998,207.056001 336.404001,207.387998 336.116,207.796 C335.827999,208.204002 335.616001,208.671997 335.48,209.2 C335.343999,209.728003 335.276,210.255997 335.276,210.784 C335.276,211.328003 335.343999,211.859997 335.48,212.38 C335.616001,212.900003 335.827999,213.367998 336.116,213.784 C336.404001,214.200002 336.771998,214.535999 337.22,214.792 C337.668002,215.048001 338.195997,215.176 338.804,215.176 Z M348.22,199.864 L350.956,199.864 L350.956,202.456 L348.22,202.456 L348.22,199.864 Z M348.22,204.592 L350.956,204.592 L350.956,217 L348.22,217 L348.22,204.592 Z M354.732,204.592 L357.324,204.592 L357.324,206.416 L357.372,206.464 C357.788002,205.775997 358.331997,205.236002 359.004,204.844 C359.676003,204.451998 360.419996,204.256 361.236,204.256 C362.596007,204.256 363.667996,204.607996 364.452,205.312 C365.236004,206.016004 365.628,207.071993 365.628,208.48 L365.628,217 L362.892,217 L362.892,209.2 C362.86,208.223995 362.652002,207.516002 362.268,207.076 C361.883998,206.635998 361.284004,206.416 360.468,206.416 C360.003998,206.416 359.588002,206.499999 359.22,206.668 C358.851998,206.836001 358.540001,207.067999 358.284,207.364 C358.027999,207.660001 357.828001,208.007998 357.684,208.408 C357.539999,208.808002 357.468,209.231998 357.468,209.68 L357.468,217 L354.732,217 L354.732,204.592 Z M375.484,199.864 L378.532,199.864 L381.628,212.968 L381.676,212.968 L385.132,199.864 L388.204,199.864 L391.564,212.968 L391.612,212.968 L394.804,199.864 L397.852,199.864 L393.124,217 L390.076,217 L386.644,203.896 L386.596,203.896 L383.092,217 L379.996,217 L375.484,199.864 Z M409.74,214.24 C409.74,214.576002 409.784,214.815999 409.872,214.96 C409.96,215.104001 410.131999,215.176 410.388,215.176 L410.676,215.176 C410.788001,215.176 410.915999,215.16 411.06,215.128 L411.06,217.024 C410.964,217.056 410.840001,217.092 410.688,217.132 C410.535999,217.172 410.380001,217.208 410.22,217.24 C410.059999,217.272 409.900001,217.296 409.74,217.312 C409.579999,217.328 409.444001,217.336 409.332,217.336 C408.771997,217.336 408.308002,217.224001 407.94,217 C407.571998,216.775999 407.332001,216.384003 407.22,215.824 C406.675997,216.352003 406.008004,216.735999 405.216,216.976 C404.423996,217.216001 403.660004,217.336 402.924,217.336 C402.363997,217.336 401.828003,217.260001 401.316,217.108 C400.803997,216.955999 400.352002,216.732001 399.96,216.436 C399.567998,216.139999 399.256001,215.764002 399.024,215.308 C398.791999,214.851998 398.676,214.320003 398.676,213.712 C398.676,212.943996 398.815999,212.320002 399.096,211.84 C399.376001,211.359998 399.743998,210.984001 400.2,210.712 C400.656002,210.439999 401.167997,210.244001 401.736,210.124 C402.304003,210.003999 402.875997,209.912 403.452,209.848 C403.948003,209.752 404.419998,209.684 404.868,209.644 C405.316002,209.604 405.711998,209.536 406.056,209.44 C406.400002,209.344 406.671999,209.196001 406.872,208.996 C407.072001,208.795999 407.172,208.496002 407.172,208.096 C407.172,207.743998 407.088001,207.456001 406.92,207.232 C406.751999,207.007999 406.544001,206.836001 406.296,206.716 C406.047999,206.595999 405.772002,206.516 405.468,206.476 C405.163999,206.436 404.876001,206.416 404.604,206.416 C403.835996,206.416 403.204003,206.575998 402.708,206.896 C402.211998,207.216002 401.932,207.711997 401.868,208.384 L399.132,208.384 C399.18,207.583996 399.371998,206.920003 399.708,206.392 C400.044002,205.863997 400.471997,205.440002 400.992,205.12 C401.512003,204.799998 402.099997,204.576001 402.756,204.448 C403.412003,204.319999 404.083997,204.256 404.772,204.256 C405.380003,204.256 405.979997,204.319999 406.572,204.448 C407.164003,204.576001 407.695998,204.783999 408.168,205.072 C408.640002,205.360001 409.019999,205.731998 409.308,206.188 C409.596001,206.644002 409.74,207.199997 409.74,207.856 L409.74,214.24 Z M407.004,210.784 C406.587998,211.056001 406.076003,211.22 405.468,211.276 C404.859997,211.332 404.252003,211.415999 403.644,211.528 C403.355999,211.576 403.076001,211.644 402.804,211.732 C402.531999,211.82 402.292001,211.939999 402.084,212.092 C401.875999,212.244001 401.712001,212.443999 401.592,212.692 C401.471999,212.940001 401.412,213.239998 401.412,213.592 C401.412,213.896002 401.499999,214.151999 401.676,214.36 C401.852001,214.568001 402.063999,214.731999 402.312,214.852 C402.560001,214.972001 402.831999,215.056 403.128,215.104 C403.424002,215.152 403.691999,215.176 403.932,215.176 C404.236002,215.176 404.563998,215.136 404.916,215.056 C405.268002,214.976 405.599998,214.840001 405.912,214.648 C406.224002,214.455999 406.483999,214.212001 406.692,213.916 C406.900001,213.619999 407.004,213.256002 407.004,212.824 L407.004,210.784 Z M413.564,199.864 L416.3,199.864 L416.3,217 L413.564,217 L413.564,199.864 Z M420.148,199.864 L422.884,199.864 L422.884,217 L420.148,217 L420.148,199.864 Z M435.18,209.704 C435.148,209.271998 435.056001,208.856002 434.904,208.456 C434.751999,208.055998 434.544001,207.708001 434.28,207.412 C434.015999,207.115999 433.696002,206.876001 433.32,206.692 C432.943998,206.507999 432.524002,206.416 432.06,206.416 C431.579998,206.416 431.144002,206.499999 430.752,206.668 C430.359998,206.836001 430.024001,207.067999 429.744,207.364 C429.463999,207.660001 429.240001,208.007998 429.072,208.408 C428.903999,208.808002 428.812,209.239998 428.796,209.704 L435.18,209.704 Z M428.796,211.504 C428.796,211.984002 428.863999,212.447998 429,212.896 C429.136001,213.344002 429.339999,213.735998 429.612,214.072 C429.884001,214.408002 430.227998,214.675999 430.644,214.876 C431.060002,215.076001 431.555997,215.176 432.132,215.176 C432.932004,215.176 433.575998,215.004002 434.064,214.66 C434.552003,214.315998 434.915999,213.800003 435.156,213.112 L437.748,213.112 C437.603999,213.784003 437.356002,214.383997 437.004,214.912 C436.651998,215.440003 436.228003,215.883998 435.732,216.244 C435.235998,216.604002 434.680003,216.875999 434.064,217.06 C433.447997,217.244001 432.804003,217.336 432.132,217.336 C431.155995,217.336 430.292004,217.176002 429.54,216.856 C428.787996,216.535998 428.152003,216.088003 427.632,215.512 C427.111997,214.935997 426.720001,214.248004 426.456,213.448 C426.191999,212.647996 426.06,211.768005 426.06,210.808 C426.06,209.927996 426.199999,209.092004 426.48,208.3 C426.760001,207.507996 427.159997,206.812003 427.68,206.212 C428.200003,205.611997 428.827996,205.136002 429.564,204.784 C430.300004,204.431998 431.131995,204.256 432.06,204.256 C433.036005,204.256 433.911996,204.459998 434.688,204.868 C435.464004,205.276002 436.107998,205.815997 436.62,206.488 C437.132003,207.160003 437.503999,207.931996 437.736,208.804 C437.968001,209.676004 438.028001,210.575995 437.916,211.504 L428.796,211.504 Z M439.556,204.592 L441.62,204.592 L441.62,200.872 L444.356,200.872 L444.356,204.592 L446.828,204.592 L446.828,206.632 L444.356,206.632 L444.356,213.256 C444.356,213.544001 444.368,213.791999 444.392,214 C444.416,214.208001 444.472,214.383999 444.56,214.528 C444.648001,214.672001 444.779999,214.78 444.956,214.852 C445.132001,214.924 445.371999,214.96 445.676,214.96 C445.868001,214.96 446.059999,214.956 446.252,214.948 C446.444001,214.94 446.635999,214.912 446.828,214.864 L446.828,216.976 C446.523999,217.008 446.228002,217.04 445.94,217.072 C445.651999,217.104 445.356002,217.12 445.052,217.12 C444.331996,217.12 443.752002,217.052001 443.312,216.916 C442.871998,216.779999 442.528001,216.580001 442.28,216.316 C442.031999,216.051999 441.864001,215.720002 441.776,215.32 C441.688,214.919998 441.636,214.464003 441.62,213.952 L441.62,206.632 L439.556,206.632 L439.556,204.592 Z" id="欢迎使用-Rcoin-Wallet" fill="#FFFFFF"></path>
        </g>
    </g>
</svg>