<?xml version="1.0" encoding="UTF-8"?>
<svg width="640px" height="380px" viewBox="0 0 640 380" version="1.1" xmlns="http://www.w3.org/2000/svg" xmlns:xlink="http://www.w3.org/1999/xlink">
    <!-- Generator: Sketch 49.3 (51167) - http://www.bohemiancoding.com/sketch -->
    <title>BG</title>
    <desc>Created with Sketch.</desc>
    <defs>
        <linearGradient x1="50%" y1="0%" x2="50%" y2="100%" id="linearGradient-1">
            <stop stop-color="#00AFE5" offset="0%"></stop>
            <stop stop-color="#009ECF" offset="100%"></stop>
        </linearGradient>
        <linearGradient x1="50%" y1="0%" x2="50%" y2="100%" id="linearGradient-2">
            <stop stop-color="#00ADE3" offset="0%"></stop>
            <stop stop-color="#0092C0" offset="100%"></stop>
        </linearGradient>
        <circle id="path-3" cx="36" cy="36" r="36"></circle>
        <filter x="-33.3%" y="-29.2%" width="166.7%" height="166.7%" filterUnits="objectBoundingBox" id="filter-4">
            <feOffset dx="0" dy="3" in="SourceAlpha" result="shadowOffsetOuter1"></feOffset>
            <feGaussianBlur stdDeviation="7.5" in="shadowOffsetOuter1" result="shadowBlurOuter1"></feGaussianBlur>
            <feColorMatrix values="0 0 0 0 0   0 0 0 0 0   0 0 0 0 0  0 0 0 0.134963768 0" type="matrix" in="shadowBlurOuter1"></feColorMatrix>
        </filter>
    </defs>
    <g id="-" stroke="none" stroke-width="1" fill="none" fill-rule="evenodd">
        <g id="loading-copy" transform="translate(0.000000, -20.000000)">
            <rect id="BG" fill="#FFFFFF" x="0" y="0" width="640" height="400"></rect>
            <g id="Group-4" transform="translate(0.000000, 20.000000)">
                <rect id="BG" fill="url(#linearGradient-1)" x="0" y="0" width="640" height="380"></rect>
                <path d="M184,418.061157 L262.450497,339 L313,389.938843 L234.545397,469 L184,418.061157 Z M235,287.27876 L285.500252,237 L463,413.71307 L412.499748,464 L235,287.27876 Z M434,293.335351 L484.336998,243 L559,317.660559 L508.663002,368 L434,293.335351 Z M389.605496,314 L339,263.394504 L497.402726,105 L548,155.601385 L389.605496,314 Z M208,160.721845 L157.721845,211 L99,152.278155 L149.278155,102 L208,160.721845 Z M408,167.509355 L357.510332,218 L196,56.486543 L246.489668,6 L408,167.509355 Z M393.595431,1 L444,51.4063802 L380.408665,115 L330,64.5936198 L393.595431,1 Z M80,314.340144 L256.115986,139 L307,189.65574 L130.875747,365 L80,314.340144 Z" id="Combined-Shape" fill="url(#linearGradient-2)"></path>
            </g>
            <g id="Group-2" transform="translate(285.000000, 98.000000)">
                <g id="Oval-2">
                    <use fill="black" fill-opacity="1" filter="url(#filter-4)" xlink:href="#path-3"></use>
                    <use fill="#FFFFFF" fill-rule="evenodd" xlink:href="#path-3"></use>
                </g>
                <path d="M21.7264377,54.7265067 L29.7516451,46.6388309 L34.9226799,51.8496938 L26.8970524,59.9373695 L21.7264377,54.7265067 Z M26.9435567,41.3479316 L32.1095533,36.2045929 L50.2671475,54.2817128 L45.101151,59.4258873 L26.9435567,41.3479316 Z M47.3005505,41.9674994 L52.4498467,36.8183716 L60.0876068,44.4558819 L54.9383106,49.605428 L47.3005505,41.9674994 Z M42.7591503,44.0814196 L37.5823876,38.904657 L53.7864244,22.7014614 L58.9623459,27.8778035 L42.7591503,44.0814196 Z M24.1815526,28.4016084 L19.0382758,33.5448852 L13.0312394,27.5378488 L18.1745162,22.394572 L24.1815526,28.4016084 Z M44.6408427,29.0959466 L39.4759289,34.2609603 L22.9539951,17.7387069 L28.118909,12.5741127 L44.6408427,29.0959466 Z M43.1673064,12.0626305 L48.323515,17.2190243 L41.8183471,23.7244259 L36.6617196,18.5680321 L43.1673064,12.0626305 Z M11.0876068,44.1162152 L29.1036471,26.1795407 L34.3089012,31.3614431 L16.2920152,49.2985386 L11.0876068,44.1162152 Z" id="Combined-Shape" fill="#00AFE5"></path>
            </g>
            <path d="M213.296,197.416 C213.087999,198.824007 212.864001,200.055995 212.624,201.112 L220.352,201.112 L220.352,202.24 C219.967998,204.352011 219.464003,206.39999 218.84,208.384 L217.16,207.904 C217.720003,206.431993 218.183998,204.72001 218.552,202.768 L212.168,202.768 C211.591997,204.576009 210.848004,206.071994 209.936,207.256 L208.544,206.272 C210.112008,204.095989 211.127998,201.05602 211.592,197.152 L213.296,197.416 Z M207.56,215.512 C206.679996,214.167993 205.848004,212.936006 205.064,211.816 C203.719993,214.632014 202.04001,216.831992 200.024,218.416 L199.16,216.856 C201.19201,215.303992 202.815994,213.152014 204.032,210.4 C202.575993,208.46399 201.120007,206.696008 199.664,205.096 L200.816,203.992 C201.920005,205.096006 203.231992,206.62399 204.752,208.576 C205.424003,206.54399 205.951998,204.296012 206.336,201.832 L199.544,201.832 L199.544,200.152 L208.016,200.152 L208.016,201.736 C207.487997,204.888016 206.760005,207.647988 205.832,210.016 C206.568004,211.008005 207.559994,212.415991 208.808,214.24 L207.56,215.512 Z M215.48,204.472 C215.48,206.104008 215.384001,207.591993 215.192,208.936 C216.376006,212.744019 218.375986,215.767989 221.192,218.008 L220.04,219.352 C217.671988,217.27199 215.880006,214.728015 214.664,211.72 L214.472,212.392 C213.607996,215.224014 211.640015,217.551991 208.568,219.376 L207.464,218.008 C210.136013,216.439992 211.903996,214.472012 212.768,212.104 C213.424003,210.10399 213.76,207.560015 213.776,204.472 L215.48,204.472 Z M226.048,197.68 C227.664008,198.944006 228.999995,200.191994 230.056,201.424 L228.856,202.6 C227.895995,201.399994 226.576008,200.128007 224.896,198.784 L226.048,197.68 Z M240.52,218.944 C239.687996,218.944 238.200011,218.928 236.056,218.896 C234.439992,218.88 233.128005,218.736001 232.12,218.464 C231.159995,218.191999 230.280004,217.608004 229.48,216.712 C229.159998,216.295998 228.832002,216.088 228.496,216.088 C227.887997,216.088 226.896007,217.255988 225.52,219.592 L224.272,218.44 C225.616007,216.311989 226.783995,215.032002 227.776,214.6 L227.776,207.304 L224.272,207.304 L224.272,205.72 L229.336,205.72 L229.336,214.696 C229.560001,214.840001 229.775999,215.031999 229.984,215.272 C230.576003,215.944003 231.231996,216.455998 231.952,216.808 C232.672004,217.128002 233.807992,217.312 235.36,217.36 C237.120009,217.392 238.767992,217.408 240.304,217.408 L243.592,217.384 C244.840006,217.352 245.695998,217.32 246.16,217.288 L245.776,218.944 L240.52,218.944 Z M231.4,212.872 C231.768002,212.727999 231.952,212.432002 231.952,211.984 L231.952,199.624 C233.92001,198.999997 235.431995,198.296004 236.488,197.512 L237.4,198.832 C236.471995,199.520003 235.168008,200.159997 233.488,200.752 L233.488,212.248 C234.848007,211.895998 236.103994,211.512002 237.256,211.096 L237.52,212.608 C235.999992,213.120003 234.104011,213.679997 231.832,214.288 L231.4,212.872 Z M241.384,213.544 L240.928,211.96 L242.608,212.032 C243.184003,212.032 243.472,211.744003 243.472,211.168 L243.472,200.392 L240.04,200.392 L240.04,216.472 L238.48,216.472 L238.48,198.88 L245.032,198.88 L245.032,211.504 C245.032,212.864007 244.400006,213.544 243.136,213.544 L241.384,213.544 Z M256.008,199.84 L262.296,199.84 L262.296,197.392 L264.048,197.392 L264.048,199.84 L270.648,199.84 L270.648,201.496 L264.048,201.496 L264.048,203.776 L269.664,203.776 L269.664,210.568 L263.952,210.568 C263.759999,212.728011 263.344003,214.399994 262.704,215.584 C265.104012,216.896007 267.879984,217.639999 271.032,217.816 L270.6,219.472 C267.223983,219.247999 264.272013,218.400007 261.744,216.928 C260.447993,218.240007 258.408014,219.103998 255.624,219.52 L254.88,217.936 C257.344012,217.663999 259.127994,217.000005 260.232,215.944 C258.807993,214.935995 257.544005,213.720007 256.44,212.296 L257.76,211.384 C258.768005,212.648006 259.919993,213.743995 261.216,214.672 C261.728002,213.599995 262.055999,212.232008 262.2,210.568 L256.824,210.568 L256.824,203.776 L262.296,203.776 L262.296,201.496 L256.008,201.496 L256.008,199.84 Z M268.032,209.008 L268.032,205.312 L264.048,205.312 L264.048,208.72 L264.024,209.008 L268.032,209.008 Z M262.272,209.008 L262.296,208.72 L262.296,205.312 L258.456,205.312 L258.456,209.008 L262.272,209.008 Z M251.616,206.056 C250.799996,207.208006 249.968004,208.239995 249.12,209.152 L248.544,207.328 C251.040012,204.399985 252.839994,201.040019 253.944,197.248 L255.576,197.992 C254.967997,199.880009 254.224004,201.647992 253.344,203.296 L253.344,219.448 L251.616,219.448 L251.616,206.056 Z M277.712,205.768 L277.712,209.968 L283.808,209.968 L283.808,205.768 L277.712,205.768 Z M277.616,211.552 C277.343999,214.640015 276.448008,217.18399 274.928,219.184 L273.608,218.008 C275.144008,215.863989 275.936,213.152016 275.984,209.872 L275.984,198.352 L293.864,198.352 L293.864,216.328 C293.864,218.008008 293.024008,218.848 291.344,218.848 L288.584,218.848 L288.128,217.144 C289.408006,217.208 290.295997,217.24 290.792,217.24 C291.672004,217.24 292.112,216.736005 292.112,215.728 L292.112,211.552 L285.584,211.552 L285.584,218.584 L283.808,218.584 L283.808,211.552 L277.616,211.552 Z M292.112,209.968 L292.112,205.768 L285.584,205.768 L285.584,209.968 L292.112,209.968 Z M292.112,204.16 L292.112,200.032 L285.584,200.032 L285.584,204.16 L292.112,204.16 Z M283.808,200.032 L277.712,200.032 L277.712,204.16 L283.808,204.16 L283.808,200.032 Z M308.016,199.864 L316.2,199.864 C318.088009,199.864 319.503995,200.271996 320.448,201.088 C321.392005,201.904004 321.864,203.039993 321.864,204.496 C321.864,205.312004 321.744001,205.987997 321.504,206.524 C321.263999,207.060003 320.984002,207.491998 320.664,207.82 C320.343998,208.148002 320.028002,208.383999 319.716,208.528 C319.403998,208.672001 319.176001,208.768 319.032,208.816 L319.032,208.864 C319.288001,208.896 319.563998,208.975999 319.86,209.104 C320.156001,209.232001 320.431999,209.435999 320.688,209.716 C320.944001,209.996001 321.155999,210.359998 321.324,210.808 C321.492001,211.256002 321.576,211.815997 321.576,212.488 C321.576,213.496005 321.651999,214.411996 321.804,215.236 C321.956001,216.060004 322.191998,216.647998 322.512,217 L319.296,217 C319.071999,216.631998 318.94,216.224002 318.9,215.776 C318.86,215.327998 318.84,214.896002 318.84,214.48 C318.84,213.695996 318.792,213.020003 318.696,212.452 C318.599999,211.883997 318.424001,211.412002 318.168,211.036 C317.911999,210.659998 317.564002,210.384001 317.124,210.208 C316.683998,210.031999 316.120003,209.944 315.432,209.944 L311.016,209.944 L311.016,217 L308.016,217 L308.016,199.864 Z M311.016,207.664 L315.936,207.664 C316.896005,207.664 317.623997,207.436002 318.12,206.98 C318.616002,206.523998 318.864,205.840005 318.864,204.928 C318.864,204.383997 318.784001,203.940002 318.624,203.596 C318.463999,203.251998 318.244001,202.984001 317.964,202.792 C317.683999,202.599999 317.364002,202.472 317.004,202.408 C316.643998,202.344 316.272002,202.312 315.888,202.312 L311.016,202.312 L311.016,207.664 Z M337.28,205.312 C337.151999,204.815998 336.976001,204.360002 336.752,203.944 C336.527999,203.527998 336.240002,203.168002 335.888,202.864 C335.535998,202.559998 335.124002,202.324001 334.652,202.156 C334.179998,201.987999 333.632003,201.904 333.008,201.904 C332.095995,201.904 331.308003,202.087998 330.644,202.456 C329.979997,202.824002 329.440002,203.315997 329.024,203.932 C328.607998,204.548003 328.300001,205.247996 328.1,206.032 C327.899999,206.816004 327.8,207.615996 327.8,208.432 C327.8,209.248004 327.899999,210.047996 328.1,210.832 C328.300001,211.616004 328.607998,212.315997 329.024,212.932 C329.440002,213.548003 329.979997,214.039998 330.644,214.408 C331.308003,214.776002 332.095995,214.96 333.008,214.96 C333.680003,214.96 334.271997,214.844001 334.784,214.612 C335.296003,214.379999 335.735998,214.060002 336.104,213.652 C336.472002,213.243998 336.759999,212.768003 336.968,212.224 C337.176001,211.679997 337.312,211.096003 337.376,210.472 L340.304,210.472 C340.24,211.496005 340.020002,212.431996 339.644,213.28 C339.267998,214.128004 338.760003,214.859997 338.12,215.476 C337.479997,216.092003 336.728004,216.567998 335.864,216.904 C334.999996,217.240002 334.048005,217.408 333.008,217.408 C331.727994,217.408 330.580005,217.172002 329.564,216.7 C328.547995,216.227998 327.688004,215.584004 326.984,214.768 C326.279996,213.951996 325.740002,213.000005 325.364,211.912 C324.987998,210.823995 324.8,209.664006 324.8,208.432 C324.8,207.215994 324.987998,206.064005 325.364,204.976 C325.740002,203.887995 326.279996,202.936004 326.984,202.12 C327.688004,201.303996 328.547995,200.656002 329.564,200.176 C330.580005,199.695998 331.727994,199.456 333.008,199.456 C333.968005,199.456 334.871996,199.587999 335.72,199.852 C336.568004,200.116001 337.315997,200.499997 337.964,201.004 C338.612003,201.508003 339.135998,202.119996 339.536,202.84 C339.936002,203.560004 340.184,204.383995 340.28,205.312 L337.28,205.312 Z M349.144,217.336 C348.151995,217.336 347.268004,217.172002 346.492,216.844 C345.715996,216.515998 345.060003,216.064003 344.524,215.488 C343.987997,214.911997 343.580001,214.224004 343.3,213.424 C343.019999,212.623996 342.88,211.744005 342.88,210.784 C342.88,209.839995 343.019999,208.968004 343.3,208.168 C343.580001,207.367996 343.987997,206.680003 344.524,206.104 C345.060003,205.527997 345.715996,205.076002 346.492,204.748 C347.268004,204.419998 348.151995,204.256 349.144,204.256 C350.136005,204.256 351.019996,204.419998 351.796,204.748 C352.572004,205.076002 353.227997,205.527997 353.764,206.104 C354.300003,206.680003 354.707999,207.367996 354.988,208.168 C355.268001,208.968004 355.408,209.839995 355.408,210.784 C355.408,211.744005 355.268001,212.623996 354.988,213.424 C354.707999,214.224004 354.300003,214.911997 353.764,215.488 C353.227997,216.064003 352.572004,216.515998 351.796,216.844 C351.019996,217.172002 350.136005,217.336 349.144,217.336 Z M349.144,215.176 C349.752003,215.176 350.279998,215.048001 350.728,214.792 C351.176002,214.535999 351.543999,214.200002 351.832,213.784 C352.120001,213.367998 352.331999,212.900003 352.468,212.38 C352.604001,211.859997 352.672,211.328003 352.672,210.784 C352.672,210.255997 352.604001,209.728003 352.468,209.2 C352.331999,208.671997 352.120001,208.204002 351.832,207.796 C351.543999,207.387998 351.176002,207.056001 350.728,206.8 C350.279998,206.543999 349.752003,206.416 349.144,206.416 C348.535997,206.416 348.008002,206.543999 347.56,206.8 C347.111998,207.056001 346.744001,207.387998 346.456,207.796 C346.167999,208.204002 345.956001,208.671997 345.82,209.2 C345.683999,209.728003 345.616,210.255997 345.616,210.784 C345.616,211.328003 345.683999,211.859997 345.82,212.38 C345.956001,212.900003 346.167999,213.367998 346.456,213.784 C346.744001,214.200002 347.111998,214.535999 347.56,214.792 C348.008002,215.048001 348.535997,215.176 349.144,215.176 Z M358.56,199.864 L361.296,199.864 L361.296,202.456 L358.56,202.456 L358.56,199.864 Z M358.56,204.592 L361.296,204.592 L361.296,217 L358.56,217 L358.56,204.592 Z M365.072,204.592 L367.664,204.592 L367.664,206.416 L367.712,206.464 C368.128002,205.775997 368.671997,205.236002 369.344,204.844 C370.016003,204.451998 370.759996,204.256 371.576,204.256 C372.936007,204.256 374.007996,204.607996 374.792,205.312 C375.576004,206.016004 375.968,207.071993 375.968,208.48 L375.968,217 L373.232,217 L373.232,209.2 C373.2,208.223995 372.992002,207.516002 372.608,207.076 C372.223998,206.635998 371.624004,206.416 370.808,206.416 C370.343998,206.416 369.928002,206.499999 369.56,206.668 C369.191998,206.836001 368.880001,207.067999 368.624,207.364 C368.367999,207.660001 368.168001,208.007998 368.024,208.408 C367.879999,208.808002 367.808,209.231998 367.808,209.68 L367.808,217 L365.072,217 L365.072,204.592 Z M399.072,205.312 C398.943999,204.815998 398.768001,204.360002 398.544,203.944 C398.319999,203.527998 398.032002,203.168002 397.68,202.864 C397.327998,202.559998 396.916002,202.324001 396.444,202.156 C395.971998,201.987999 395.424003,201.904 394.8,201.904 C393.887995,201.904 393.100003,202.087998 392.436,202.456 C391.771997,202.824002 391.232002,203.315997 390.816,203.932 C390.399998,204.548003 390.092001,205.247996 389.892,206.032 C389.691999,206.816004 389.592,207.615996 389.592,208.432 C389.592,209.248004 389.691999,210.047996 389.892,210.832 C390.092001,211.616004 390.399998,212.315997 390.816,212.932 C391.232002,213.548003 391.771997,214.039998 392.436,214.408 C393.100003,214.776002 393.887995,214.96 394.8,214.96 C395.472003,214.96 396.063997,214.844001 396.576,214.612 C397.088003,214.379999 397.527998,214.060002 397.896,213.652 C398.264002,213.243998 398.551999,212.768003 398.76,212.224 C398.968001,211.679997 399.104,211.096003 399.168,210.472 L402.096,210.472 C402.032,211.496005 401.812002,212.431996 401.436,213.28 C401.059998,214.128004 400.552003,214.859997 399.912,215.476 C399.271997,216.092003 398.520004,216.567998 397.656,216.904 C396.791996,217.240002 395.840005,217.408 394.8,217.408 C393.519994,217.408 392.372005,217.172002 391.356,216.7 C390.339995,216.227998 389.480004,215.584004 388.776,214.768 C388.071997,213.951996 387.532002,213.000005 387.156,211.912 C386.779998,210.823995 386.592,209.664006 386.592,208.432 C386.592,207.215994 386.779998,206.064005 387.156,204.976 C387.532002,203.887995 388.071997,202.936004 388.776,202.12 C389.480004,201.303996 390.339995,200.656002 391.356,200.176 C392.372005,199.695998 393.519994,199.456 394.8,199.456 C395.760005,199.456 396.663996,199.587999 397.512,199.852 C398.360004,200.116001 399.107997,200.499997 399.756,201.004 C400.404003,201.508003 400.927998,202.119996 401.328,202.84 C401.728002,203.560004 401.976,204.383995 402.072,205.312 L399.072,205.312 Z M410.936,217.336 C409.943995,217.336 409.060004,217.172002 408.284,216.844 C407.507996,216.515998 406.852003,216.064003 406.316,215.488 C405.779997,214.911997 405.372001,214.224004 405.092,213.424 C404.811999,212.623996 404.672,211.744005 404.672,210.784 C404.672,209.839995 404.811999,208.968004 405.092,208.168 C405.372001,207.367996 405.779997,206.680003 406.316,206.104 C406.852003,205.527997 407.507996,205.076002 408.284,204.748 C409.060004,204.419998 409.943995,204.256 410.936,204.256 C411.928005,204.256 412.811996,204.419998 413.588,204.748 C414.364004,205.076002 415.019997,205.527997 415.556,206.104 C416.092003,206.680003 416.499999,207.367996 416.78,208.168 C417.060001,208.968004 417.2,209.839995 417.2,210.784 C417.2,211.744005 417.060001,212.623996 416.78,213.424 C416.499999,214.224004 416.092003,214.911997 415.556,215.488 C415.019997,216.064003 414.364004,216.515998 413.588,216.844 C412.811996,217.172002 411.928005,217.336 410.936,217.336 Z M410.936,215.176 C411.544003,215.176 412.071998,215.048001 412.52,214.792 C412.968002,214.535999 413.335999,214.200002 413.624,213.784 C413.912001,213.367998 414.123999,212.900003 414.26,212.38 C414.396001,211.859997 414.464,211.328003 414.464,210.784 C414.464,210.255997 414.396001,209.728003 414.26,209.2 C414.123999,208.671997 413.912001,208.204002 413.624,207.796 C413.335999,207.387998 412.968002,207.056001 412.52,206.8 C412.071998,206.543999 411.544003,206.416 410.936,206.416 C410.327997,206.416 409.800002,206.543999 409.352,206.8 C408.903998,207.056001 408.536001,207.387998 408.248,207.796 C407.959999,208.204002 407.748001,208.671997 407.612,209.2 C407.475999,209.728003 407.408,210.255997 407.408,210.784 C407.408,211.328003 407.475999,211.859997 407.612,212.38 C407.748001,212.900003 407.959999,213.367998 408.248,213.784 C408.536001,214.200002 408.903998,214.535999 409.352,214.792 C409.800002,215.048001 410.327997,215.176 410.936,215.176 Z M420.28,204.592 L422.848,204.592 L422.848,206.992 L422.896,206.992 C422.976,206.655998 423.131999,206.328002 423.364,206.008 C423.596001,205.687998 423.875998,205.396001 424.204,205.132 C424.532002,204.867999 424.895998,204.656001 425.296,204.496 C425.696002,204.335999 426.103998,204.256 426.52,204.256 C426.840002,204.256 427.059999,204.264 427.18,204.28 C427.300001,204.296 427.423999,204.312 427.552,204.328 L427.552,206.968 C427.359999,206.936 427.164001,206.908 426.964,206.884 C426.763999,206.86 426.568001,206.848 426.376,206.848 C425.911998,206.848 425.476002,206.939999 425.068,207.124 C424.659998,207.308001 424.304002,207.579998 424,207.94 C423.695999,208.300002 423.456001,208.743997 423.28,209.272 C423.103999,209.800003 423.016,210.407997 423.016,211.096 L423.016,217 L420.28,217 L420.28,204.592 Z M437.616,209.704 C437.584,209.271998 437.492001,208.856002 437.34,208.456 C437.187999,208.055998 436.980001,207.708001 436.716,207.412 C436.451999,207.115999 436.132002,206.876001 435.756,206.692 C435.379998,206.507999 434.960002,206.416 434.496,206.416 C434.015998,206.416 433.580002,206.499999 433.188,206.668 C432.795998,206.836001 432.460001,207.067999 432.18,207.364 C431.899999,207.660001 431.676001,208.007998 431.508,208.408 C431.339999,208.808002 431.248,209.239998 431.232,209.704 L437.616,209.704 Z M431.232,211.504 C431.232,211.984002 431.299999,212.447998 431.436,212.896 C431.572001,213.344002 431.775999,213.735998 432.048,214.072 C432.320001,214.408002 432.663998,214.675999 433.08,214.876 C433.496002,215.076001 433.991997,215.176 434.568,215.176 C435.368004,215.176 436.011998,215.004002 436.5,214.66 C436.988003,214.315998 437.351999,213.800003 437.592,213.112 L440.184,213.112 C440.039999,213.784003 439.792002,214.383997 439.44,214.912 C439.087998,215.440003 438.664003,215.883998 438.168,216.244 C437.671998,216.604002 437.116003,216.875999 436.5,217.06 C435.883997,217.244001 435.240003,217.336 434.568,217.336 C433.591995,217.336 432.728004,217.176002 431.976,216.856 C431.223996,216.535998 430.588003,216.088003 430.068,215.512 C429.547997,214.935997 429.156001,214.248004 428.892,213.448 C428.627999,212.647996 428.496,211.768005 428.496,210.808 C428.496,209.927996 428.635999,209.092004 428.916,208.3 C429.196001,207.507996 429.595997,206.812003 430.116,206.212 C430.636003,205.611997 431.263996,205.136002 432,204.784 C432.736004,204.431998 433.567995,204.256 434.496,204.256 C435.472005,204.256 436.347996,204.459998 437.124,204.868 C437.900004,205.276002 438.543998,205.815997 439.056,206.488 C439.568003,207.160003 439.939999,207.931996 440.172,208.804 C440.404001,209.676004 440.464001,210.575995 440.352,211.504 L431.232,211.504 Z" id="欢迎使用-RCoin-Core" fill="#FFFFFF"></path>
        </g>
    </g>
</svg>