<?xml version="1.0" encoding="UTF-8"?>
<svg width="640px" height="380px" viewBox="0 0 640 380" version="1.1" xmlns="http://www.w3.org/2000/svg" xmlns:xlink="http://www.w3.org/1999/xlink">
    <!-- Generator: Sketch 49.3 (51167) - http://www.bohemiancoding.com/sketch -->
    <title>BG</title>
    <desc>Created with Sketch.</desc>
    <defs>
        <linearGradient x1="50%" y1="0%" x2="50%" y2="100%" id="linearGradient-1">
            <stop stop-color="#41B1F7" offset="0%"></stop>
            <stop stop-color="#2287F0" offset="100%"></stop>
        </linearGradient>
        <linearGradient x1="50%" y1="0%" x2="50%" y2="100%" id="linearGradient-2">
            <stop stop-color="#3EAEF7" offset="0%"></stop>
            <stop stop-color="#0B74DB" offset="100%"></stop>
        </linearGradient>
        <circle id="path-3" cx="36" cy="36" r="36"></circle>
        <filter x="-33.3%" y="-29.2%" width="166.7%" height="166.7%" filterUnits="objectBoundingBox" id="filter-4">
            <feOffset dx="0" dy="3" in="SourceAlpha" result="shadowOffsetOuter1"></feOffset>
            <feGaussianBlur stdDeviation="7.5" in="shadowOffsetOuter1" result="shadowBlurOuter1"></feGaussianBlur>
            <feColorMatrix values="0 0 0 0 0   0 0 0 0 0   0 0 0 0 0  0 0 0 0.134963768 0" type="matrix" in="shadowBlurOuter1"></feColorMatrix>
        </filter>
    </defs>
    <g id="Ecoin" stroke="none" stroke-width="1" fill="none" fill-rule="evenodd">
        <g id="loading-copy" transform="translate(0.000000, -20.000000)">
            <rect id="BG" fill="#FFFFFF" x="0" y="0" width="640" height="400"></rect>
            <rect id="BG" fill="url(#linearGradient-1)" x="0" y="20" width="640" height="380"></rect>
            <path d="M-22.2729048,63.9366488 C-15.9673652,70.2073766 -15.9673652,80.3763725 -22.2729048,86.6471003 C-28.5761381,92.922417 -38.7978468,92.922417 -45.10108,86.6471003 L-61.2708453,69.4180863 C-67.5763849,63.1427696 -67.5763849,52.9760682 -61.2708453,46.7030459 C-54.967612,40.432318 -44.7459033,40.432318 -38.4403637,46.7030459 L-22.2729048,63.9366488 Z M82.7407816,86.1249521 C89.0127946,92.451749 89.0127946,102.71167 82.7407816,109.038467 C76.4710628,115.369894 66.3037031,115.369894 60.0339842,109.038467 L22.1587342,69.6632423 L22.1564401,69.6632423 C15.8844271,63.3318155 15.8844271,53.0742095 22.1564401,46.7450977 C28.4261589,40.4183008 38.5935186,40.4183008 44.8655316,46.7450977 L82.7407816,86.1249521 Z M165.295874,86.1249521 C171.567887,92.451749 171.567887,102.71167 165.295874,109.038467 C159.026155,115.369894 148.858796,115.369894 142.589077,109.038467 L104.713827,69.6632423 L104.711532,69.6632423 C98.4395196,63.3318155 98.4395196,53.0742095 104.711532,46.7450977 C110.981251,40.4183008 121.148611,40.4183008 127.420624,46.7450977 L165.295874,86.1249521 Z M-0.711648745,166.885369 C5.5603642,173.212165 5.5603642,183.472086 -0.711648745,189.798883 C-6.98136761,196.13031 -17.1487273,196.13031 -23.4184461,189.798883 L-61.2936962,150.423659 L-61.2959903,150.423659 C-67.5680032,144.092232 -67.5680032,133.834626 -61.2959903,127.505514 C-55.0262714,121.178717 -44.8589118,121.178717 -38.5868988,127.505514 L-0.711648745,166.885369 Z M106.049303,192.041685 C112.351004,198.361426 112.351004,208.609903 106.049303,214.929643 C99.7499064,221.254007 89.5344202,221.254007 83.235024,214.929643 L-2.04769005,127.061438 L-2.04769005,127.059126 C-8.35169608,120.739386 -8.35169608,110.490909 -2.04769005,104.171169 C4.2517061,97.8491164 14.4671923,97.8491164 20.7665884,104.171169 C20.7688934,104.171169 20.7711983,104.171169 20.7711983,104.173481 L106.049303,192.041685 Z M165.295874,166.885369 C171.567887,173.212165 171.567887,183.472086 165.295874,189.798883 C159.026155,196.13031 148.858796,196.13031 142.589077,189.798883 L104.713827,150.423659 L104.711532,150.423659 C98.4395196,144.092232 98.4395196,133.834626 104.711532,127.505514 C110.981251,121.178717 121.148611,121.178717 127.420624,127.505514 L165.295874,166.885369 Z M-0.0957950037,249.626214 C6.23535851,255.910553 6.23535851,266.10162 -0.0957950037,272.385958 C-6.4246328,278.674895 -16.6878634,278.674895 -23.0167012,272.385958 L-61.2490876,233.274978 L-61.2514033,233.274978 C-67.5825568,226.986041 -67.5825568,216.797273 -61.2514033,210.510636 C-54.9225655,204.226298 -44.6593349,204.226298 -38.3281814,210.510636 L-0.0957950037,249.626214 Z M83.3566354,249.626214 C89.6877889,255.910553 89.6877889,266.10162 83.3566354,272.385958 C77.0277976,278.674895 66.764567,278.674895 60.4357292,272.385958 L22.2033428,233.274978 L22.2010271,233.274978 C15.8698736,226.986041 15.8698736,216.797273 22.2010271,210.510636 C28.5298649,204.226298 38.7930954,204.226298 45.124249,210.510636 L83.3566354,249.626214 Z M165.88833,250.218937 C172.244664,256.572946 172.244664,266.876996 165.88833,273.231006 C159.534321,279.589665 149.230271,279.589665 142.876261,273.231006 L125.439353,255.796422 L125.439353,255.794098 C119.080694,249.440088 119.080694,239.136038 125.439353,232.782029 C131.793363,226.425694 142.097413,226.425694 148.451422,232.782029 C148.453747,232.782029 148.456072,232.782029 148.456072,232.784354 L165.88833,250.218937 Z M-22.2729048,313.936649 C-15.9673652,320.207377 -15.9673652,330.376372 -22.2729048,336.6471 C-28.5761381,342.922417 -38.7978468,342.922417 -45.10108,336.6471 L-61.2708453,319.418086 C-67.5763849,313.14277 -67.5763849,302.976068 -61.2708453,296.703046 C-54.967612,290.432318 -44.7459033,290.432318 -38.4403637,296.703046 L-22.2729048,313.936649 Z M82.7407816,336.124952 C89.0127946,342.451749 89.0127946,352.71167 82.7407816,359.038467 C76.4710628,365.369894 66.3037031,365.369894 60.0339842,359.038467 L22.1587342,319.663242 L22.1564401,319.663242 C15.8844271,313.331815 15.8844271,303.07421 22.1564401,296.745098 C28.4261589,290.418301 38.5935186,290.418301 44.8655316,296.745098 L82.7407816,336.124952 Z M165.295874,336.124952 C171.567887,342.451749 171.567887,352.71167 165.295874,359.038467 C159.026155,365.369894 148.858796,365.369894 142.589077,359.038467 L104.713827,319.663242 L104.711532,319.663242 C98.4395196,313.331815 98.4395196,303.07421 104.711532,296.745098 C110.981251,290.418301 121.148611,290.418301 127.420624,296.745098 L165.295874,336.124952 Z M-0.711648745,416.885369 C5.5603642,423.212165 5.5603642,433.472086 -0.711648745,439.798883 C-6.98136761,446.13031 -17.1487273,446.13031 -23.4184461,439.798883 L-61.2936962,400.423659 L-61.2959903,400.423659 C-67.5680032,394.092232 -67.5680032,383.834626 -61.2959903,377.505514 C-55.0262714,371.178717 -44.8589118,371.178717 -38.5868988,377.505514 L-0.711648745,416.885369 Z M106.049303,442.041685 C112.351004,448.361426 112.351004,458.609903 106.049303,464.929643 C99.7499064,471.254007 89.5344202,471.254007 83.235024,464.929643 L-2.04769005,377.061438 L-2.04769005,377.059126 C-8.35169608,370.739386 -8.35169608,360.490909 -2.04769005,354.171169 C4.2517061,347.849116 14.4671923,347.849116 20.7665884,354.171169 C20.7688934,354.171169 20.7711983,354.171169 20.7711983,354.173481 L106.049303,442.041685 Z M165.295874,416.885369 C171.567887,423.212165 171.567887,433.472086 165.295874,439.798883 C159.026155,446.13031 148.858796,446.13031 142.589077,439.798883 L104.713827,400.423659 L104.711532,400.423659 C98.4395196,394.092232 98.4395196,383.834626 104.711532,377.505514 C110.981251,371.178717 121.148611,371.178717 127.420624,377.505514 L165.295874,416.885369 Z M-0.0957950037,499.626214 C6.23535851,505.910553 6.23535851,516.10162 -0.0957950037,522.385958 C-6.4246328,528.674895 -16.6878634,528.674895 -23.0167012,522.385958 L-61.2490876,483.274978 L-61.2514033,483.274978 C-67.5825568,476.986041 -67.5825568,466.797273 -61.2514033,460.510636 C-54.9225655,454.226298 -44.6593349,454.226298 -38.3281814,460.510636 L-0.0957950037,499.626214 Z M83.3566354,499.626214 C89.6877889,505.910553 89.6877889,516.10162 83.3566354,522.385958 C77.0277976,528.674895 66.764567,528.674895 60.4357292,522.385958 L22.2033428,483.274978 L22.2010271,483.274978 C15.8698736,476.986041 15.8698736,466.797273 22.2010271,460.510636 C28.5298649,454.226298 38.7930954,454.226298 45.124249,460.510636 L83.3566354,499.626214 Z M165.88833,500.218937 C172.244664,506.572946 172.244664,516.876996 165.88833,523.231006 C159.534321,529.589665 149.230271,529.589665 142.876261,523.231006 L125.439353,505.796422 L125.439353,505.794098 C119.080694,499.440088 119.080694,489.136038 125.439353,482.782029 C131.793363,476.425694 142.097413,476.425694 148.451422,482.782029 C148.453747,482.782029 148.456072,482.782029 148.456072,482.784354 L165.88833,500.218937 Z M244.727095,63.9366488 C251.032635,70.2073766 251.032635,80.3763725 244.727095,86.6471003 C238.423862,92.922417 228.202153,92.922417 221.89892,86.6471003 L205.729155,69.4180863 C199.423615,63.1427696 199.423615,52.9760682 205.729155,46.7030459 C212.032388,40.432318 222.254097,40.432318 228.559636,46.7030459 L244.727095,63.9366488 Z M349.740782,86.1249521 C356.012795,92.451749 356.012795,102.71167 349.740782,109.038467 C343.471063,115.369894 333.303703,115.369894 327.033984,109.038467 L289.158734,69.6632423 L289.15644,69.6632423 C282.884427,63.3318155 282.884427,53.0742095 289.15644,46.7450977 C295.426159,40.4183008 305.593519,40.4183008 311.865532,46.7450977 L349.740782,86.1249521 Z M432.295874,86.1249521 C438.567887,92.451749 438.567887,102.71167 432.295874,109.038467 C426.026155,115.369894 415.858796,115.369894 409.589077,109.038467 L371.713827,69.6632423 L371.711532,69.6632423 C365.43952,63.3318155 365.43952,53.0742095 371.711532,46.7450977 C377.981251,40.4183008 388.148611,40.4183008 394.420624,46.7450977 L432.295874,86.1249521 Z M266.288351,166.885369 C272.560364,173.212165 272.560364,183.472086 266.288351,189.798883 C260.018632,196.13031 249.851273,196.13031 243.581554,189.798883 L205.706304,150.423659 L205.70401,150.423659 C199.431997,144.092232 199.431997,133.834626 205.70401,127.505514 C211.973729,121.178717 222.141088,121.178717 228.413101,127.505514 L266.288351,166.885369 Z M373.049303,192.041685 C379.351004,198.361426 379.351004,208.609903 373.049303,214.929643 C366.749906,221.254007 356.53442,221.254007 350.235024,214.929643 L264.95231,127.061438 L264.95231,127.059126 C258.648304,120.739386 258.648304,110.490909 264.95231,104.171169 C271.251706,97.8491164 281.467192,97.8491164 287.766588,104.171169 C287.768893,104.171169 287.771198,104.171169 287.771198,104.173481 L373.049303,192.041685 Z M432.295874,166.885369 C438.567887,173.212165 438.567887,183.472086 432.295874,189.798883 C426.026155,196.13031 415.858796,196.13031 409.589077,189.798883 L371.713827,150.423659 L371.711532,150.423659 C365.43952,144.092232 365.43952,133.834626 371.711532,127.505514 C377.981251,121.178717 388.148611,121.178717 394.420624,127.505514 L432.295874,166.885369 Z M266.904205,249.626214 C273.235359,255.910553 273.235359,266.10162 266.904205,272.385958 C260.575367,278.674895 250.312137,278.674895 243.983299,272.385958 L205.750912,233.274978 L205.748597,233.274978 C199.417443,226.986041 199.417443,216.797273 205.748597,210.510636 C212.077435,204.226298 222.340665,204.226298 228.671819,210.510636 L266.904205,249.626214 Z M350.356635,249.626214 C356.687789,255.910553 356.687789,266.10162 350.356635,272.385958 C344.027798,278.674895 333.764567,278.674895 327.435729,272.385958 L289.203343,233.274978 L289.201027,233.274978 C282.869874,226.986041 282.869874,216.797273 289.201027,210.510636 C295.529865,204.226298 305.793095,204.226298 312.124249,210.510636 L350.356635,249.626214 Z M432.88833,250.218937 C439.244664,256.572946 439.244664,266.876996 432.88833,273.231006 C426.534321,279.589665 416.230271,279.589665 409.876261,273.231006 L392.439353,255.796422 L392.439353,255.794098 C386.080694,249.440088 386.080694,239.136038 392.439353,232.782029 C398.793363,226.425694 409.097413,226.425694 415.451422,232.782029 C415.453747,232.782029 415.456072,232.782029 415.456072,232.784354 L432.88833,250.218937 Z M244.727095,313.936649 C251.032635,320.207377 251.032635,330.376372 244.727095,336.6471 C238.423862,342.922417 228.202153,342.922417 221.89892,336.6471 L205.729155,319.418086 C199.423615,313.14277 199.423615,302.976068 205.729155,296.703046 C212.032388,290.432318 222.254097,290.432318 228.559636,296.703046 L244.727095,313.936649 Z M349.740782,336.124952 C356.012795,342.451749 356.012795,352.71167 349.740782,359.038467 C343.471063,365.369894 333.303703,365.369894 327.033984,359.038467 L289.158734,319.663242 L289.15644,319.663242 C282.884427,313.331815 282.884427,303.07421 289.15644,296.745098 C295.426159,290.418301 305.593519,290.418301 311.865532,296.745098 L349.740782,336.124952 Z M432.295874,336.124952 C438.567887,342.451749 438.567887,352.71167 432.295874,359.038467 C426.026155,365.369894 415.858796,365.369894 409.589077,359.038467 L371.713827,319.663242 L371.711532,319.663242 C365.43952,313.331815 365.43952,303.07421 371.711532,296.745098 C377.981251,290.418301 388.148611,290.418301 394.420624,296.745098 L432.295874,336.124952 Z M266.288351,416.885369 C272.560364,423.212165 272.560364,433.472086 266.288351,439.798883 C260.018632,446.13031 249.851273,446.13031 243.581554,439.798883 L205.706304,400.423659 L205.70401,400.423659 C199.431997,394.092232 199.431997,383.834626 205.70401,377.505514 C211.973729,371.178717 222.141088,371.178717 228.413101,377.505514 L266.288351,416.885369 Z M373.049303,442.041685 C379.351004,448.361426 379.351004,458.609903 373.049303,464.929643 C366.749906,471.254007 356.53442,471.254007 350.235024,464.929643 L264.95231,377.061438 L264.95231,377.059126 C258.648304,370.739386 258.648304,360.490909 264.95231,354.171169 C271.251706,347.849116 281.467192,347.849116 287.766588,354.171169 C287.768893,354.171169 287.771198,354.171169 287.771198,354.173481 L373.049303,442.041685 Z M432.295874,416.885369 C438.567887,423.212165 438.567887,433.472086 432.295874,439.798883 C426.026155,446.13031 415.858796,446.13031 409.589077,439.798883 L371.713827,400.423659 L371.711532,400.423659 C365.43952,394.092232 365.43952,383.834626 371.711532,377.505514 C377.981251,371.178717 388.148611,371.178717 394.420624,377.505514 L432.295874,416.885369 Z M266.904205,499.626214 C273.235359,505.910553 273.235359,516.10162 266.904205,522.385958 C260.575367,528.674895 250.312137,528.674895 243.983299,522.385958 L205.750912,483.274978 L205.748597,483.274978 C199.417443,476.986041 199.417443,466.797273 205.748597,460.510636 C212.077435,454.226298 222.340665,454.226298 228.671819,460.510636 L266.904205,499.626214 Z M350.356635,499.626214 C356.687789,505.910553 356.687789,516.10162 350.356635,522.385958 C344.027798,528.674895 333.764567,528.674895 327.435729,522.385958 L289.203343,483.274978 L289.201027,483.274978 C282.869874,476.986041 282.869874,466.797273 289.201027,460.510636 C295.529865,454.226298 305.793095,454.226298 312.124249,460.510636 L350.356635,499.626214 Z M432.88833,500.218937 C439.244664,506.572946 439.244664,516.876996 432.88833,523.231006 C426.534321,529.589665 416.230271,529.589665 409.876261,523.231006 L392.439353,505.796422 L392.439353,505.794098 C386.080694,499.440088 386.080694,489.136038 392.439353,482.782029 C398.793363,476.425694 409.097413,476.425694 415.451422,482.782029 C415.453747,482.782029 415.456072,482.782029 415.456072,482.784354 L432.88833,500.218937 Z M512.727095,63.9366488 C519.032635,70.2073766 519.032635,80.3763725 512.727095,86.6471003 C506.423862,92.922417 496.202153,92.922417 489.89892,86.6471003 L473.729155,69.4180863 C467.423615,63.1427696 467.423615,52.9760682 473.729155,46.7030459 C480.032388,40.432318 490.254097,40.432318 496.559636,46.7030459 L512.727095,63.9366488 Z M617.740782,86.1249521 C624.012795,92.451749 624.012795,102.71167 617.740782,109.038467 C611.471063,115.369894 601.303703,115.369894 595.033984,109.038467 L557.158734,69.6632423 L557.15644,69.6632423 C550.884427,63.3318155 550.884427,53.0742095 557.15644,46.7450977 C563.426159,40.4183008 573.593519,40.4183008 579.865532,46.7450977 L617.740782,86.1249521 Z M700.295874,86.1249521 C706.567887,92.451749 706.567887,102.71167 700.295874,109.038467 C694.026155,115.369894 683.858796,115.369894 677.589077,109.038467 L639.713827,69.6632423 L639.711532,69.6632423 C633.43952,63.3318155 633.43952,53.0742095 639.711532,46.7450977 C645.981251,40.4183008 656.148611,40.4183008 662.420624,46.7450977 L700.295874,86.1249521 Z M534.288351,166.885369 C540.560364,173.212165 540.560364,183.472086 534.288351,189.798883 C528.018632,196.13031 517.851273,196.13031 511.581554,189.798883 L473.706304,150.423659 L473.70401,150.423659 C467.431997,144.092232 467.431997,133.834626 473.70401,127.505514 C479.973729,121.178717 490.141088,121.178717 496.413101,127.505514 L534.288351,166.885369 Z M641.049303,192.041685 C647.351004,198.361426 647.351004,208.609903 641.049303,214.929643 C634.749906,221.254007 624.53442,221.254007 618.235024,214.929643 L532.95231,127.061438 L532.95231,127.059126 C526.648304,120.739386 526.648304,110.490909 532.95231,104.171169 C539.251706,97.8491164 549.467192,97.8491164 555.766588,104.171169 C555.768893,104.171169 555.771198,104.171169 555.771198,104.173481 L641.049303,192.041685 Z M700.295874,166.885369 C706.567887,173.212165 706.567887,183.472086 700.295874,189.798883 C694.026155,196.13031 683.858796,196.13031 677.589077,189.798883 L639.713827,150.423659 L639.711532,150.423659 C633.43952,144.092232 633.43952,133.834626 639.711532,127.505514 C645.981251,121.178717 656.148611,121.178717 662.420624,127.505514 L700.295874,166.885369 Z M534.904205,249.626214 C541.235359,255.910553 541.235359,266.10162 534.904205,272.385958 C528.575367,278.674895 518.312137,278.674895 511.983299,272.385958 L473.750912,233.274978 L473.748597,233.274978 C467.417443,226.986041 467.417443,216.797273 473.748597,210.510636 C480.077435,204.226298 490.340665,204.226298 496.671819,210.510636 L534.904205,249.626214 Z M618.356635,249.626214 C624.687789,255.910553 624.687789,266.10162 618.356635,272.385958 C612.027798,278.674895 601.764567,278.674895 595.435729,272.385958 L557.203343,233.274978 L557.201027,233.274978 C550.869874,226.986041 550.869874,216.797273 557.201027,210.510636 C563.529865,204.226298 573.793095,204.226298 580.124249,210.510636 L618.356635,249.626214 Z M700.88833,250.218937 C707.244664,256.572946 707.244664,266.876996 700.88833,273.231006 C694.534321,279.589665 684.230271,279.589665 677.876261,273.231006 L660.439353,255.796422 L660.439353,255.794098 C654.080694,249.440088 654.080694,239.136038 660.439353,232.782029 C666.793363,226.425694 677.097413,226.425694 683.451422,232.782029 C683.453747,232.782029 683.456072,232.782029 683.456072,232.784354 L700.88833,250.218937 Z M512.727095,313.936649 C519.032635,320.207377 519.032635,330.376372 512.727095,336.6471 C506.423862,342.922417 496.202153,342.922417 489.89892,336.6471 L473.729155,319.418086 C467.423615,313.14277 467.423615,302.976068 473.729155,296.703046 C480.032388,290.432318 490.254097,290.432318 496.559636,296.703046 L512.727095,313.936649 Z M617.740782,336.124952 C624.012795,342.451749 624.012795,352.71167 617.740782,359.038467 C611.471063,365.369894 601.303703,365.369894 595.033984,359.038467 L557.158734,319.663242 L557.15644,319.663242 C550.884427,313.331815 550.884427,303.07421 557.15644,296.745098 C563.426159,290.418301 573.593519,290.418301 579.865532,296.745098 L617.740782,336.124952 Z M700.295874,336.124952 C706.567887,342.451749 706.567887,352.71167 700.295874,359.038467 C694.026155,365.369894 683.858796,365.369894 677.589077,359.038467 L639.713827,319.663242 L639.711532,319.663242 C633.43952,313.331815 633.43952,303.07421 639.711532,296.745098 C645.981251,290.418301 656.148611,290.418301 662.420624,296.745098 L700.295874,336.124952 Z M534.288351,416.885369 C540.560364,423.212165 540.560364,433.472086 534.288351,439.798883 C528.018632,446.13031 517.851273,446.13031 511.581554,439.798883 L473.706304,400.423659 L473.70401,400.423659 C467.431997,394.092232 467.431997,383.834626 473.70401,377.505514 C479.973729,371.178717 490.141088,371.178717 496.413101,377.505514 L534.288351,416.885369 Z M641.049303,442.041685 C647.351004,448.361426 647.351004,458.609903 641.049303,464.929643 C634.749906,471.254007 624.53442,471.254007 618.235024,464.929643 L532.95231,377.061438 L532.95231,377.059126 C526.648304,370.739386 526.648304,360.490909 532.95231,354.171169 C539.251706,347.849116 549.467192,347.849116 555.766588,354.171169 C555.768893,354.171169 555.771198,354.171169 555.771198,354.173481 L641.049303,442.041685 Z M700.295874,416.885369 C706.567887,423.212165 706.567887,433.472086 700.295874,439.798883 C694.026155,446.13031 683.858796,446.13031 677.589077,439.798883 L639.713827,400.423659 L639.711532,400.423659 C633.43952,394.092232 633.43952,383.834626 639.711532,377.505514 C645.981251,371.178717 656.148611,371.178717 662.420624,377.505514 L700.295874,416.885369 Z M534.904205,499.626214 C541.235359,505.910553 541.235359,516.10162 534.904205,522.385958 C528.575367,528.674895 518.312137,528.674895 511.983299,522.385958 L473.750912,483.274978 L473.748597,483.274978 C467.417443,476.986041 467.417443,466.797273 473.748597,460.510636 C480.077435,454.226298 490.340665,454.226298 496.671819,460.510636 L534.904205,499.626214 Z M618.356635,499.626214 C624.687789,505.910553 624.687789,516.10162 618.356635,522.385958 C612.027798,528.674895 601.764567,528.674895 595.435729,522.385958 L557.203343,483.274978 L557.201027,483.274978 C550.869874,476.986041 550.869874,466.797273 557.201027,460.510636 C563.529865,454.226298 573.793095,454.226298 580.124249,460.510636 L618.356635,499.626214 Z M700.88833,500.218937 C707.244664,506.572946 707.244664,516.876996 700.88833,523.231006 C694.534321,529.589665 684.230271,529.589665 677.876261,523.231006 L660.439353,505.796422 L660.439353,505.794098 C654.080694,499.440088 654.080694,489.136038 660.439353,482.782029 C666.793363,476.425694 677.097413,476.425694 683.451422,482.782029 C683.453747,482.782029 683.456072,482.782029 683.456072,482.784354 L700.88833,500.218937 Z" id="Combined-Shape" fill="url(#linearGradient-2)"></path>
            <g id="Group-2" transform="translate(285.000000, 98.000000)">
                <g id="Oval-2">
                    <use fill="black" fill-opacity="1" filter="url(#filter-4)" xlink:href="#path-3"></use>
                    <use fill="#FFFFFF" fill-rule="evenodd" xlink:href="#path-3"></use>
                </g>
                <path d="M24.2192289,20.5558345 C25.260257,21.572292 25.260257,23.2206416 24.2192289,24.237099 C23.1785816,25.2543003 21.4910043,25.2543003 20.450357,24.237099 L17.7807711,21.4443515 C16.739743,20.4271502 16.739743,18.7791725 17.7807711,17.7623431 C18.8214184,16.7458856 20.5089957,16.7458856 21.5500238,17.7623431 L24.2192289,20.5558345 Z M41.2607178,23.7613109 C42.2464274,24.7307723 42.2464274,26.3029104 41.2607178,27.2723718 C40.2753687,28.2425427 38.6774664,28.2425427 37.6921173,27.2723718 L31.7396427,21.2388665 L31.7392822,21.2388665 C30.7535726,20.2686956 30.7535726,18.6969123 31.7392822,17.7270961 C32.7246313,16.7576346 34.3225336,16.7576346 35.3082432,17.7270961 L41.2607178,23.7613109 Z M55.2607178,23.7613109 C56.2464274,24.7307723 56.2464274,26.3029104 55.2607178,27.2723718 C54.2753687,28.2425427 52.6774664,28.2425427 51.6921173,27.2723718 L45.7396427,21.2388665 L45.7392822,21.2388665 C44.7535726,20.2686956 44.7535726,18.6969123 45.7392822,17.7270961 C46.7246313,16.7576346 48.3225336,16.7576346 49.3082432,17.7270961 L55.2607178,23.7613109 Z M27.2607178,36.7613109 C28.2464274,37.7307723 28.2464274,39.3029104 27.2607178,40.2723718 C26.2753687,41.2425427 24.6774664,41.2425427 23.6921173,40.2723718 L17.7396427,34.2388665 L17.7392822,34.2388665 C16.7535726,33.2686956 16.7535726,31.6969123 17.7392822,30.7270961 C18.7246313,29.7576346 20.3225336,29.7576346 21.3082432,30.7270961 L27.2607178,36.7613109 Z M45.2360845,41.6339069 C46.2546385,42.6325078 46.2546385,44.2519002 45.2360845,45.2505012 C44.217903,46.2498329 42.5667577,46.2498329 41.5485762,45.2505012 L27.7641949,31.3661845 L27.7641949,31.3658191 C26.7452684,30.3672181 26.7452684,28.7478257 27.7641949,27.7492248 C28.7823764,26.7502584 30.4335217,26.7502584 31.4517032,27.7492248 C31.4520757,27.7492248 31.4524483,27.7492248 31.4524483,27.7495901 L45.2360845,41.6339069 Z M55.2607178,36.7613109 C56.2464274,37.7307723 56.2464274,39.3029104 55.2607178,40.2723718 C54.2753687,41.2425427 52.6774664,41.2425427 51.6921173,40.2723718 L45.7396427,34.2388665 L45.7392822,34.2388665 C44.7535726,33.2686956 44.7535726,31.6969123 45.7392822,30.7270961 C46.7246313,29.7576346 48.3225336,29.7576346 49.3082432,30.7270961 L55.2607178,36.7613109 Z M27.2607178,50.7613109 C28.2464274,51.7307723 28.2464274,53.3029104 27.2607178,54.2723718 C26.2753687,55.2425427 24.6774664,55.2425427 23.6921173,54.2723718 L17.7396427,48.2388665 L17.7392822,48.2388665 C16.7535726,47.2686956 16.7535726,45.6969123 17.7392822,44.7270961 C18.7246313,43.7576346 20.3225336,43.7576346 21.3082432,44.7270961 L27.2607178,50.7613109 Z M41.2607178,50.7613109 C42.2464274,51.7307723 42.2464274,53.3029104 41.2607178,54.2723718 C40.2753687,55.2425427 38.6774664,55.2425427 37.6921173,54.2723718 L31.7396427,48.2388665 L31.7392822,48.2388665 C30.7535726,47.2686956 30.7535726,45.6969123 31.7392822,44.7270961 C32.7246313,43.7576346 34.3225336,43.7576346 35.3082432,44.7270961 L41.2607178,50.7613109 Z M55.2370144,50.5537157 C56.2543285,51.5706578 56.2543285,53.2197933 55.2370144,54.2367353 C54.2200723,55.2544216 52.5709369,55.2544216 51.5539948,54.2367353 L48.7632647,51.4463773 L48.7632647,51.4460052 C47.7455784,50.4290631 47.7455784,48.7799277 48.7632647,47.7629856 C49.7802067,46.7456715 51.4293422,46.7456715 52.4462843,47.7629856 C52.4466564,47.7629856 52.4470285,47.7629856 52.4470285,47.7633577 L55.2370144,50.5537157 Z" id="Combined-Shape" fill="#0C80EA"></path>
            </g>
            <path d="M214.184,197.416 C213.975999,198.824007 213.752001,200.055995 213.512,201.112 L221.24,201.112 L221.24,202.24 C220.855998,204.352011 220.352003,206.39999 219.728,208.384 L218.048,207.904 C218.608003,206.431993 219.071998,204.72001 219.44,202.768 L213.056,202.768 C212.479997,204.576009 211.736004,206.071994 210.824,207.256 L209.432,206.272 C211.000008,204.095989 212.015998,201.05602 212.48,197.152 L214.184,197.416 Z M208.448,215.512 C207.567996,214.167993 206.736004,212.936006 205.952,211.816 C204.607993,214.632014 202.92801,216.831992 200.912,218.416 L200.048,216.856 C202.08001,215.303992 203.703994,213.152014 204.92,210.4 C203.463993,208.46399 202.008007,206.696008 200.552,205.096 L201.704,203.992 C202.808005,205.096006 204.119992,206.62399 205.64,208.576 C206.312003,206.54399 206.839998,204.296012 207.224,201.832 L200.432,201.832 L200.432,200.152 L208.904,200.152 L208.904,201.736 C208.375997,204.888016 207.648005,207.647988 206.72,210.016 C207.456004,211.008005 208.447994,212.415991 209.696,214.24 L208.448,215.512 Z M216.368,204.472 C216.368,206.104008 216.272001,207.591993 216.08,208.936 C217.264006,212.744019 219.263986,215.767989 222.08,218.008 L220.928,219.352 C218.559988,217.27199 216.768006,214.728015 215.552,211.72 L215.36,212.392 C214.495996,215.224014 212.528015,217.551991 209.456,219.376 L208.352,218.008 C211.024013,216.439992 212.791996,214.472012 213.656,212.104 C214.312003,210.10399 214.648,207.560015 214.664,204.472 L216.368,204.472 Z M226.936,197.68 C228.552008,198.944006 229.887995,200.191994 230.944,201.424 L229.744,202.6 C228.783995,201.399994 227.464008,200.128007 225.784,198.784 L226.936,197.68 Z M241.408,218.944 C240.575996,218.944 239.088011,218.928 236.944,218.896 C235.327992,218.88 234.016005,218.736001 233.008,218.464 C232.047995,218.191999 231.168004,217.608004 230.368,216.712 C230.047998,216.295998 229.720002,216.088 229.384,216.088 C228.775997,216.088 227.784007,217.255988 226.408,219.592 L225.16,218.44 C226.504007,216.311989 227.671995,215.032002 228.664,214.6 L228.664,207.304 L225.16,207.304 L225.16,205.72 L230.224,205.72 L230.224,214.696 C230.448001,214.840001 230.663999,215.031999 230.872,215.272 C231.464003,215.944003 232.119996,216.455998 232.84,216.808 C233.560004,217.128002 234.695992,217.312 236.248,217.36 C238.008009,217.392 239.655992,217.408 241.192,217.408 L244.48,217.384 C245.728006,217.352 246.583998,217.32 247.048,217.288 L246.664,218.944 L241.408,218.944 Z M232.288,212.872 C232.656002,212.727999 232.84,212.432002 232.84,211.984 L232.84,199.624 C234.80801,198.999997 236.319995,198.296004 237.376,197.512 L238.288,198.832 C237.359995,199.520003 236.056008,200.159997 234.376,200.752 L234.376,212.248 C235.736007,211.895998 236.991994,211.512002 238.144,211.096 L238.408,212.608 C236.887992,213.120003 234.992011,213.679997 232.72,214.288 L232.288,212.872 Z M242.272,213.544 L241.816,211.96 L243.496,212.032 C244.072003,212.032 244.36,211.744003 244.36,211.168 L244.36,200.392 L240.928,200.392 L240.928,216.472 L239.368,216.472 L239.368,198.88 L245.92,198.88 L245.92,211.504 C245.92,212.864007 245.288006,213.544 244.024,213.544 L242.272,213.544 Z M256.896,199.84 L263.184,199.84 L263.184,197.392 L264.936,197.392 L264.936,199.84 L271.536,199.84 L271.536,201.496 L264.936,201.496 L264.936,203.776 L270.552,203.776 L270.552,210.568 L264.84,210.568 C264.647999,212.728011 264.232003,214.399994 263.592,215.584 C265.992012,216.896007 268.767984,217.639999 271.92,217.816 L271.488,219.472 C268.111983,219.247999 265.160013,218.400007 262.632,216.928 C261.335993,218.240007 259.296014,219.103998 256.512,219.52 L255.768,217.936 C258.232012,217.663999 260.015994,217.000005 261.12,215.944 C259.695993,214.935995 258.432005,213.720007 257.328,212.296 L258.648,211.384 C259.656005,212.648006 260.807993,213.743995 262.104,214.672 C262.616002,213.599995 262.943999,212.232008 263.088,210.568 L257.712,210.568 L257.712,203.776 L263.184,203.776 L263.184,201.496 L256.896,201.496 L256.896,199.84 Z M268.92,209.008 L268.92,205.312 L264.936,205.312 L264.936,208.72 L264.912,209.008 L268.92,209.008 Z M263.16,209.008 L263.184,208.72 L263.184,205.312 L259.344,205.312 L259.344,209.008 L263.16,209.008 Z M252.504,206.056 C251.687996,207.208006 250.856004,208.239995 250.008,209.152 L249.432,207.328 C251.928012,204.399985 253.727994,201.040019 254.832,197.248 L256.464,197.992 C255.855997,199.880009 255.112004,201.647992 254.232,203.296 L254.232,219.448 L252.504,219.448 L252.504,206.056 Z M278.6,205.768 L278.6,209.968 L284.696,209.968 L284.696,205.768 L278.6,205.768 Z M278.504,211.552 C278.231999,214.640015 277.336008,217.18399 275.816,219.184 L274.496,218.008 C276.032008,215.863989 276.824,213.152016 276.872,209.872 L276.872,198.352 L294.752,198.352 L294.752,216.328 C294.752,218.008008 293.912008,218.848 292.232,218.848 L289.472,218.848 L289.016,217.144 C290.296006,217.208 291.183997,217.24 291.68,217.24 C292.560004,217.24 293,216.736005 293,215.728 L293,211.552 L286.472,211.552 L286.472,218.584 L284.696,218.584 L284.696,211.552 L278.504,211.552 Z M293,209.968 L293,205.768 L286.472,205.768 L286.472,209.968 L293,209.968 Z M293,204.16 L293,200.032 L286.472,200.032 L286.472,204.16 L293,204.16 Z M284.696,200.032 L278.6,200.032 L278.6,204.16 L284.696,204.16 L284.696,200.032 Z M308.904,199.864 L321.24,199.864 L321.24,202.456 L311.904,202.456 L311.904,206.944 L320.544,206.944 L320.544,209.392 L311.904,209.392 L311.904,214.408 L321.408,214.408 L321.408,217 L308.904,217 L308.904,199.864 Z M336.392,205.312 C336.263999,204.815998 336.088001,204.360002 335.864,203.944 C335.639999,203.527998 335.352002,203.168002 335,202.864 C334.647998,202.559998 334.236002,202.324001 333.764,202.156 C333.291998,201.987999 332.744003,201.904 332.12,201.904 C331.207995,201.904 330.420003,202.087998 329.756,202.456 C329.091997,202.824002 328.552002,203.315997 328.136,203.932 C327.719998,204.548003 327.412001,205.247996 327.212,206.032 C327.011999,206.816004 326.912,207.615996 326.912,208.432 C326.912,209.248004 327.011999,210.047996 327.212,210.832 C327.412001,211.616004 327.719998,212.315997 328.136,212.932 C328.552002,213.548003 329.091997,214.039998 329.756,214.408 C330.420003,214.776002 331.207995,214.96 332.12,214.96 C332.792003,214.96 333.383997,214.844001 333.896,214.612 C334.408003,214.379999 334.847998,214.060002 335.216,213.652 C335.584002,213.243998 335.871999,212.768003 336.08,212.224 C336.288001,211.679997 336.424,211.096003 336.488,210.472 L339.416,210.472 C339.352,211.496005 339.132002,212.431996 338.756,213.28 C338.379998,214.128004 337.872003,214.859997 337.232,215.476 C336.591997,216.092003 335.840004,216.567998 334.976,216.904 C334.111996,217.240002 333.160005,217.408 332.12,217.408 C330.839994,217.408 329.692005,217.172002 328.676,216.7 C327.659995,216.227998 326.800004,215.584004 326.096,214.768 C325.391996,213.951996 324.852002,213.000005 324.476,211.912 C324.099998,210.823995 323.912,209.664006 323.912,208.432 C323.912,207.215994 324.099998,206.064005 324.476,204.976 C324.852002,203.887995 325.391996,202.936004 326.096,202.12 C326.800004,201.303996 327.659995,200.656002 328.676,200.176 C329.692005,199.695998 330.839994,199.456 332.12,199.456 C333.080005,199.456 333.983996,199.587999 334.832,199.852 C335.680004,200.116001 336.427997,200.499997 337.076,201.004 C337.724003,201.508003 338.247998,202.119996 338.648,202.84 C339.048002,203.560004 339.296,204.383995 339.392,205.312 L336.392,205.312 Z M348.256,217.336 C347.263995,217.336 346.380004,217.172002 345.604,216.844 C344.827996,216.515998 344.172003,216.064003 343.636,215.488 C343.099997,214.911997 342.692001,214.224004 342.412,213.424 C342.131999,212.623996 341.992,211.744005 341.992,210.784 C341.992,209.839995 342.131999,208.968004 342.412,208.168 C342.692001,207.367996 343.099997,206.680003 343.636,206.104 C344.172003,205.527997 344.827996,205.076002 345.604,204.748 C346.380004,204.419998 347.263995,204.256 348.256,204.256 C349.248005,204.256 350.131996,204.419998 350.908,204.748 C351.684004,205.076002 352.339997,205.527997 352.876,206.104 C353.412003,206.680003 353.819999,207.367996 354.1,208.168 C354.380001,208.968004 354.52,209.839995 354.52,210.784 C354.52,211.744005 354.380001,212.623996 354.1,213.424 C353.819999,214.224004 353.412003,214.911997 352.876,215.488 C352.339997,216.064003 351.684004,216.515998 350.908,216.844 C350.131996,217.172002 349.248005,217.336 348.256,217.336 Z M348.256,215.176 C348.864003,215.176 349.391998,215.048001 349.84,214.792 C350.288002,214.535999 350.655999,214.200002 350.944,213.784 C351.232001,213.367998 351.443999,212.900003 351.58,212.38 C351.716001,211.859997 351.784,211.328003 351.784,210.784 C351.784,210.255997 351.716001,209.728003 351.58,209.2 C351.443999,208.671997 351.232001,208.204002 350.944,207.796 C350.655999,207.387998 350.288002,207.056001 349.84,206.8 C349.391998,206.543999 348.864003,206.416 348.256,206.416 C347.647997,206.416 347.120002,206.543999 346.672,206.8 C346.223998,207.056001 345.856001,207.387998 345.568,207.796 C345.279999,208.204002 345.068001,208.671997 344.932,209.2 C344.795999,209.728003 344.728,210.255997 344.728,210.784 C344.728,211.328003 344.795999,211.859997 344.932,212.38 C345.068001,212.900003 345.279999,213.367998 345.568,213.784 C345.856001,214.200002 346.223998,214.535999 346.672,214.792 C347.120002,215.048001 347.647997,215.176 348.256,215.176 Z M357.672,199.864 L360.408,199.864 L360.408,202.456 L357.672,202.456 L357.672,199.864 Z M357.672,204.592 L360.408,204.592 L360.408,217 L357.672,217 L357.672,204.592 Z M364.184,204.592 L366.776,204.592 L366.776,206.416 L366.824,206.464 C367.240002,205.775997 367.783997,205.236002 368.456,204.844 C369.128003,204.451998 369.871996,204.256 370.688,204.256 C372.048007,204.256 373.119996,204.607996 373.904,205.312 C374.688004,206.016004 375.08,207.071993 375.08,208.48 L375.08,217 L372.344,217 L372.344,209.2 C372.312,208.223995 372.104002,207.516002 371.72,207.076 C371.335998,206.635998 370.736004,206.416 369.92,206.416 C369.455998,206.416 369.040002,206.499999 368.672,206.668 C368.303998,206.836001 367.992001,207.067999 367.736,207.364 C367.479999,207.660001 367.280001,208.007998 367.136,208.408 C366.991999,208.808002 366.92,209.231998 366.92,209.68 L366.92,217 L364.184,217 L364.184,204.592 Z M398.184,205.312 C398.055999,204.815998 397.880001,204.360002 397.656,203.944 C397.431999,203.527998 397.144002,203.168002 396.792,202.864 C396.439998,202.559998 396.028002,202.324001 395.556,202.156 C395.083998,201.987999 394.536003,201.904 393.912,201.904 C392.999995,201.904 392.212003,202.087998 391.548,202.456 C390.883997,202.824002 390.344002,203.315997 389.928,203.932 C389.511998,204.548003 389.204001,205.247996 389.004,206.032 C388.803999,206.816004 388.704,207.615996 388.704,208.432 C388.704,209.248004 388.803999,210.047996 389.004,210.832 C389.204001,211.616004 389.511998,212.315997 389.928,212.932 C390.344002,213.548003 390.883997,214.039998 391.548,214.408 C392.212003,214.776002 392.999995,214.96 393.912,214.96 C394.584003,214.96 395.175997,214.844001 395.688,214.612 C396.200003,214.379999 396.639998,214.060002 397.008,213.652 C397.376002,213.243998 397.663999,212.768003 397.872,212.224 C398.080001,211.679997 398.216,211.096003 398.28,210.472 L401.208,210.472 C401.144,211.496005 400.924002,212.431996 400.548,213.28 C400.171998,214.128004 399.664003,214.859997 399.024,215.476 C398.383997,216.092003 397.632004,216.567998 396.768,216.904 C395.903996,217.240002 394.952005,217.408 393.912,217.408 C392.631994,217.408 391.484005,217.172002 390.468,216.7 C389.451995,216.227998 388.592004,215.584004 387.888,214.768 C387.183997,213.951996 386.644002,213.000005 386.268,211.912 C385.891998,210.823995 385.704,209.664006 385.704,208.432 C385.704,207.215994 385.891998,206.064005 386.268,204.976 C386.644002,203.887995 387.183997,202.936004 387.888,202.12 C388.592004,201.303996 389.451995,200.656002 390.468,200.176 C391.484005,199.695998 392.631994,199.456 393.912,199.456 C394.872005,199.456 395.775996,199.587999 396.624,199.852 C397.472004,200.116001 398.219997,200.499997 398.868,201.004 C399.516003,201.508003 400.039998,202.119996 400.44,202.84 C400.840002,203.560004 401.088,204.383995 401.184,205.312 L398.184,205.312 Z M410.048,217.336 C409.055995,217.336 408.172004,217.172002 407.396,216.844 C406.619996,216.515998 405.964003,216.064003 405.428,215.488 C404.891997,214.911997 404.484001,214.224004 404.204,213.424 C403.923999,212.623996 403.784,211.744005 403.784,210.784 C403.784,209.839995 403.923999,208.968004 404.204,208.168 C404.484001,207.367996 404.891997,206.680003 405.428,206.104 C405.964003,205.527997 406.619996,205.076002 407.396,204.748 C408.172004,204.419998 409.055995,204.256 410.048,204.256 C411.040005,204.256 411.923996,204.419998 412.7,204.748 C413.476004,205.076002 414.131997,205.527997 414.668,206.104 C415.204003,206.680003 415.611999,207.367996 415.892,208.168 C416.172001,208.968004 416.312,209.839995 416.312,210.784 C416.312,211.744005 416.172001,212.623996 415.892,213.424 C415.611999,214.224004 415.204003,214.911997 414.668,215.488 C414.131997,216.064003 413.476004,216.515998 412.7,216.844 C411.923996,217.172002 411.040005,217.336 410.048,217.336 Z M410.048,215.176 C410.656003,215.176 411.183998,215.048001 411.632,214.792 C412.080002,214.535999 412.447999,214.200002 412.736,213.784 C413.024001,213.367998 413.235999,212.900003 413.372,212.38 C413.508001,211.859997 413.576,211.328003 413.576,210.784 C413.576,210.255997 413.508001,209.728003 413.372,209.2 C413.235999,208.671997 413.024001,208.204002 412.736,207.796 C412.447999,207.387998 412.080002,207.056001 411.632,206.8 C411.183998,206.543999 410.656003,206.416 410.048,206.416 C409.439997,206.416 408.912002,206.543999 408.464,206.8 C408.015998,207.056001 407.648001,207.387998 407.36,207.796 C407.071999,208.204002 406.860001,208.671997 406.724,209.2 C406.587999,209.728003 406.52,210.255997 406.52,210.784 C406.52,211.328003 406.587999,211.859997 406.724,212.38 C406.860001,212.900003 407.071999,213.367998 407.36,213.784 C407.648001,214.200002 408.015998,214.535999 408.464,214.792 C408.912002,215.048001 409.439997,215.176 410.048,215.176 Z M419.392,204.592 L421.96,204.592 L421.96,206.992 L422.008,206.992 C422.088,206.655998 422.243999,206.328002 422.476,206.008 C422.708001,205.687998 422.987998,205.396001 423.316,205.132 C423.644002,204.867999 424.007998,204.656001 424.408,204.496 C424.808002,204.335999 425.215998,204.256 425.632,204.256 C425.952002,204.256 426.171999,204.264 426.292,204.28 C426.412001,204.296 426.535999,204.312 426.664,204.328 L426.664,206.968 C426.471999,206.936 426.276001,206.908 426.076,206.884 C425.875999,206.86 425.680001,206.848 425.488,206.848 C425.023998,206.848 424.588002,206.939999 424.18,207.124 C423.771998,207.308001 423.416002,207.579998 423.112,207.94 C422.807999,208.300002 422.568001,208.743997 422.392,209.272 C422.215999,209.800003 422.128,210.407997 422.128,211.096 L422.128,217 L419.392,217 L419.392,204.592 Z M436.728,209.704 C436.696,209.271998 436.604001,208.856002 436.452,208.456 C436.299999,208.055998 436.092001,207.708001 435.828,207.412 C435.563999,207.115999 435.244002,206.876001 434.868,206.692 C434.491998,206.507999 434.072002,206.416 433.608,206.416 C433.127998,206.416 432.692002,206.499999 432.3,206.668 C431.907998,206.836001 431.572001,207.067999 431.292,207.364 C431.011999,207.660001 430.788001,208.007998 430.62,208.408 C430.451999,208.808002 430.36,209.239998 430.344,209.704 L436.728,209.704 Z M430.344,211.504 C430.344,211.984002 430.411999,212.447998 430.548,212.896 C430.684001,213.344002 430.887999,213.735998 431.16,214.072 C431.432001,214.408002 431.775998,214.675999 432.192,214.876 C432.608002,215.076001 433.103997,215.176 433.68,215.176 C434.480004,215.176 435.123998,215.004002 435.612,214.66 C436.100003,214.315998 436.463999,213.800003 436.704,213.112 L439.296,213.112 C439.151999,213.784003 438.904002,214.383997 438.552,214.912 C438.199998,215.440003 437.776003,215.883998 437.28,216.244 C436.783998,216.604002 436.228003,216.875999 435.612,217.06 C434.995997,217.244001 434.352003,217.336 433.68,217.336 C432.703995,217.336 431.840004,217.176002 431.088,216.856 C430.335996,216.535998 429.700003,216.088003 429.18,215.512 C428.659997,214.935997 428.268001,214.248004 428.004,213.448 C427.739999,212.647996 427.608,211.768005 427.608,210.808 C427.608,209.927996 427.747999,209.092004 428.028,208.3 C428.308001,207.507996 428.707997,206.812003 429.228,206.212 C429.748003,205.611997 430.375996,205.136002 431.112,204.784 C431.848004,204.431998 432.679995,204.256 433.608,204.256 C434.584005,204.256 435.459996,204.459998 436.236,204.868 C437.012004,205.276002 437.655998,205.815997 438.168,206.488 C438.680003,207.160003 439.051999,207.931996 439.284,208.804 C439.516001,209.676004 439.576001,210.575995 439.464,211.504 L430.344,211.504 Z" id="欢迎使用-ECoin-Core" fill="#FFFFFF"></path>
        </g>
    </g>
</svg>